<svg width="1161" height="701.5" xmlns="http://www.w3.org/2000/svg" xmlns:xlink="http://www.w3.org/1999/xlink" fill="#ffffff"><defs><style>
  text {
    fill: #212529;
    font-family: Helvetica Neue, Helvetica, Arial, sans-serif;
    font-size: 16px;
  }

  marker, text {
    fill-opacity: 1;
  }

  * {
    overflow: visible;
  }
</style></defs><svg x="865" y="145" width="280" height="330" class="Patcher" fill="#ffffff"><g><rect width="100%" height="40" stroke="none" fill="white" class="sc-fqkvVR eDtKfR"></rect><rect y="40" width="100%" height="290" stroke="none" fill="white" class="sc-fqkvVR eDtKfR"></rect><svg height="40"><text x="50%" y="50%" dominant-baseline="middle" text-anchor="middle" font-weight="bold" pointer-events="none">Patcher</text></svg><svg x="0" y="40.5" width="279" height="40" class="+ snapshot: Diagram" fill="#ffffff"><g><rect width="100%" height="100%" stroke="none" fill="white" class="sc-fqkvVR eDtKfR"></rect><text x="10" y="50%" dominant-baseline="middle" text-anchor="start" font-weight="normal" pointer-events="none">+ snapshot: Diagram</text></g></svg><svg x="0" y="80.5" width="279" height="40" class="+ initialize(s: Diagram)" fill="#ffffff"><g><rect width="100%" height="100%" stroke="none" fill="white" class="sc-fqkvVR eDtKfR"></rect><text x="10" y="50%" dominant-baseline="middle" text-anchor="start" font-weight="normal" pointer-events="none">+ initialize(s: Diagram)</text></g></svg><svg x="0" y="120.5" width="279" height="30" class="+ check(next: Diagram)" fill="#ffffff"><g><rect width="100%" height="100%" stroke="none" fill="white" class="sc-fqkvVR eDtKfR"></rect><text x="10" y="50%" dominant-baseline="middle" text-anchor="start" font-weight="normal" pointer-events="none">+ check(next: Diagram)</text></g></svg><svg x="0" y="150.5" width="279" height="30" class="+ checkContinuous(next: Diagram)" fill="#ffffff"><g><rect width="100%" height="100%" stroke="none" fill="white" class="sc-fqkvVR eDtKfR"></rect><text x="10" y="50%" dominant-baseline="middle" text-anchor="start" font-weight="normal" pointer-events="none">+ checkContinuous(next: Diagram)</text></g></svg><svg x="0" y="180.5" width="279" height="30" class="+ patch(p: Patch, d: Diagram)" fill="#ffffff"><g><rect width="100%" height="100%" stroke="none" fill="white" class="sc-fqkvVR eDtKfR"></rect><text x="10" y="50%" dominant-baseline="middle" text-anchor="start" font-weight="normal" pointer-events="none">+ patch(p: Patch, d: Diagram)</text></g></svg><svg x="0" y="210.5" width="279" height="30" class="+ subscribe()" fill="#ffffff"><g><rect width="100%" height="100%" stroke="none" fill="white" class="sc-fqkvVR eDtKfR"></rect><text x="10" y="50%" dominant-baseline="middle" text-anchor="start" font-weight="normal" pointer-events="none">+ subscribe()</text></g></svg><svg x="0" y="240.5" width="279" height="30" class="+ subscribeToDiscreteChanges()" fill="#ffffff"><g><rect width="100%" height="100%" stroke="none" fill="white" class="sc-fqkvVR eDtKfR"></rect><text x="10" y="50%" dominant-baseline="middle" text-anchor="start" font-weight="normal" pointer-events="none">+ subscribeToDiscreteChanges()</text></g></svg><svg x="0" y="270.5" width="279" height="30" class="+ subscribeToContinuousChanges()" fill="#ffffff"><g><rect width="100%" height="100%" stroke="none" fill="white" class="sc-fqkvVR eDtKfR"></rect><text x="10" y="50%" dominant-baseline="middle" text-anchor="start" font-weight="normal" pointer-events="none">+ subscribeToContinuousChanges()</text></g></svg><svg x="0" y="300.5" width="279" height="30" class="+ unsubscribe()" fill="#ffffff"><g><rect width="100%" height="100%" stroke="none" fill="white" class="sc-fqkvVR eDtKfR"></rect><text x="10" y="50%" dominant-baseline="middle" text-anchor="start" font-weight="normal" pointer-events="none">+ unsubscribe()</text></g></svg><rect width="100%" height="100%" stroke="black" fill="none" class="sc-fqkvVR jAaomD"></rect><path d="M 0 40 H 280" stroke="black" fill="white" class="sc-gEvEer fkqzOi"></path><path d="M 0 80 H 280" stroke="black" fill="white" class="sc-gEvEer fkqzOi"></path></g></svg><svg x="595" y="15" width="200" height="110" class="Patch Verifier" fill="#ffffff"><g><rect width="100%" height="40" stroke="none" fill="white" class="sc-fqkvVR eDtKfR"></rect><rect y="40" width="100%" height="70" stroke="none" fill="white" class="sc-fqkvVR eDtKfR"></rect><svg height="40"><text x="50%" y="50%" dominant-baseline="middle" text-anchor="middle" font-weight="bold" pointer-events="none">Patch Verifier</text></svg><svg x="0" y="40.5" width="199" height="40" class="+ sign(p: Patch): Patch" fill="#ffffff"><g><rect width="100%" height="100%" stroke="none" fill="white" class="sc-fqkvVR eDtKfR"></rect><text x="10" y="50%" dominant-baseline="middle" text-anchor="start" font-weight="normal" pointer-events="none">+ sign(p: Patch): Patch</text></g></svg><svg x="0" y="80.5" width="199" height="30" class="+ verified(p: Patch): Patch" fill="#ffffff"><g><rect width="100%" height="100%" stroke="none" fill="white" class="sc-fqkvVR eDtKfR"></rect><text x="10" y="50%" dominant-baseline="middle" text-anchor="start" font-weight="normal" pointer-events="none">+ verified(p: Patch): Patch</text></g></svg><rect width="100%" height="100%" stroke="black" fill="none" class="sc-fqkvVR jAaomD"></rect><path d="M 0 40 H 200" stroke="black" fill="white" class="sc-gEvEer fkqzOi"></path></g></svg><svg x="865" y="555" width="280" height="130" class="Patcher Options" fill="#ffffff"><g><rect width="100%" height="50" stroke="none" fill="white" class="sc-fqkvVR eDtKfR"></rect><rect y="50" width="100%" height="80" stroke="none" fill="white" class="sc-fqkvVR eDtKfR"></rect><svg height="50"><text x="50%" y="50%" dominant-baseline="middle" text-anchor="middle" font-weight="bold" pointer-events="none"><tspan x="50%" dy="-8" text-anchor="middle" font-size="85%">«interface»</tspan><tspan x="50%" dy="18" text-anchor="middle">Patcher Options</tspan></text></svg><svg x="0" y="50.5" width="279" height="40" class="+ maxFrequencey: number" fill="#ffffff"><g><rect width="100%" height="100%" stroke="none" fill="white" class="sc-fqkvVR eDtKfR"></rect><text x="10" y="50%" dominant-baseline="middle" text-anchor="start" font-weight="normal" pointer-events="none">+ maxFrequencey: number</text></g></svg><svg x="0" y="90.5" width="279" height="40" class="+ diff(a: Diagram, b: Diagram): Patch" fill="#ffffff"><g><rect width="100%" height="100%" stroke="none" fill="white" class="sc-fqkvVR eDtKfR"></rect><text x="10" y="50%" dominant-baseline="middle" text-anchor="start" font-weight="normal" pointer-events="none">+ diff(a: Diagram, b: Diagram): Patch</text></g></svg><rect width="100%" height="100%" stroke="black" fill="none" class="sc-fqkvVR jAaomD"></rect><path d="M 0 50 H 280" stroke="black" fill="white" class="sc-gEvEer fkqzOi"></path><path d="M 0 90 H 280" stroke="black" fill="white" class="sc-gEvEer fkqzOi"></path></g></svg><svg x="605" y="415" width="200" height="40" class="PatcherMiddleware" fill="#ffffff"><g><rect width="100%" height="40" stroke="none" fill="white" class="sc-fqkvVR eDtKfR"></rect><rect y="40" width="100%" height="0" stroke="none" fill="white" class="sc-fqkvVR eDtKfR"></rect><svg height="40"><text x="50%" y="50%" dominant-baseline="middle" text-anchor="middle" font-weight="bold" pointer-events="none">PatcherMiddleware</text></svg><rect width="100%" height="100%" stroke="black" fill="none" class="sc-fqkvVR jAaomD"></rect></g></svg><svg x="605" y="305" width="200" height="40" class="PatcherReducer" fill="#ffffff"><g><rect width="100%" height="40" stroke="none" fill="white" class="sc-fqkvVR eDtKfR"></rect><rect y="40" width="100%" height="0" stroke="none" fill="white" class="sc-fqkvVR eDtKfR"></rect><svg height="40"><text x="50%" y="50%" dominant-baseline="middle" text-anchor="middle" font-weight="bold" pointer-events="none">PatcherReducer</text></svg><rect width="100%" height="100%" stroke="black" fill="none" class="sc-fqkvVR jAaomD"></rect></g></svg><svg x="605" y="195" width="200" height="40" class="PatcherSaga" fill="#ffffff"><g><rect width="100%" height="40" stroke="none" fill="white" class="sc-fqkvVR eDtKfR"></rect><rect y="40" width="100%" height="0" stroke="none" fill="white" class="sc-fqkvVR eDtKfR"></rect><svg height="40"><text x="50%" y="50%" dominant-baseline="middle" text-anchor="middle" font-weight="bold" pointer-events="none">PatcherSaga</text></svg><rect width="100%" height="100%" stroke="black" fill="none" class="sc-fqkvVR jAaomD"></rect></g></svg><svg x="595" y="535" width="230" height="150" class="PatcherMiddlewareOptions" fill="#ffffff"><g><rect width="100%" height="50" stroke="none" fill="white" class="sc-fqkvVR eDtKfR"></rect><rect y="50" width="100%" height="100" stroke="none" fill="white" class="sc-fqkvVR eDtKfR"></rect><svg height="50"><text x="50%" y="50%" dominant-baseline="middle" text-anchor="middle" font-weight="bold" pointer-events="none"><tspan x="50%" dy="-8" text-anchor="middle" font-size="85%">«interface»</tspan><tspan x="50%" dy="18" text-anchor="middle">PatcherMiddlewareOptions</tspan></text></svg><svg x="0" y="50.5" width="229" height="40" class="+ transform()" fill="#ffffff"><g><rect width="100%" height="100%" stroke="none" fill="white" class="sc-fqkvVR eDtKfR"></rect><text x="10" y="50%" dominant-baseline="middle" text-anchor="start" font-weight="normal" pointer-events="none">+ transform()</text></g></svg><svg x="0" y="90.5" width="229" height="30" class="+ selectDiscrete()" fill="#ffffff"><g><rect width="100%" height="100%" stroke="none" fill="white" class="sc-fqkvVR eDtKfR"></rect><text x="10" y="50%" dominant-baseline="middle" text-anchor="start" font-weight="normal" pointer-events="none">+ selectDiscrete()</text></g></svg><svg x="0" y="120.5" width="229" height="30" class="+ selectContinuous()" fill="#ffffff"><g><rect width="100%" height="100%" stroke="none" fill="white" class="sc-fqkvVR eDtKfR"></rect><text x="10" y="50%" dominant-baseline="middle" text-anchor="start" font-weight="normal" pointer-events="none">+ selectContinuous()</text></g></svg><rect width="100%" height="100%" stroke="black" fill="none" class="sc-fqkvVR jAaomD"></rect><path d="M 0 50 H 230" stroke="black" fill="white" class="sc-gEvEer fkqzOi"></path></g></svg><svg x="305" y="535" width="250" height="150" class="PatcherReducerOptions" fill="#ffffff"><g><rect width="100%" height="50" stroke="none" fill="white" class="sc-fqkvVR eDtKfR"></rect><rect y="50" width="100%" height="100" stroke="none" fill="white" class="sc-fqkvVR eDtKfR"></rect><svg height="50"><text x="50%" y="50%" dominant-baseline="middle" text-anchor="middle" font-weight="bold" pointer-events="none"><tspan x="50%" dy="-8" text-anchor="middle" font-size="85%">«interface»</tspan><tspan x="50%" dy="18" text-anchor="middle">PatcherReducerOptions</tspan></text></svg><svg x="0" y="50.5" width="249" height="40" class="+ transform()" fill="#ffffff"><g><rect width="100%" height="100%" stroke="none" fill="white" class="sc-fqkvVR eDtKfR"></rect><text x="10" y="50%" dominant-baseline="middle" text-anchor="start" font-weight="normal" pointer-events="none">+ transform()</text></g></svg><svg x="0" y="90.5" width="249" height="30" class="+ transformInverse()" fill="#ffffff"><g><rect width="100%" height="100%" stroke="none" fill="white" class="sc-fqkvVR eDtKfR"></rect><text x="10" y="50%" dominant-baseline="middle" text-anchor="start" font-weight="normal" pointer-events="none">+ transformInverse()</text></g></svg><svg x="0" y="120.5" width="249" height="30" class="+ merge(a: Diagram, b: Diagram)" fill="#ffffff"><g><rect width="100%" height="100%" stroke="none" fill="white" class="sc-fqkvVR eDtKfR"></rect><text x="10" y="50%" dominant-baseline="middle" text-anchor="start" font-weight="normal" pointer-events="none">+ merge(a: Diagram, b: Diagram)</text></g></svg><rect width="100%" height="100%" stroke="black" fill="none" class="sc-fqkvVR jAaomD"></rect><path d="M 0 50 H 250" stroke="black" fill="white" class="sc-gEvEer fkqzOi"></path></g></svg><svg x="315" y="15" width="200" height="70" class="Patcher Repository" fill="#ffffff"><g><rect width="100%" height="40" stroke="none" fill="white" class="sc-fqkvVR eDtKfR"></rect><rect y="40" width="100%" height="30" stroke="none" fill="white" class="sc-fqkvVR eDtKfR"></rect><svg height="40"><text x="50%" y="50%" dominant-baseline="middle" text-anchor="middle" font-weight="bold" pointer-events="none">Patcher Repository</text></svg><svg x="0" y="40.5" width="199" height="30" class="+ patch(p: Patch)" fill="#ffffff"><g><rect width="100%" height="100%" stroke="none" fill="white" class="sc-fqkvVR eDtKfR"></rect><text x="10" y="50%" dominant-baseline="middle" text-anchor="start" font-weight="normal" pointer-events="none">+ patch(p: Patch)</text></g></svg><rect width="100%" height="100%" stroke="black" fill="none" class="sc-fqkvVR jAaomD"></rect><path d="M 0 40 H 200" stroke="black" fill="white" class="sc-gEvEer fkqzOi"></path></g></svg><svg x="295" y="155" width="200" height="120" class="PatchAction" fill="#ffffff"><g><rect width="100%" height="50" stroke="none" fill="white" class="sc-fqkvVR eDtKfR"></rect><rect y="50" width="100%" height="70" stroke="none" fill="white" class="sc-fqkvVR eDtKfR"></rect><svg height="50"><text x="50%" y="50%" dominant-baseline="middle" text-anchor="middle" font-weight="bold" pointer-events="none"><tspan x="50%" dy="-8" text-anchor="middle" font-size="85%">«interface»</tspan><tspan x="50%" dy="18" text-anchor="middle">PatchAction</tspan></text></svg><svg x="0" y="50.5" width="199" height="40" class="+ type: PATCH" fill="#ffffff"><g><rect width="100%" height="100%" stroke="none" fill="white" class="sc-fqkvVR eDtKfR"></rect><text x="10" y="50%" dominant-baseline="middle" text-anchor="start" font-weight="normal" pointer-events="none">+ type: PATCH</text></g></svg><svg x="0" y="90.5" width="199" height="30" class="+ payload: Patch" fill="#ffffff"><g><rect width="100%" height="100%" stroke="none" fill="white" class="sc-fqkvVR eDtKfR"></rect><text x="10" y="50%" dominant-baseline="middle" text-anchor="start" font-weight="normal" pointer-events="none">+ payload: Patch</text></g></svg><rect width="100%" height="100%" stroke="black" fill="none" class="sc-fqkvVR jAaomD"></rect><path d="M 0 50 H 200" stroke="black" fill="white" class="sc-gEvEer fkqzOi"></path></g></svg><svg x="15" y="275" width="200" height="120" class="Action" fill="#ffffff"><g><rect width="100%" height="50" stroke="none" fill="white" class="sc-fqkvVR eDtKfR"></rect><rect y="50" width="100%" height="70" stroke="none" fill="white" class="sc-fqkvVR eDtKfR"></rect><svg height="50"><text x="50%" y="50%" dominant-baseline="middle" text-anchor="middle" font-weight="bold" pointer-events="none"><tspan x="50%" dy="-8" text-anchor="middle" font-size="85%">«interface»</tspan><tspan x="50%" dy="18" text-anchor="middle">Action</tspan></text></svg><svg x="0" y="50.5" width="199" height="40" class="+ type" fill="#ffffff"><g><rect width="100%" height="100%" stroke="none" fill="white" class="sc-fqkvVR eDtKfR"></rect><text x="10" y="50%" dominant-baseline="middle" text-anchor="start" font-weight="normal" pointer-events="none">+ type</text></g></svg><svg x="0" y="90.5" width="199" height="30" class="+ payload" fill="#ffffff"><g><rect width="100%" height="100%" stroke="none" fill="white" class="sc-fqkvVR eDtKfR"></rect><text x="10" y="50%" dominant-baseline="middle" text-anchor="start" font-weight="normal" pointer-events="none">+ payload</text></g></svg><rect width="100%" height="100%" stroke="black" fill="none" class="sc-fqkvVR jAaomD"></rect><path d="M 0 50 H 200" stroke="black" fill="white" class="sc-gEvEer fkqzOi"></path></g></svg><svg x="1000" y="475" width="10" height="80" class="" fill="#ffffff"><g><marker id="marker-bd73cc8e-83e6-4285-8113-7fdf18dd7ca3" viewBox="0 0 30 30" markerWidth="22" markerHeight="30" refX="30" refY="15" orient="auto" markerUnits="strokeWidth"><path d="M0,29 L30,15 L0,1" stroke="black" fill="none" class="sc-gEvEer bFSwyf"></path></marker><polyline points="5 0,5 80" stroke-width="1" marker-end="url(#marker-bd73cc8e-83e6-4285-8113-7fdf18dd7ca3)" stroke-dasharray="7" stroke="black" fill="none" class="sc-aXZVg eMElBf"></polyline><text x="5" y="8" dx="5" dy="10" text-anchor="start" pointer-events="none"></text><text x="5" y="49" dx="5" text-anchor="start" pointer-events="none"></text><text x="5" y="8" dx="-5" dy="10" text-anchor="end" pointer-events="none"></text><text x="5" y="49" dx="-5" text-anchor="end" pointer-events="none"></text></g></svg><svg x="805" y="315" width="60" height="31" class="" fill="#ffffff"><g><marker id="marker-b10aeb3b-9fad-4462-92f5-fa0435932090" viewBox="0 0 30 30" markerWidth="22" markerHeight="30" refX="30" refY="15" orient="auto" markerUnits="strokeWidth"><path d="M0,29 L30,15 L0,1" stroke="black" fill="none" class="sc-gEvEer bFSwyf"></path></marker><polyline points="0 10,60 10" stroke-width="1" marker-end="url(#marker-b10aeb3b-9fad-4462-92f5-fa0435932090)" stroke-dasharray="7" stroke="black" fill="none" class="sc-aXZVg eMElBf"></polyline><text x="8" y="10" dy="21" text-anchor="start" pointer-events="none"></text><text x="29" y="10" dy="21" text-anchor="end" pointer-events="none"></text><text x="8" y="10" dy="-10" text-anchor="start" pointer-events="none"></text><text x="29" y="10" dy="-10" text-anchor="end" pointer-events="none"></text></g></svg><svg x="805" y="425" width="60" height="31" class="" fill="#ffffff"><g><marker id="marker-6abc9847-d7fc-43f6-99a3-fda2e784813b" viewBox="0 0 30 30" markerWidth="22" markerHeight="30" refX="30" refY="15" orient="auto" markerUnits="strokeWidth"><path d="M0,29 L30,15 L0,1" stroke="black" fill="none" class="sc-gEvEer bFSwyf"></path></marker><polyline points="0 10,60 10" stroke-width="1" marker-end="url(#marker-6abc9847-d7fc-43f6-99a3-fda2e784813b)" stroke-dasharray="7" stroke="black" fill="none" class="sc-aXZVg eMElBf"></polyline><text x="8" y="10" dy="21" text-anchor="start" pointer-events="none"></text><text x="29" y="10" dy="21" text-anchor="end" pointer-events="none"></text><text x="8" y="10" dy="-10" text-anchor="start" pointer-events="none"></text><text x="29" y="10" dy="-10" text-anchor="end" pointer-events="none"></text></g></svg><svg x="700" y="455" width="10" height="80" class="" fill="#ffffff"><g><marker id="marker-771eba74-e818-4496-8649-cd45eeacd036" viewBox="0 0 30 30" markerWidth="22" markerHeight="30" refX="30" refY="15" orient="auto" markerUnits="strokeWidth"><path d="M0,29 L30,15 L0,1" stroke="black" fill="none" class="sc-gEvEer bFSwyf"></path></marker><polyline points="5 0,5 80" stroke-width="1" marker-end="url(#marker-771eba74-e818-4496-8649-cd45eeacd036)" stroke-dasharray="7" stroke="black" fill="none" class="sc-aXZVg eMElBf"></polyline><text x="5" y="8" dx="5" dy="10" text-anchor="start" pointer-events="none"></text><text x="5" y="49" dx="5" text-anchor="start" pointer-events="none"></text><text x="5" y="8" dx="-5" dy="10" text-anchor="end" pointer-events="none"></text><text x="5" y="49" dx="-5" text-anchor="end" pointer-events="none"></text></g></svg><svg x="425" y="345" width="280" height="200" class="" fill="#ffffff"><g><marker id="marker-e8c29292-8f7b-4b13-90be-0a2f403370c7" viewBox="0 0 30 30" markerWidth="22" markerHeight="30" refX="30" refY="15" orient="auto" markerUnits="strokeWidth"><path d="M0,29 L30,15 L0,1" stroke="black" fill="none" class="sc-gEvEer bFSwyf"></path></marker><polyline points="280 0,280 44.25,5 44.25,5 190" stroke-width="1" marker-end="url(#marker-e8c29292-8f7b-4b13-90be-0a2f403370c7)" stroke-dasharray="7" stroke="black" fill="none" class="sc-aXZVg eMElBf"></polyline><text x="280" y="8" dx="5" dy="10" text-anchor="start" pointer-events="none"></text><text x="5" y="159" dx="5" text-anchor="start" pointer-events="none"></text><text x="280" y="8" dx="-5" dy="10" text-anchor="end" pointer-events="none"></text><text x="5" y="159" dx="-5" text-anchor="end" pointer-events="none"></text></g></svg><svg x="347.546875" y="85" width="62.453125" height="70" class="" fill="#ffffff"><g><polyline points="57.453125 0,57.453125 70" stroke-width="1" marker-end="url(#marker-cac46c13-e622-4e14-8a57-97e2215ff3fc)" stroke="black" fill="none" class="sc-aXZVg eMElBf"></polyline><text x="57.453125" y="8" dx="5" dy="10" text-anchor="start" pointer-events="none"></text><text x="57.453125" y="62" dx="5" text-anchor="start" pointer-events="none"></text><text x="57.453125" y="8" dx="-5" dy="10" text-anchor="end" pointer-events="none">creates</text><text x="57.453125" y="62" dx="-5" text-anchor="end" pointer-events="none"></text></g></svg><svg x="495" y="205" width="110" height="31" class="" fill="#ffffff"><g><polyline points="0 10,110 10" stroke-width="1" marker-end="url(#marker-5b960eae-b455-4586-be9e-0eb4ddc23528)" stroke="black" fill="none" class="sc-aXZVg eMElBf"></polyline><text x="8" y="10" dy="21" text-anchor="start" pointer-events="none"></text><text x="102" y="10" dy="21" text-anchor="end" pointer-events="none"></text><text x="8" y="10" dy="-10" text-anchor="start" pointer-events="none"></text><text x="102" y="10" dy="-10" text-anchor="end" pointer-events="none">intercepts</text></g></svg><svg x="390" y="275" width="215" height="71" class="" fill="#ffffff"><g><polyline points="215 50,5 50,5 0" stroke-width="1" marker-end="url(#marker-430f9b17-18bf-480a-aedc-22cc87013de5)" stroke="black" fill="none" class="sc-aXZVg eMElBf"></polyline><text x="207" y="50" dy="21" text-anchor="end" pointer-events="none"></text><text x="5" y="8" dx="5" dy="10" text-anchor="start" pointer-events="none"></text><text x="207" y="50" dy="-10" text-anchor="end" pointer-events="none">intercepts</text><text x="5" y="8" dx="-5" dy="10" text-anchor="end" pointer-events="none"></text></g></svg><svg x="795" y="60" width="223.8984375" height="85" class="" fill="#ffffff"><g><marker id="marker-fedf7966-6157-4758-bf00-89a98cf0e3bb" viewBox="0 0 30 30" markerWidth="30" markerHeight="30" refX="30" refY="15" orient="auto" markerUnits="strokeWidth"><path d="M0,15 L15,22 L30,15 L15,8 z" stroke="white" fill="black" class="sc-eqUAAy dLsBSg"></path></marker><polyline points="0 10,210 10,210 85" stroke-width="1" marker-end="url(#marker-fedf7966-6157-4758-bf00-89a98cf0e3bb)" stroke="black" fill="none" class="sc-aXZVg eMElBf"></polyline><text x="8" y="10" dy="21" text-anchor="start" pointer-events="none">1</text><text x="210" y="54" dx="5" text-anchor="start" pointer-events="none">1</text><text x="8" y="10" dy="-10" text-anchor="start" pointer-events="none"></text><text x="210" y="54" dx="-5" text-anchor="end" pointer-events="none"></text></g></svg><svg x="215" y="205" width="80" height="151" class="" fill="#ffffff"><g><marker id="marker-646da92a-901b-4d38-8342-681817484f13" viewBox="0 0 30 30" markerWidth="22" markerHeight="30" refX="30" refY="15" orient="auto" markerUnits="strokeWidth"><path d="M0,1 L0,29 L30,15 z" stroke="black" fill="white" class="sc-gEvEer fkqzOi"></path></marker><polyline points="80 10,40 10,40 130,0 130" stroke-width="1" marker-end="url(#marker-646da92a-901b-4d38-8342-681817484f13)" stroke="black" fill="none" class="sc-aXZVg eMElBf"></polyline><text x="72" y="10" dy="21" text-anchor="end" pointer-events="none"></text><text x="31" y="130" dy="21" text-anchor="start" pointer-events="none"></text><text x="72" y="10" dy="-10" text-anchor="end" pointer-events="none"></text><text x="31" y="130" dy="-10" text-anchor="start" pointer-events="none"></text></g></svg><svg x="110" y="395" width="495" height="61" class="" fill="#ffffff"><g><polyline points="5 0,5 40,495 40" stroke-width="1" marker-end="url(#marker-13f86411-6ad0-4c72-9d8b-c96ceb5059d0)" stroke="black" fill="none" class="sc-aXZVg eMElBf"></polyline><text x="5" y="8" dx="5" dy="10" text-anchor="start" pointer-events="none"></text><text x="487" y="40" dy="21" text-anchor="end" pointer-events="none"></text><text x="5" y="8" dx="-5" dy="10" text-anchor="end" pointer-events="none"></text><text x="487" y="40" dy="-10" text-anchor="end" pointer-events="none">intercepts</text></g></svg></svg>