<?xml version="1.0" encoding="UTF-8"?>
<svg width="512px" height="320px" viewBox="0 0 512 320" version="1.1" xmlns="http://www.w3.org/2000/svg" xmlns:xlink="http://www.w3.org/1999/xlink">
    <title>crdt-counter</title>
    <g id="crdt-counter" stroke="none" stroke-width="1" fill="none" fill-rule="evenodd">
        <g id="Group" transform="translate(53, 24)">
            <line x1="155" y1="32.5" x2="155" y2="255" id="Path" stroke="#000000" stroke-width="2"></line>
            <path id="Path-Copy-2" d="M41.5,32.5 L41.5,253.591 L45.0642122,247.254869 L45.9357878,247.745131 L41.4357878,255.745131 L41,256.519864 L40.5642122,255.745131 L36.0642122,247.745131 L36.9357878,247.254869 L40.5,253.591 L40.5,32.5 L41.5,32.5 Z" fill="#000000" fill-rule="nonzero"></path>
            <path id="Path-Copy-3" d="M157.93955,54.3427947 C159.693165,55.8557178 159.994406,58.426477 158.713398,60.2924905 L302.687252,184.506088 L307.26,188.451 L304.790601,181.613377 L305.731148,181.273713 L308.848852,189.906784 L309.150776,190.742826 L308.27951,190.566704 L299.282706,188.748043 L299.480844,187.767869 L306.607,189.208 L302.034019,185.263244 L158.059553,61.0504114 C156.401463,62.5913053 153.81415,62.670201 152.06045,61.1572053 C150.178703,59.5337368 149.969326,56.6921979 151.592795,54.8104503 C153.216263,52.9287028 156.057802,52.7193263 157.93955,54.3427947 Z" fill="#000000" fill-rule="nonzero"></path>
            <path id="Path-Copy-4" d="M315.944603,55.5843353 C317.140667,57.7628797 316.344209,60.4985399 314.165665,61.6946035 C312.135381,62.8092691 309.62123,62.1933864 308.320321,60.3410505 L165.797919,138.588209 L160.476,141.51 L167.745153,141.585189 L167.734854,142.585136 L158.556561,142.490603 L157.667719,142.481448 L158.137108,141.726598 L162.984072,133.931924 L163.833277,134.459986 L159.993,140.633 L165.31666,137.71163 L307.838755,59.4639485 C306.974101,57.3720145 307.804005,54.920088 309.834335,53.8053965 C312.01288,52.609333 314.74854,53.405791 315.944603,55.5843353 Z" fill="#000000" fill-rule="nonzero"></path>
            <path id="Path-Copy-5" d="M162.984072,183.931924 L163.833277,184.459986 L159.994,190.633 L163.210495,188.867956 L163.691754,189.744535 L160.475,191.51 L167.745153,191.585189 L167.734854,192.585136 L158.556561,192.490603 L157.667719,192.481448 L158.137108,191.726598 L162.984072,183.931924 Z M159.793,190.955 L159.455,191.499 L160.095,191.506 L159.793,190.955 Z M170.223124,185.017886 L170.704382,185.894464 L167.198068,187.819499 L166.716809,186.942921 L170.223124,185.017886 Z M177.235752,181.167815 L177.717011,182.044394 L174.210697,183.969429 L173.729438,183.09285 L177.235752,181.167815 Z M184.24838,177.317745 L184.729639,178.194323 L181.223325,180.119358 L180.742066,179.24278 L184.24838,177.317745 Z M191.261009,173.467674 L191.742268,174.344253 L188.235953,176.269288 L187.754695,175.392709 L191.261009,173.467674 Z M198.273637,169.617604 L198.754896,170.494182 L195.248582,172.419217 L194.767323,171.542639 L198.273637,169.617604 Z M205.286266,165.767533 L205.767524,166.644112 L202.26121,168.569147 L201.779951,167.692568 L205.286266,165.767533 Z M212.298894,161.917463 L212.780153,162.794041 L209.273839,164.719076 L208.79258,163.842498 L212.298894,161.917463 Z M219.311522,158.067392 L219.792781,158.943971 L216.286467,160.869006 L215.805208,159.992427 L219.311522,158.067392 Z M234.006605,150.569903 C235.202668,152.748448 234.40621,155.484108 232.227666,156.680171 C230.197382,157.794837 227.683231,157.178954 226.382322,155.326618 L223.299095,157.018935 L222.817837,156.142357 L225.900857,154.44976 C225.036038,152.357773 225.865927,149.905699 227.896337,148.790964 C230.074881,147.594901 232.810541,148.391359 234.006605,150.569903 Z M228.377595,149.667543 C226.683172,150.597815 226.063705,152.72555 226.993976,154.419974 C227.924248,156.114397 230.051984,156.733865 231.746407,155.803593 C233.44083,154.873321 234.060298,152.745585 233.130026,151.051162 C232.199755,149.356739 230.072019,148.737271 228.377595,149.667543 Z" fill="#FF9500" fill-rule="nonzero"></path>
            <g id="texts-outlined" transform="translate(29.041, 2.3457)" fill-rule="nonzero">
                <g id="0-[0,-0]" transform="translate(111.9199, 0)" fill="#000000">
                    <path d="M14.0332031,8.85351562 C13.4082031,8.85351562 12.8740234,8.67382812 12.4306641,8.31445312 C11.9873047,7.95507812 11.6464844,7.44433594 11.4082031,6.78222656 C11.1699219,6.12011719 11.0507812,5.3359375 11.0507812,4.4296875 L11.0507812,4.41796875 C11.0507812,3.51171875 11.1699219,2.72851562 11.4082031,2.06835938 C11.6464844,1.40820312 11.9873047,0.8984375 12.4306641,0.5390625 C12.8740234,0.1796875 13.4082031,0 14.0332031,0 C14.6582031,0 15.1933594,0.1796875 15.6386719,0.5390625 C16.0839844,0.8984375 16.4267578,1.40820312 16.6669922,2.06835938 C16.9072266,2.72851562 17.0273438,3.51171875 17.0273438,4.41796875 L17.0273438,4.4296875 C17.0273438,5.3359375 16.9072266,6.12011719 16.6669922,6.78222656 C16.4267578,7.44433594 16.0839844,7.95507812 15.6386719,8.31445312 C15.1933594,8.67382812 14.6582031,8.85351562 14.0332031,8.85351562 Z M14.0332031,7.93359375 C14.4394531,7.93359375 14.7861328,7.79101562 15.0732422,7.50585938 C15.3603516,7.22070312 15.5810547,6.81640625 15.7353516,6.29296875 C15.8896484,5.76953125 15.9667969,5.1484375 15.9667969,4.4296875 L15.9667969,4.41796875 C15.9667969,3.69921875 15.8896484,3.07910156 15.7353516,2.55761719 C15.5810547,2.03613281 15.3603516,1.63378906 15.0732422,1.35058594 C14.7861328,1.06738281 14.4394531,0.92578125 14.0332031,0.92578125 C13.6308594,0.92578125 13.2861328,1.06738281 12.9990234,1.35058594 C12.7119141,1.63378906 12.4921875,2.03613281 12.3398438,2.55761719 C12.1875,3.07910156 12.1113281,3.69921875 12.1113281,4.41796875 L12.1113281,4.4296875 C12.1113281,5.1484375 12.1875,5.76953125 12.3398438,6.29296875 C12.4921875,6.81640625 12.7119141,7.22070312 12.9990234,7.50585938 C13.2861328,7.79101562 13.6308594,7.93359375 14.0332031,7.93359375 Z" id="Shape"></path>
                    <polygon id="Path" points="0 24.7636719 0 13.8300781 2.54296875 13.8300781 2.54296875 14.6269531 0.984375 14.6269531 0.984375 23.9667969 2.54296875 23.9667969 2.54296875 24.7636719"></polygon>
                    <path d="M6.78515625,22.8535156 C6.16015625,22.8535156 5.62597656,22.6738281 5.18261719,22.3144531 C4.73925781,21.9550781 4.3984375,21.4443359 4.16015625,20.7822266 C3.921875,20.1201172 3.80273438,19.3359375 3.80273438,18.4296875 L3.80273438,18.4179688 C3.80273438,17.5117188 3.921875,16.7285156 4.16015625,16.0683594 C4.3984375,15.4082031 4.73925781,14.8984375 5.18261719,14.5390625 C5.62597656,14.1796875 6.16015625,14 6.78515625,14 C7.41015625,14 7.9453125,14.1796875 8.390625,14.5390625 C8.8359375,14.8984375 9.17871094,15.4082031 9.41894531,16.0683594 C9.65917969,16.7285156 9.77929688,17.5117188 9.77929688,18.4179688 L9.77929688,18.4296875 C9.77929688,19.3359375 9.65917969,20.1201172 9.41894531,20.7822266 C9.17871094,21.4443359 8.8359375,21.9550781 8.390625,22.3144531 C7.9453125,22.6738281 7.41015625,22.8535156 6.78515625,22.8535156 Z M6.78515625,21.9335938 C7.19140625,21.9335938 7.53808594,21.7910156 7.82519531,21.5058594 C8.11230469,21.2207031 8.33300781,20.8164062 8.48730469,20.2929688 C8.64160156,19.7695312 8.71875,19.1484375 8.71875,18.4296875 L8.71875,18.4179688 C8.71875,17.6992188 8.64160156,17.0791016 8.48730469,16.5576172 C8.33300781,16.0361328 8.11230469,15.6337891 7.82519531,15.3505859 C7.53808594,15.0673828 7.19140625,14.9257812 6.78515625,14.9257812 C6.3828125,14.9257812 6.03808594,15.0673828 5.75097656,15.3505859 C5.46386719,15.6337891 5.24414062,16.0361328 5.09179688,16.5576172 C4.93945312,17.0791016 4.86328125,17.6992188 4.86328125,18.4179688 L4.86328125,18.4296875 C4.86328125,19.1484375 4.93945312,19.7695312 5.09179688,20.2929688 C5.24414062,20.8164062 5.46386719,21.2207031 5.75097656,21.5058594 C6.03808594,21.7910156 6.3828125,21.9335938 6.78515625,21.9335938 Z" id="Shape"></path>
                    <polygon id="Path" points="11.2617188 24.8046875 11.7714844 21.4707031 12.9375 21.4707031 12.0175781 24.8046875"></polygon>
                    <path d="M21.28125,22.8535156 C20.65625,22.8535156 20.1220703,22.6738281 19.6787109,22.3144531 C19.2353516,21.9550781 18.8945312,21.4443359 18.65625,20.7822266 C18.4179688,20.1201172 18.2988281,19.3359375 18.2988281,18.4296875 L18.2988281,18.4179688 C18.2988281,17.5117188 18.4179688,16.7285156 18.65625,16.0683594 C18.8945312,15.4082031 19.2353516,14.8984375 19.6787109,14.5390625 C20.1220703,14.1796875 20.65625,14 21.28125,14 C21.90625,14 22.4414062,14.1796875 22.8867188,14.5390625 C23.3320312,14.8984375 23.6748047,15.4082031 23.9150391,16.0683594 C24.1552734,16.7285156 24.2753906,17.5117188 24.2753906,18.4179688 L24.2753906,18.4296875 C24.2753906,19.3359375 24.1552734,20.1201172 23.9150391,20.7822266 C23.6748047,21.4443359 23.3320312,21.9550781 22.8867188,22.3144531 C22.4414062,22.6738281 21.90625,22.8535156 21.28125,22.8535156 Z M21.28125,21.9335938 C21.6875,21.9335938 22.0341797,21.7910156 22.3212891,21.5058594 C22.6083984,21.2207031 22.8291016,20.8164062 22.9833984,20.2929688 C23.1376953,19.7695312 23.2148438,19.1484375 23.2148438,18.4296875 L23.2148438,18.4179688 C23.2148438,17.6992188 23.1376953,17.0791016 22.9833984,16.5576172 C22.8291016,16.0361328 22.6083984,15.6337891 22.3212891,15.3505859 C22.0341797,15.0673828 21.6875,14.9257812 21.28125,14.9257812 C20.8789062,14.9257812 20.5341797,15.0673828 20.2470703,15.3505859 C19.9599609,15.6337891 19.7402344,16.0361328 19.5878906,16.5576172 C19.4355469,17.0791016 19.359375,17.6992188 19.359375,18.4179688 L19.359375,18.4296875 C19.359375,19.1484375 19.4355469,19.7695312 19.5878906,20.2929688 C19.7402344,20.8164062 19.9599609,21.2207031 20.2470703,21.5058594 C20.5341797,21.7910156 20.8789062,21.9335938 21.28125,21.9335938 Z" id="Shape"></path>
                    <polygon id="Path" points="28.078125 24.7636719 25.5351562 24.7636719 25.5351562 23.9667969 27.09375 23.9667969 27.09375 14.6269531 25.5351562 14.6269531 25.5351562 13.8300781 28.078125 13.8300781"></polygon>
                </g>
                <g id="2" transform="translate(123.2227, 259)" fill="#000000">
                    <path d="M0.05859375,8.65429688 L0.05859375,7.92773438 L2.91796875,4.83398438 C3.27734375,4.44335938 3.55859375,4.12011719 3.76171875,3.86425781 C3.96484375,3.60839844 4.10742188,3.37695312 4.18945312,3.16992188 C4.27148438,2.96289062 4.3125,2.73632812 4.3125,2.49023438 L4.3125,2.47851562 C4.3125,2.18164062 4.24804688,1.91601562 4.11914062,1.68164062 C3.99023438,1.44726562 3.80664062,1.26171875 3.56835938,1.125 C3.33007812,0.98828125 3.04492187,0.919921875 2.71289062,0.919921875 C2.37695312,0.919921875 2.08203125,0.989257812 1.828125,1.12792969 C1.57421875,1.26660156 1.37695312,1.45996094 1.23632812,1.70800781 C1.09570312,1.95605469 1.02539062,2.24609375 1.02539062,2.578125 L1.01953125,2.58984375 L0.01171875,2.58398437 L0,2.578125 C0.00390625,2.078125 0.125,1.63378906 0.36328125,1.24511719 C0.6015625,0.856445312 0.9296875,0.551757812 1.34765625,0.331054688 C1.765625,0.110351562 2.24414062,0 2.78320313,0 C3.27539062,0 3.71875,0.102539062 4.11328125,0.307617188 C4.5078125,0.512695312 4.81933594,0.79296875 5.04785156,1.1484375 C5.27636719,1.50390625 5.390625,1.91015625 5.390625,2.3671875 L5.390625,2.37890625 C5.390625,2.69921875 5.33496094,3.0078125 5.22363281,3.3046875 C5.11230469,3.6015625 4.91601562,3.93066406 4.63476562,4.29199219 C4.35351562,4.65332031 3.95703125,5.09765625 3.4453125,5.625 L1.25976562,7.88085938 L1.5234375,7.39453125 L1.5234375,7.88085938 L1.265625,7.70507812 L5.53125,7.70507812 L5.53125,8.65429688 L0.05859375,8.65429688 Z" id="Path"></path>
                </g>
                <g id="2-copy" transform="translate(280.2227, 259)" fill="#000000">
                    <path d="M0.05859375,8.65429688 L0.05859375,7.92773438 L2.91796875,4.83398438 C3.27734375,4.44335938 3.55859375,4.12011719 3.76171875,3.86425781 C3.96484375,3.60839844 4.10742188,3.37695312 4.18945312,3.16992188 C4.27148438,2.96289062 4.3125,2.73632812 4.3125,2.49023438 L4.3125,2.47851562 C4.3125,2.18164062 4.24804688,1.91601562 4.11914062,1.68164062 C3.99023438,1.44726562 3.80664062,1.26171875 3.56835938,1.125 C3.33007812,0.98828125 3.04492187,0.919921875 2.71289062,0.919921875 C2.37695312,0.919921875 2.08203125,0.989257812 1.828125,1.12792969 C1.57421875,1.26660156 1.37695312,1.45996094 1.23632812,1.70800781 C1.09570312,1.95605469 1.02539062,2.24609375 1.02539062,2.578125 L1.01953125,2.58984375 L0.01171875,2.58398437 L0,2.578125 C0.00390625,2.078125 0.125,1.63378906 0.36328125,1.24511719 C0.6015625,0.856445312 0.9296875,0.551757812 1.34765625,0.331054688 C1.765625,0.110351562 2.24414062,0 2.78320313,0 C3.27539062,0 3.71875,0.102539062 4.11328125,0.307617188 C4.5078125,0.512695312 4.81933594,0.79296875 5.04785156,1.1484375 C5.27636719,1.50390625 5.390625,1.91015625 5.390625,2.3671875 L5.390625,2.37890625 C5.390625,2.69921875 5.33496094,3.0078125 5.22363281,3.3046875 C5.11230469,3.6015625 4.91601562,3.93066406 4.63476562,4.29199219 C4.35351562,4.65332031 3.95703125,5.09765625 3.4453125,5.625 L1.25976562,7.88085938 L1.5234375,7.39453125 L1.5234375,7.88085938 L1.265625,7.70507812 L5.53125,7.70507812 L5.53125,8.65429688 L0.05859375,8.65429688 Z" id="Path"></path>
                </g>
                <g id="time" transform="translate(0, 13.7129)" fill="#000000">
                    <path d="M2.84179688,8.98828125 C2.19335938,8.98828125 1.72363281,8.85742188 1.43261719,8.59570312 C1.14160156,8.33398438 0.99609375,7.90234375 0.99609375,7.30078125 L0.99609375,3.46875 L0,3.46875 L0,2.625 L0.99609375,2.625 L0.99609375,0.990234375 L2.05078125,0.990234375 L2.05078125,2.625 L3.43359375,2.625 L3.43359375,3.46875 L2.05078125,3.46875 L2.05078125,7.04296875 C2.05078125,7.4140625 2.12109375,7.68066406 2.26171875,7.84277344 C2.40234375,8.00488281 2.63671875,8.0859375 2.96484375,8.0859375 C3.0546875,8.0859375 3.13183594,8.08398438 3.19628906,8.08007812 C3.26074219,8.07617188 3.33984375,8.0703125 3.43359375,8.0625 L3.43359375,8.9296875 C3.3359375,8.9453125 3.23828125,8.95898438 3.140625,8.97070312 C3.04296875,8.98242188 2.94335938,8.98828125 2.84179688,8.98828125 Z" id="Path"></path>
                    <path d="M4.98046875,8.94140625 L4.98046875,2.625 L6,2.625 L6,8.94140625 L4.98046875,8.94140625 Z M5.49609375,1.40625 C5.3046875,1.40625 5.13964844,1.33691406 5.00097656,1.19824219 C4.86230469,1.05957031 4.79296875,0.89453125 4.79296875,0.703125 C4.79296875,0.5078125 4.86230469,0.341796875 5.00097656,0.205078125 C5.13964844,0.068359375 5.3046875,0 5.49609375,0 C5.69140625,0 5.85742188,0.068359375 5.99414062,0.205078125 C6.13085938,0.341796875 6.19921875,0.5078125 6.19921875,0.703125 C6.19921875,0.89453125 6.13085938,1.05957031 5.99414062,1.19824219 C5.85742188,1.33691406 5.69140625,1.40625 5.49609375,1.40625 Z" id="Shape"></path>
                    <path d="M7.921875,8.94140625 L7.921875,2.625 L8.94140625,2.625 L8.94140625,3.5859375 L9.03515625,3.5859375 C9.17578125,3.24609375 9.39160156,2.98242188 9.68261719,2.79492188 C9.97363281,2.60742188 10.3261719,2.51367188 10.7402344,2.51367188 C11.0253906,2.51367188 11.28125,2.56054688 11.5078125,2.65429688 C11.734375,2.74804688 11.9296875,2.87792969 12.09375,3.04394531 C12.2578125,3.20996094 12.3886719,3.40234375 12.4863281,3.62109375 L12.5800781,3.62109375 C12.6933594,3.3984375 12.8457031,3.20410156 13.0371094,3.03808594 C13.2285156,2.87207031 13.4501953,2.74316406 13.7021484,2.65136719 C13.9541016,2.55957031 14.2246094,2.51367188 14.5136719,2.51367188 C14.9433594,2.51367188 15.3076172,2.59375 15.6064453,2.75390625 C15.9052734,2.9140625 16.1328125,3.14746094 16.2890625,3.45410156 C16.4453125,3.76074219 16.5234375,4.13476562 16.5234375,4.57617188 L16.5234375,8.94140625 L15.5039062,8.94140625 L15.5039062,4.81054688 C15.5039062,4.49804688 15.4560547,4.23925781 15.3603516,4.03417969 C15.2646484,3.82910156 15.1191406,3.67480469 14.9238281,3.57128906 C14.7285156,3.46777344 14.4824219,3.41601562 14.1855469,3.41601562 C13.8925781,3.41601562 13.6367188,3.48242188 13.4179688,3.61523438 C13.1992188,3.74804688 13.0292969,3.92480469 12.9082031,4.14550781 C12.7871094,4.36621094 12.7265625,4.61132812 12.7265625,4.88085938 L12.7265625,8.94140625 L11.7070312,8.94140625 L11.7070312,4.65234375 C11.7070312,4.40234375 11.6533203,4.18457031 11.5458984,3.99902344 C11.4384766,3.81347656 11.2861328,3.66992188 11.0888672,3.56835938 C10.8916016,3.46679688 10.6601562,3.41601562 10.3945312,3.41601562 C10.1210938,3.41601562 9.87402344,3.48828125 9.65332031,3.6328125 C9.43261719,3.77734375 9.25878906,3.97167969 9.13183594,4.21582031 C9.00488281,4.45996094 8.94140625,4.73046875 8.94140625,5.02734375 L8.94140625,8.94140625 L7.921875,8.94140625 Z" id="Path"></path>
                    <path d="M20.9414062,9.05273438 C20.3398438,9.05273438 19.8232422,8.91992188 19.3916016,8.65429688 C18.9599609,8.38867188 18.6279297,8.01269531 18.3955078,7.52636719 C18.1630859,7.04003906 18.046875,6.46679688 18.046875,5.80664062 L18.046875,5.80078125 C18.046875,5.1484375 18.1630859,4.57617188 18.3955078,4.08398438 C18.6279297,3.59179688 18.9570312,3.20703125 19.3828125,2.9296875 C19.8085938,2.65234375 20.3066406,2.51367188 20.8769531,2.51367188 C21.4511719,2.51367188 21.9443359,2.64648438 22.3564453,2.91210938 C22.7685547,3.17773438 23.0849609,3.54785156 23.3056641,4.02246094 C23.5263672,4.49707031 23.6367188,5.04882812 23.6367188,5.67773438 L23.6367188,6.07617188 L18.5742188,6.07617188 L18.5742188,5.26171875 L23.1152344,5.26171875 L22.6113281,6.00585938 L22.6113281,5.6015625 C22.6113281,5.10546875 22.5371094,4.69726562 22.3886719,4.37695312 C22.2402344,4.05664062 22.0351562,3.81738281 21.7734375,3.65917969 C21.5117188,3.50097656 21.2109375,3.421875 20.8710938,3.421875 C20.53125,3.421875 20.2275391,3.50488281 19.9599609,3.67089844 C19.6923828,3.83691406 19.4804688,4.08203125 19.3242188,4.40625 C19.1679688,4.73046875 19.0898438,5.12890625 19.0898438,5.6015625 L19.0898438,6.00585938 C19.0898438,6.45507812 19.1660156,6.83886719 19.3183594,7.15722656 C19.4707031,7.47558594 19.6875,7.71972656 19.96875,7.88964844 C20.25,8.05957031 20.5820312,8.14453125 20.9648438,8.14453125 C21.25,8.14453125 21.4980469,8.10546875 21.7089844,8.02734375 C21.9199219,7.94921875 22.09375,7.84960938 22.2304688,7.72851562 C22.3671875,7.60742188 22.4628906,7.484375 22.5175781,7.359375 L22.5410156,7.30664062 L23.5605469,7.30664062 L23.5488281,7.35351562 C23.4941406,7.56835938 23.3974609,7.77636719 23.2587891,7.97753906 C23.1201172,8.17871094 22.9414062,8.36035156 22.7226562,8.52246094 C22.5039062,8.68457031 22.2451172,8.81347656 21.9462891,8.90917969 C21.6474609,9.00488281 21.3125,9.05273438 20.9414062,9.05273438 Z" id="Path"></path>
                </g>
                <g id="incr()-[1,-0]" transform="translate(88.3281, 50.7129)" fill="#000000">
                    <path d="M0.1875,8.94140625 L0.1875,2.625 L1.20703125,2.625 L1.20703125,8.94140625 L0.1875,8.94140625 Z M0.703125,1.40625 C0.51171875,1.40625 0.346679688,1.33691406 0.208007812,1.19824219 C0.0693359375,1.05957031 0,0.89453125 0,0.703125 C0,0.5078125 0.0693359375,0.341796875 0.208007812,0.205078125 C0.346679688,0.068359375 0.51171875,0 0.703125,0 C0.8984375,0 1.06445312,0.068359375 1.20117188,0.205078125 C1.33789062,0.341796875 1.40625,0.5078125 1.40625,0.703125 C1.40625,0.89453125 1.33789062,1.05957031 1.20117188,1.19824219 C1.06445312,1.33691406 0.8984375,1.40625 0.703125,1.40625 Z" id="Shape"></path>
                    <path d="M3.12890625,8.94140625 L3.12890625,2.625 L4.1484375,2.625 L4.1484375,3.57421875 L4.2421875,3.57421875 C4.40234375,3.23828125 4.6328125,2.97753906 4.93359375,2.79199219 C5.234375,2.60644531 5.6171875,2.51367188 6.08203125,2.51367188 C6.79296875,2.51367188 7.33886719,2.71582031 7.71972656,3.12011719 C8.10058594,3.52441406 8.29101562,4.1015625 8.29101562,4.8515625 L8.29101562,8.94140625 L7.27148438,8.94140625 L7.27148438,5.09765625 C7.27148438,4.52734375 7.15136719,4.10449219 6.91113281,3.82910156 C6.67089844,3.55371094 6.29882812,3.41601562 5.79492188,3.41601562 C5.45898438,3.41601562 5.16796875,3.48828125 4.921875,3.6328125 C4.67578125,3.77734375 4.48535156,3.98242188 4.35058594,4.24804688 C4.21582031,4.51367188 4.1484375,4.83203125 4.1484375,5.203125 L4.1484375,8.94140625 L3.12890625,8.94140625 Z" id="Path"></path>
                    <path d="M12.7148438,9.05273438 C12.125,9.05273438 11.6132812,8.91796875 11.1796875,8.6484375 C10.7460938,8.37890625 10.4101562,7.99804688 10.171875,7.50585938 C9.93359375,7.01367188 9.81445312,6.43359375 9.81445312,5.765625 L9.81445312,5.75390625 C9.81445312,5.09765625 9.93261719,4.52734375 10.1689453,4.04296875 C10.4052734,3.55859375 10.7402344,3.18261719 11.1738281,2.91503906 C11.6074219,2.64746094 12.1191406,2.51367188 12.7089844,2.51367188 C13.2207031,2.51367188 13.6621094,2.60351562 14.0332031,2.78320312 C14.4042969,2.96289062 14.7011719,3.20410156 14.9238281,3.50683594 C15.1464844,3.80957031 15.2890625,4.1484375 15.3515625,4.5234375 L15.3574219,4.55859375 L14.34375,4.55859375 L14.3378906,4.54101562 C14.2597656,4.22851562 14.0820312,3.96289062 13.8046875,3.74414062 C13.5273438,3.52539062 13.1621094,3.41601562 12.7089844,3.41601562 C12.3300781,3.41601562 12.0019531,3.51171875 11.7246094,3.703125 C11.4472656,3.89453125 11.2333984,4.16503906 11.0830078,4.51464844 C10.9326172,4.86425781 10.8574219,5.27734375 10.8574219,5.75390625 L10.8574219,5.765625 C10.8574219,6.25 10.9335938,6.67089844 11.0859375,7.02832031 C11.2382812,7.38574219 11.453125,7.66210938 11.7304688,7.85742188 C12.0078125,8.05273438 12.3339844,8.15039062 12.7089844,8.15039062 C13.1347656,8.15039062 13.4824219,8.05859375 13.7519531,7.875 C14.0214844,7.69140625 14.2148438,7.42382812 14.3320312,7.07226562 L14.34375,7.03710938 L15.3515625,7.03125 L15.3398438,7.09570312 C15.2539062,7.47460938 15.1015625,7.81152344 14.8828125,8.10644531 C14.6640625,8.40136719 14.375,8.6328125 14.015625,8.80078125 C13.65625,8.96875 13.2226562,9.05273438 12.7148438,9.05273438 Z" id="Path"></path>
                    <path d="M16.8457031,8.94140625 L16.8457031,2.625 L17.8652344,2.625 L17.8652344,3.5625 L17.9589844,3.5625 C18.0800781,3.23046875 18.2851562,2.97265625 18.5742188,2.7890625 C18.8632812,2.60546875 19.2207031,2.51367188 19.6464844,2.51367188 C19.7441406,2.51367188 19.8408203,2.51855469 19.9365234,2.52832031 C20.0322266,2.53808594 20.1054688,2.546875 20.15625,2.5546875 L20.15625,3.54492188 C20.0507812,3.52539062 19.9482422,3.51074219 19.8486328,3.50097656 C19.7490234,3.49121094 19.6425781,3.48632812 19.5292969,3.48632812 C19.2050781,3.48632812 18.9179688,3.55078125 18.6679688,3.6796875 C18.4179688,3.80859375 18.2216797,3.98828125 18.0791016,4.21875 C17.9365234,4.44921875 17.8652344,4.71875 17.8652344,5.02734375 L17.8652344,8.94140625 L16.8457031,8.94140625 Z" id="Path"></path>
                    <path d="M23.5488281,11.0507812 C23.1699219,10.546875 22.8574219,10.0117188 22.6113281,9.4453125 C22.3652344,8.87890625 22.1826172,8.27539062 22.0634766,7.63476562 C21.9443359,6.99414062 21.8847656,6.31054688 21.8847656,5.58398438 C21.8847656,4.85742188 21.9433594,4.17480469 22.0605469,3.53613281 C22.1777344,2.89746094 22.359375,2.29394531 22.6054688,1.72558594 C22.8515625,1.15722656 23.1660156,0.62109375 23.5488281,0.1171875 L24.4042969,0.1171875 C24.1933594,0.38671875 23.9970703,0.7265625 23.8154297,1.13671875 C23.6337891,1.546875 23.4765625,1.99902344 23.34375,2.49316406 C23.2109375,2.98730469 23.1074219,3.49902344 23.0332031,4.02832031 C22.9589844,4.55761719 22.921875,5.07617188 22.921875,5.58398438 C22.921875,6.09570312 22.9589844,6.61621094 23.0332031,7.14550781 C23.1074219,7.67480469 23.2109375,8.18652344 23.34375,8.68066406 C23.4765625,9.17480469 23.6337891,9.62597656 23.8154297,10.0341797 C23.9970703,10.4423828 24.1933594,10.78125 24.4042969,11.0507812 L23.5488281,11.0507812 Z" id="Path"></path>
                    <path d="M26.5488281,11.0507812 L25.6933594,11.0507812 C25.9042969,10.78125 26.1005859,10.4423828 26.2822266,10.0341797 C26.4638672,9.62597656 26.6210938,9.17480469 26.7539062,8.68066406 C26.8867188,8.18652344 26.9902344,7.67480469 27.0644531,7.14550781 C27.1386719,6.61621094 27.1757812,6.09570312 27.1757812,5.58398438 C27.1757812,5.07617188 27.1386719,4.55761719 27.0644531,4.02832031 C26.9902344,3.49902344 26.8867188,2.98730469 26.7539062,2.49316406 C26.6210938,1.99902344 26.4638672,1.546875 26.2822266,1.13671875 C26.1005859,0.7265625 25.9042969,0.38671875 25.6933594,0.1171875 L26.5488281,0.1171875 C26.9316406,0.62109375 27.2460938,1.15722656 27.4921875,1.72558594 C27.7382812,2.29394531 27.9199219,2.89746094 28.0371094,3.53613281 C28.1542969,4.17480469 28.2128906,4.85742188 28.2128906,5.58398438 C28.2128906,6.31054688 28.1533203,6.99414062 28.0341797,7.63476562 C27.9150391,8.27539062 27.7333984,8.87890625 27.4892578,9.4453125 C27.2451172,10.0117188 26.9316406,10.546875 26.5488281,11.0507812 Z" id="Path"></path>
                    <polygon id="Path" points="1.97460938 25.0507812 1.97460938 14.1171875 4.51757812 14.1171875 4.51757812 14.9140625 2.95898438 14.9140625 2.95898438 24.2539062 4.51757812 24.2539062 4.51757812 25.0507812"></polygon>
                    <polygon id="Path" points="7.99804688 22.9414062 7.99804688 15.6582031 7.90429688 15.6582031 5.75390625 17.2167969 5.75390625 16.1035156 8.00390625 14.4863281 9.05273438 14.4863281 9.05273438 22.9414062"></polygon>
                    <polygon id="Path" points="11.2441406 25.0917969 11.7539062 21.7578125 12.9199219 21.7578125 12 25.0917969"></polygon>
                    <path d="M21.2636719,23.140625 C20.6386719,23.140625 20.1044922,22.9609375 19.6611328,22.6015625 C19.2177734,22.2421875 18.8769531,21.7314453 18.6386719,21.0693359 C18.4003906,20.4072266 18.28125,19.6230469 18.28125,18.7167969 L18.28125,18.7050781 C18.28125,17.7988281 18.4003906,17.015625 18.6386719,16.3554688 C18.8769531,15.6953125 19.2177734,15.1855469 19.6611328,14.8261719 C20.1044922,14.4667969 20.6386719,14.2871094 21.2636719,14.2871094 C21.8886719,14.2871094 22.4238281,14.4667969 22.8691406,14.8261719 C23.3144531,15.1855469 23.6572266,15.6953125 23.8974609,16.3554688 C24.1376953,17.015625 24.2578125,17.7988281 24.2578125,18.7050781 L24.2578125,18.7167969 C24.2578125,19.6230469 24.1376953,20.4072266 23.8974609,21.0693359 C23.6572266,21.7314453 23.3144531,22.2421875 22.8691406,22.6015625 C22.4238281,22.9609375 21.8886719,23.140625 21.2636719,23.140625 Z M21.2636719,22.2207031 C21.6699219,22.2207031 22.0166016,22.078125 22.3037109,21.7929688 C22.5908203,21.5078125 22.8115234,21.1035156 22.9658203,20.5800781 C23.1201172,20.0566406 23.1972656,19.4355469 23.1972656,18.7167969 L23.1972656,18.7050781 C23.1972656,17.9863281 23.1201172,17.3662109 22.9658203,16.8447266 C22.8115234,16.3232422 22.5908203,15.9208984 22.3037109,15.6376953 C22.0166016,15.3544922 21.6699219,15.2128906 21.2636719,15.2128906 C20.8613281,15.2128906 20.5166016,15.3544922 20.2294922,15.6376953 C19.9423828,15.9208984 19.7226562,16.3232422 19.5703125,16.8447266 C19.4179688,17.3662109 19.3417969,17.9863281 19.3417969,18.7050781 L19.3417969,18.7167969 C19.3417969,19.4355469 19.4179688,20.0566406 19.5703125,20.5800781 C19.7226562,21.1035156 19.9423828,21.5078125 20.2294922,21.7929688 C20.5166016,22.078125 20.8613281,22.2207031 21.2636719,22.2207031 Z" id="Shape"></path>
                    <polygon id="Path" points="28.0605469 25.0507812 25.5175781 25.0507812 25.5175781 24.2539062 27.0761719 24.2539062 27.0761719 14.9140625 25.5175781 14.9140625 25.5175781 14.1171875 28.0605469 14.1171875"></polygon>
                </g>
                <g id="[1,-1]" transform="translate(92.2949, 134.8301)" fill="#000000">
                    <polygon id="Path" points="0 10.9335938 0 0 2.54296875 0 2.54296875 0.796875 0.984375 0.796875 0.984375 10.1367188 2.54296875 10.1367188 2.54296875 10.9335938"></polygon>
                    <polygon id="Path" points="6.0234375 8.82421875 6.0234375 1.54101562 5.9296875 1.54101562 3.77929688 3.09960938 3.77929688 1.98632812 6.02929688 0.369140625 7.078125 0.369140625 7.078125 8.82421875"></polygon>
                    <polygon id="Path" points="9.26953125 10.9746094 9.77929688 7.640625 10.9453125 7.640625 10.0253906 10.9746094"></polygon>
                    <polygon id="Path" points="18.5273438 8.82421875 18.5273438 1.54101562 18.4335938 1.54101562 16.2832031 3.09960938 16.2832031 1.98632812 18.5332031 0.369140625 19.5820312 0.369140625 19.5820312 8.82421875"></polygon>
                    <polygon id="Path" points="24.09375 10.9335938 21.5507812 10.9335938 21.5507812 10.1367188 23.109375 10.1367188 23.109375 0.796875 21.5507812 0.796875 21.5507812 0 24.09375 0"></polygon>
                </g>
                <g id="duplicate-delivery" transform="translate(166.5918, 174.7129)" fill="#FF9500">
                    <path d="M2.6484375,9.05273438 C2.1171875,9.05273438 1.65234375,8.91796875 1.25390625,8.6484375 C0.85546875,8.37890625 0.546875,7.99902344 0.328125,7.50878906 C0.109375,7.01855469 0,6.4453125 0,5.7890625 L0,5.77734375 C0,5.1171875 0.109375,4.54296875 0.328125,4.0546875 C0.546875,3.56640625 0.854492188,3.1875 1.25097656,2.91796875 C1.64746094,2.6484375 2.11328125,2.51367188 2.6484375,2.51367188 C2.9375,2.51367188 3.20996094,2.55957031 3.46582031,2.65136719 C3.72167969,2.74316406 3.94921875,2.87109375 4.1484375,3.03515625 C4.34765625,3.19921875 4.50390625,3.39453125 4.6171875,3.62109375 L4.7109375,3.62109375 L4.7109375,0.1171875 L5.73046875,0.1171875 L5.73046875,8.94140625 L4.7109375,8.94140625 L4.7109375,7.93359375 L4.6171875,7.93359375 C4.48828125,8.16796875 4.32617188,8.36816406 4.13085938,8.53417969 C3.93554688,8.70019531 3.71289062,8.828125 3.46289062,8.91796875 C3.21289062,9.0078125 2.94140625,9.05273438 2.6484375,9.05273438 Z M2.8828125,8.15039062 C3.265625,8.15039062 3.59570312,8.0546875 3.87304688,7.86328125 C4.15039062,7.671875 4.36328125,7.39941406 4.51171875,7.04589844 C4.66015625,6.69238281 4.734375,6.2734375 4.734375,5.7890625 L4.734375,5.77734375 C4.734375,5.2890625 4.66015625,4.86914062 4.51171875,4.51757812 C4.36328125,4.16601562 4.15039062,3.89453125 3.87304688,3.703125 C3.59570312,3.51171875 3.265625,3.41601562 2.8828125,3.41601562 C2.5,3.41601562 2.17089844,3.51074219 1.89550781,3.70019531 C1.62011719,3.88964844 1.40917969,4.16015625 1.26269531,4.51171875 C1.11621094,4.86328125 1.04296875,5.28515625 1.04296875,5.77734375 L1.04296875,5.7890625 C1.04296875,6.27734375 1.11621094,6.69824219 1.26269531,7.05175781 C1.40917969,7.40527344 1.62011719,7.67675781 1.89550781,7.86621094 C2.17089844,8.05566406 2.5,8.15039062 2.8828125,8.15039062 Z" id="Shape"></path>
                    <path d="M9.80273438,9.05273438 C9.32617188,9.05273438 8.92578125,8.96191406 8.6015625,8.78027344 C8.27734375,8.59863281 8.03417969,8.33300781 7.87207031,7.98339844 C7.70996094,7.63378906 7.62890625,7.2109375 7.62890625,6.71484375 L7.62890625,2.625 L8.6484375,2.625 L8.6484375,6.46875 C8.6484375,7.03515625 8.75878906,7.45703125 8.97949219,7.734375 C9.20019531,8.01171875 9.5625,8.15039062 10.0664062,8.15039062 C10.34375,8.15039062 10.5888672,8.109375 10.8017578,8.02734375 C11.0146484,7.9453125 11.1933594,7.82714844 11.3378906,7.67285156 C11.4824219,7.51855469 11.5908203,7.33105469 11.6630859,7.11035156 C11.7353516,6.88964844 11.7714844,6.640625 11.7714844,6.36328125 L11.7714844,2.625 L12.7910156,2.625 L12.7910156,8.94140625 L11.7714844,8.94140625 L11.7714844,7.99804688 L11.6777344,7.99804688 C11.5761719,8.22070312 11.4375,8.41113281 11.2617188,8.56933594 C11.0859375,8.72753906 10.8759766,8.84765625 10.6318359,8.9296875 C10.3876953,9.01171875 10.1113281,9.05273438 9.80273438,9.05273438 Z" id="Path"></path>
                    <path d="M14.6894531,11.0507812 L14.6894531,2.625 L15.7089844,2.625 L15.7089844,3.6328125 L15.8027344,3.6328125 C15.9316406,3.3984375 16.09375,3.19824219 16.2890625,3.03222656 C16.484375,2.86621094 16.7070312,2.73828125 16.9570312,2.6484375 C17.2070312,2.55859375 17.4785156,2.51367188 17.7714844,2.51367188 C18.3066406,2.51367188 18.7724609,2.64941406 19.1689453,2.92089844 C19.5654297,3.19238281 19.8730469,3.57226562 20.0917969,4.06054688 C20.3105469,4.54882812 20.4199219,5.12109375 20.4199219,5.77734375 L20.4199219,5.7890625 C20.4199219,6.44921875 20.3105469,7.0234375 20.0917969,7.51171875 C19.8730469,8 19.5654297,8.37890625 19.1689453,8.6484375 C18.7724609,8.91796875 18.3066406,9.05273438 17.7714844,9.05273438 C17.4824219,9.05273438 17.2099609,9.00683594 16.9541016,8.91503906 C16.6982422,8.82324219 16.4716797,8.6953125 16.2744141,8.53125 C16.0771484,8.3671875 15.9199219,8.171875 15.8027344,7.9453125 L15.7089844,7.9453125 L15.7089844,11.0507812 L14.6894531,11.0507812 Z M17.5371094,8.15039062 C17.9238281,8.15039062 18.2539062,8.05566406 18.5273438,7.86621094 C18.8007812,7.67675781 19.0107422,7.40527344 19.1572266,7.05175781 C19.3037109,6.69824219 19.3769531,6.27734375 19.3769531,5.7890625 L19.3769531,5.77734375 C19.3769531,5.28515625 19.3037109,4.86328125 19.1572266,4.51171875 C19.0107422,4.16015625 18.8007812,3.88964844 18.5273438,3.70019531 C18.2539062,3.51074219 17.9238281,3.41601562 17.5371094,3.41601562 C17.1542969,3.41601562 16.8242188,3.51171875 16.546875,3.703125 C16.2695312,3.89453125 16.0566406,4.16601562 15.9082031,4.51757812 C15.7597656,4.86914062 15.6855469,5.2890625 15.6855469,5.77734375 L15.6855469,5.7890625 C15.6855469,6.2734375 15.7597656,6.69238281 15.9082031,7.04589844 C16.0566406,7.39941406 16.2695312,7.671875 16.546875,7.86328125 C16.8242188,8.0546875 17.1542969,8.15039062 17.5371094,8.15039062 Z" id="Shape"></path>
                    <polygon id="Path" points="22.0722656 8.94140625 22.0722656 0.1171875 23.0917969 0.1171875 23.0917969 8.94140625"></polygon>
                    <path d="M25.0722656,8.94140625 L25.0722656,2.625 L26.0917969,2.625 L26.0917969,8.94140625 L25.0722656,8.94140625 Z M25.5878906,1.40625 C25.3964844,1.40625 25.2314453,1.33691406 25.0927734,1.19824219 C24.9541016,1.05957031 24.8847656,0.89453125 24.8847656,0.703125 C24.8847656,0.5078125 24.9541016,0.341796875 25.0927734,0.205078125 C25.2314453,0.068359375 25.3964844,0 25.5878906,0 C25.7832031,0 25.9492188,0.068359375 26.0859375,0.205078125 C26.2226562,0.341796875 26.2910156,0.5078125 26.2910156,0.703125 C26.2910156,0.89453125 26.2226562,1.05957031 26.0859375,1.19824219 C25.9492188,1.33691406 25.7832031,1.40625 25.5878906,1.40625 Z" id="Shape"></path>
                    <path d="M30.5976562,9.05273438 C30.0078125,9.05273438 29.4960938,8.91796875 29.0625,8.6484375 C28.6289062,8.37890625 28.2929688,7.99804688 28.0546875,7.50585938 C27.8164062,7.01367188 27.6972656,6.43359375 27.6972656,5.765625 L27.6972656,5.75390625 C27.6972656,5.09765625 27.8154297,4.52734375 28.0517578,4.04296875 C28.2880859,3.55859375 28.6230469,3.18261719 29.0566406,2.91503906 C29.4902344,2.64746094 30.0019531,2.51367188 30.5917969,2.51367188 C31.1035156,2.51367188 31.5449219,2.60351562 31.9160156,2.78320312 C32.2871094,2.96289062 32.5839844,3.20410156 32.8066406,3.50683594 C33.0292969,3.80957031 33.171875,4.1484375 33.234375,4.5234375 L33.2402344,4.55859375 L32.2265625,4.55859375 L32.2207031,4.54101562 C32.1425781,4.22851562 31.9648438,3.96289062 31.6875,3.74414062 C31.4101562,3.52539062 31.0449219,3.41601562 30.5917969,3.41601562 C30.2128906,3.41601562 29.8847656,3.51171875 29.6074219,3.703125 C29.3300781,3.89453125 29.1162109,4.16503906 28.9658203,4.51464844 C28.8154297,4.86425781 28.7402344,5.27734375 28.7402344,5.75390625 L28.7402344,5.765625 C28.7402344,6.25 28.8164062,6.67089844 28.96875,7.02832031 C29.1210938,7.38574219 29.3359375,7.66210938 29.6132812,7.85742188 C29.890625,8.05273438 30.2167969,8.15039062 30.5917969,8.15039062 C31.0175781,8.15039062 31.3652344,8.05859375 31.6347656,7.875 C31.9042969,7.69140625 32.0976562,7.42382812 32.2148438,7.07226562 L32.2265625,7.03710938 L33.234375,7.03125 L33.2226562,7.09570312 C33.1367188,7.47460938 32.984375,7.81152344 32.765625,8.10644531 C32.546875,8.40136719 32.2578125,8.6328125 31.8984375,8.80078125 C31.5390625,8.96875 31.1054688,9.05273438 30.5976562,9.05273438 Z" id="Path"></path>
                    <path d="M36.4628906,9.05273438 C36.0644531,9.05273438 35.7060547,8.9765625 35.3876953,8.82421875 C35.0693359,8.671875 34.8173828,8.45507812 34.6318359,8.17382812 C34.4462891,7.89257812 34.3535156,7.56054688 34.3535156,7.17773438 L34.3535156,7.16601562 C34.3535156,6.79101562 34.4433594,6.46972656 34.6230469,6.20214844 C34.8027344,5.93457031 35.0644531,5.72460938 35.4082031,5.57226562 C35.7519531,5.41992188 36.1679688,5.33007812 36.65625,5.30273438 L38.9765625,5.16210938 L38.9765625,5.9765625 L36.7792969,6.1171875 C36.2988281,6.14453125 35.9482422,6.24414062 35.7275391,6.41601562 C35.5068359,6.58789062 35.3964844,6.83007812 35.3964844,7.14257812 L35.3964844,7.15429688 C35.3964844,7.47460938 35.5175781,7.72363281 35.7597656,7.90136719 C36.0019531,8.07910156 36.3066406,8.16796875 36.6738281,8.16796875 C37.0214844,8.16796875 37.3300781,8.09863281 37.5996094,7.95996094 C37.8691406,7.82128906 38.0810547,7.6328125 38.2353516,7.39453125 C38.3896484,7.15625 38.4667969,6.88671875 38.4667969,6.5859375 L38.4667969,4.6171875 C38.4667969,4.2265625 38.3486328,3.92871094 38.1123047,3.72363281 C37.8759766,3.51855469 37.5214844,3.41601562 37.0488281,3.41601562 C36.6699219,3.41601562 36.359375,3.48339844 36.1171875,3.61816406 C35.875,3.75292969 35.7128906,3.94335938 35.6308594,4.18945312 L35.625,4.20703125 L34.6054688,4.20703125 L34.6113281,4.171875 C34.6660156,3.83984375 34.8037109,3.54980469 35.0244141,3.30175781 C35.2451172,3.05371094 35.53125,2.86035156 35.8828125,2.72167969 C36.234375,2.58300781 36.6347656,2.51367188 37.0839844,2.51367188 C37.5996094,2.51367188 38.0361328,2.59765625 38.3935547,2.765625 C38.7509766,2.93359375 39.0224609,3.17480469 39.2080078,3.48925781 C39.3935547,3.80371094 39.4863281,4.1796875 39.4863281,4.6171875 L39.4863281,8.94140625 L38.4667969,8.94140625 L38.4667969,8.00976562 L38.3730469,8.00976562 C38.2402344,8.23242188 38.0791016,8.421875 37.8896484,8.578125 C37.7001953,8.734375 37.4863281,8.85253906 37.2480469,8.93261719 C37.0097656,9.01269531 36.7480469,9.05273438 36.4628906,9.05273438 Z" id="Path"></path>
                    <path d="M43.59375,8.98828125 C42.9453125,8.98828125 42.4755859,8.85742188 42.1845703,8.59570312 C41.8935547,8.33398438 41.7480469,7.90234375 41.7480469,7.30078125 L41.7480469,3.46875 L40.7519531,3.46875 L40.7519531,2.625 L41.7480469,2.625 L41.7480469,0.990234375 L42.8027344,0.990234375 L42.8027344,2.625 L44.1855469,2.625 L44.1855469,3.46875 L42.8027344,3.46875 L42.8027344,7.04296875 C42.8027344,7.4140625 42.8730469,7.68066406 43.0136719,7.84277344 C43.1542969,8.00488281 43.3886719,8.0859375 43.7167969,8.0859375 C43.8066406,8.0859375 43.8837891,8.08398438 43.9482422,8.08007812 C44.0126953,8.07617188 44.0917969,8.0703125 44.1855469,8.0625 L44.1855469,8.9296875 C44.0878906,8.9453125 43.9902344,8.95898438 43.8925781,8.97070312 C43.7949219,8.98242188 43.6953125,8.98828125 43.59375,8.98828125 Z" id="Path"></path>
                    <path d="M48.2871094,9.05273438 C47.6855469,9.05273438 47.1689453,8.91992188 46.7373047,8.65429688 C46.3056641,8.38867188 45.9736328,8.01269531 45.7412109,7.52636719 C45.5087891,7.04003906 45.3925781,6.46679688 45.3925781,5.80664062 L45.3925781,5.80078125 C45.3925781,5.1484375 45.5087891,4.57617188 45.7412109,4.08398438 C45.9736328,3.59179688 46.3027344,3.20703125 46.7285156,2.9296875 C47.1542969,2.65234375 47.6523438,2.51367188 48.2226562,2.51367188 C48.796875,2.51367188 49.2900391,2.64648438 49.7021484,2.91210938 C50.1142578,3.17773438 50.4306641,3.54785156 50.6513672,4.02246094 C50.8720703,4.49707031 50.9824219,5.04882812 50.9824219,5.67773438 L50.9824219,6.07617188 L45.9199219,6.07617188 L45.9199219,5.26171875 L50.4609375,5.26171875 L49.9570312,6.00585938 L49.9570312,5.6015625 C49.9570312,5.10546875 49.8828125,4.69726562 49.734375,4.37695312 C49.5859375,4.05664062 49.3808594,3.81738281 49.1191406,3.65917969 C48.8574219,3.50097656 48.5566406,3.421875 48.2167969,3.421875 C47.8769531,3.421875 47.5732422,3.50488281 47.3056641,3.67089844 C47.0380859,3.83691406 46.8261719,4.08203125 46.6699219,4.40625 C46.5136719,4.73046875 46.4355469,5.12890625 46.4355469,5.6015625 L46.4355469,6.00585938 C46.4355469,6.45507812 46.5117188,6.83886719 46.6640625,7.15722656 C46.8164062,7.47558594 47.0332031,7.71972656 47.3144531,7.88964844 C47.5957031,8.05957031 47.9277344,8.14453125 48.3105469,8.14453125 C48.5957031,8.14453125 48.84375,8.10546875 49.0546875,8.02734375 C49.265625,7.94921875 49.4394531,7.84960938 49.5761719,7.72851562 C49.7128906,7.60742188 49.8085938,7.484375 49.8632812,7.359375 L49.8867188,7.30664062 L50.90625,7.30664062 L50.8945312,7.35351562 C50.8398438,7.56835938 50.7431641,7.77636719 50.6044922,7.97753906 C50.4658203,8.17871094 50.2871094,8.36035156 50.0683594,8.52246094 C49.8496094,8.68457031 49.5908203,8.81347656 49.2919922,8.90917969 C48.9931641,9.00488281 48.6582031,9.05273438 48.2871094,9.05273438 Z" id="Path"></path>
                    <path d="M2.6484375,23.0527344 C2.1171875,23.0527344 1.65234375,22.9179688 1.25390625,22.6484375 C0.85546875,22.3789062 0.546875,21.9990234 0.328125,21.5087891 C0.109375,21.0185547 0,20.4453125 0,19.7890625 L0,19.7773438 C0,19.1171875 0.109375,18.5429688 0.328125,18.0546875 C0.546875,17.5664062 0.854492188,17.1875 1.25097656,16.9179688 C1.64746094,16.6484375 2.11328125,16.5136719 2.6484375,16.5136719 C2.9375,16.5136719 3.20996094,16.5595703 3.46582031,16.6513672 C3.72167969,16.7431641 3.94921875,16.8710938 4.1484375,17.0351562 C4.34765625,17.1992188 4.50390625,17.3945312 4.6171875,17.6210938 L4.7109375,17.6210938 L4.7109375,14.1171875 L5.73046875,14.1171875 L5.73046875,22.9414062 L4.7109375,22.9414062 L4.7109375,21.9335938 L4.6171875,21.9335938 C4.48828125,22.1679688 4.32617188,22.3681641 4.13085938,22.5341797 C3.93554688,22.7001953 3.71289062,22.828125 3.46289062,22.9179688 C3.21289062,23.0078125 2.94140625,23.0527344 2.6484375,23.0527344 Z M2.8828125,22.1503906 C3.265625,22.1503906 3.59570312,22.0546875 3.87304688,21.8632812 C4.15039062,21.671875 4.36328125,21.3994141 4.51171875,21.0458984 C4.66015625,20.6923828 4.734375,20.2734375 4.734375,19.7890625 L4.734375,19.7773438 C4.734375,19.2890625 4.66015625,18.8691406 4.51171875,18.5175781 C4.36328125,18.1660156 4.15039062,17.8945312 3.87304688,17.703125 C3.59570312,17.5117188 3.265625,17.4160156 2.8828125,17.4160156 C2.5,17.4160156 2.17089844,17.5107422 1.89550781,17.7001953 C1.62011719,17.8896484 1.40917969,18.1601562 1.26269531,18.5117188 C1.11621094,18.8632812 1.04296875,19.2851562 1.04296875,19.7773438 L1.04296875,19.7890625 C1.04296875,20.2773438 1.11621094,20.6982422 1.26269531,21.0517578 C1.40917969,21.4052734 1.62011719,21.6767578 1.89550781,21.8662109 C2.17089844,22.0556641 2.5,22.1503906 2.8828125,22.1503906 Z" id="Shape"></path>
                    <path d="M10.265625,23.0527344 C9.6640625,23.0527344 9.14746094,22.9199219 8.71582031,22.6542969 C8.28417969,22.3886719 7.95214844,22.0126953 7.71972656,21.5263672 C7.48730469,21.0400391 7.37109375,20.4667969 7.37109375,19.8066406 L7.37109375,19.8007812 C7.37109375,19.1484375 7.48730469,18.5761719 7.71972656,18.0839844 C7.95214844,17.5917969 8.28125,17.2070312 8.70703125,16.9296875 C9.1328125,16.6523438 9.63085938,16.5136719 10.2011719,16.5136719 C10.7753906,16.5136719 11.2685547,16.6464844 11.6806641,16.9121094 C12.0927734,17.1777344 12.4091797,17.5478516 12.6298828,18.0224609 C12.8505859,18.4970703 12.9609375,19.0488281 12.9609375,19.6777344 L12.9609375,20.0761719 L7.8984375,20.0761719 L7.8984375,19.2617188 L12.4394531,19.2617188 L11.9355469,20.0058594 L11.9355469,19.6015625 C11.9355469,19.1054688 11.8613281,18.6972656 11.7128906,18.3769531 C11.5644531,18.0566406 11.359375,17.8173828 11.0976562,17.6591797 C10.8359375,17.5009766 10.5351562,17.421875 10.1953125,17.421875 C9.85546875,17.421875 9.55175781,17.5048828 9.28417969,17.6708984 C9.01660156,17.8369141 8.8046875,18.0820312 8.6484375,18.40625 C8.4921875,18.7304688 8.4140625,19.1289062 8.4140625,19.6015625 L8.4140625,20.0058594 C8.4140625,20.4550781 8.49023438,20.8388672 8.64257812,21.1572266 C8.79492188,21.4755859 9.01171875,21.7197266 9.29296875,21.8896484 C9.57421875,22.0595703 9.90625,22.1445312 10.2890625,22.1445312 C10.5742188,22.1445312 10.8222656,22.1054688 11.0332031,22.0273438 C11.2441406,21.9492188 11.4179688,21.8496094 11.5546875,21.7285156 C11.6914062,21.6074219 11.7871094,21.484375 11.8417969,21.359375 L11.8652344,21.3066406 L12.8847656,21.3066406 L12.8730469,21.3535156 C12.8183594,21.5683594 12.7216797,21.7763672 12.5830078,21.9775391 C12.4443359,22.1787109 12.265625,22.3603516 12.046875,22.5224609 C11.828125,22.6845703 11.5693359,22.8134766 11.2705078,22.9091797 C10.9716797,23.0048828 10.6367188,23.0527344 10.265625,23.0527344 Z" id="Path"></path>
                    <polygon id="Path" points="14.6015625 22.9414062 14.6015625 14.1171875 15.6210938 14.1171875 15.6210938 22.9414062"></polygon>
                    <path d="M17.6015625,22.9414062 L17.6015625,16.625 L18.6210938,16.625 L18.6210938,22.9414062 L17.6015625,22.9414062 Z M18.1171875,15.40625 C17.9257812,15.40625 17.7607422,15.3369141 17.6220703,15.1982422 C17.4833984,15.0595703 17.4140625,14.8945312 17.4140625,14.703125 C17.4140625,14.5078125 17.4833984,14.3417969 17.6220703,14.2050781 C17.7607422,14.0683594 17.9257812,14 18.1171875,14 C18.3125,14 18.4785156,14.0683594 18.6152344,14.2050781 C18.7519531,14.3417969 18.8203125,14.5078125 18.8203125,14.703125 C18.8203125,14.8945312 18.7519531,15.0595703 18.6152344,15.1982422 C18.4785156,15.3369141 18.3125,15.40625 18.1171875,15.40625 Z" id="Shape"></path>
                    <polygon id="Path" points="22.3300781 22.9414062 19.9921875 16.625 21.0703125 16.625 22.7988281 21.828125 22.8925781 21.828125 24.6210938 16.625 25.6992188 16.625 23.3613281 22.9414062"></polygon>
                    <path d="M29.625,23.0527344 C29.0234375,23.0527344 28.5068359,22.9199219 28.0751953,22.6542969 C27.6435547,22.3886719 27.3115234,22.0126953 27.0791016,21.5263672 C26.8466797,21.0400391 26.7304688,20.4667969 26.7304688,19.8066406 L26.7304688,19.8007812 C26.7304688,19.1484375 26.8466797,18.5761719 27.0791016,18.0839844 C27.3115234,17.5917969 27.640625,17.2070312 28.0664062,16.9296875 C28.4921875,16.6523438 28.9902344,16.5136719 29.5605469,16.5136719 C30.1347656,16.5136719 30.6279297,16.6464844 31.0400391,16.9121094 C31.4521484,17.1777344 31.7685547,17.5478516 31.9892578,18.0224609 C32.2099609,18.4970703 32.3203125,19.0488281 32.3203125,19.6777344 L32.3203125,20.0761719 L27.2578125,20.0761719 L27.2578125,19.2617188 L31.7988281,19.2617188 L31.2949219,20.0058594 L31.2949219,19.6015625 C31.2949219,19.1054688 31.2207031,18.6972656 31.0722656,18.3769531 C30.9238281,18.0566406 30.71875,17.8173828 30.4570312,17.6591797 C30.1953125,17.5009766 29.8945312,17.421875 29.5546875,17.421875 C29.2148438,17.421875 28.9111328,17.5048828 28.6435547,17.6708984 C28.3759766,17.8369141 28.1640625,18.0820312 28.0078125,18.40625 C27.8515625,18.7304688 27.7734375,19.1289062 27.7734375,19.6015625 L27.7734375,20.0058594 C27.7734375,20.4550781 27.8496094,20.8388672 28.0019531,21.1572266 C28.1542969,21.4755859 28.3710938,21.7197266 28.6523438,21.8896484 C28.9335938,22.0595703 29.265625,22.1445312 29.6484375,22.1445312 C29.9335938,22.1445312 30.1816406,22.1054688 30.3925781,22.0273438 C30.6035156,21.9492188 30.7773438,21.8496094 30.9140625,21.7285156 C31.0507812,21.6074219 31.1464844,21.484375 31.2011719,21.359375 L31.2246094,21.3066406 L32.2441406,21.3066406 L32.2324219,21.3535156 C32.1777344,21.5683594 32.0810547,21.7763672 31.9423828,21.9775391 C31.8037109,22.1787109 31.625,22.3603516 31.40625,22.5224609 C31.1875,22.6845703 30.9287109,22.8134766 30.6298828,22.9091797 C30.3310547,23.0048828 29.9960938,23.0527344 29.625,23.0527344 Z" id="Path"></path>
                    <path d="M33.9023438,22.9414062 L33.9023438,16.625 L34.921875,16.625 L34.921875,17.5625 L35.015625,17.5625 C35.1367188,17.2304688 35.3417969,16.9726562 35.6308594,16.7890625 C35.9199219,16.6054688 36.2773438,16.5136719 36.703125,16.5136719 C36.8007812,16.5136719 36.8974609,16.5185547 36.9931641,16.5283203 C37.0888672,16.5380859 37.1621094,16.546875 37.2128906,16.5546875 L37.2128906,17.5449219 C37.1074219,17.5253906 37.0048828,17.5107422 36.9052734,17.5009766 C36.8056641,17.4912109 36.6992188,17.4863281 36.5859375,17.4863281 C36.2617188,17.4863281 35.9746094,17.5507812 35.7246094,17.6796875 C35.4746094,17.8085938 35.2783203,17.9882812 35.1357422,18.21875 C34.9931641,18.4492188 34.921875,18.71875 34.921875,19.0273438 L34.921875,22.9414062 L33.9023438,22.9414062 Z" id="Path"></path>
                    <path d="M39.0117188,25.15625 C38.9453125,25.15625 38.8710938,25.1533203 38.7890625,25.1474609 C38.7070312,25.1416016 38.6308594,25.1328125 38.5605469,25.1210938 L38.5605469,24.2832031 C38.6230469,24.2949219 38.6914062,24.3027344 38.765625,24.3066406 C38.8398438,24.3105469 38.9121094,24.3125 38.9824219,24.3125 C39.2714844,24.3125 39.5087891,24.2382812 39.6943359,24.0898438 C39.8798828,23.9414062 40.0292969,23.6855469 40.1425781,23.3222656 L40.2597656,22.9472656 L37.921875,16.625 L39.0117188,16.625 L40.9570312,22.4609375 L40.5527344,21.8222656 L41.0332031,21.8222656 L40.6289062,22.4609375 L42.5683594,16.625 L43.640625,16.625 L41.1738281,23.328125 C41.0019531,23.8007812 40.8203125,24.1699219 40.6289062,24.4355469 C40.4375,24.7011719 40.2138672,24.8876953 39.9580078,24.9951172 C39.7021484,25.1025391 39.3867188,25.15625 39.0117188,25.15625 Z" id="Path"></path>
                </g>
                <g id="[1,-1]-copy" transform="translate(92.2949, 182.8301)" fill="#000000">
                    <polygon id="Path" points="0 10.9335938 0 0 2.54296875 0 2.54296875 0.796875 0.984375 0.796875 0.984375 10.1367188 2.54296875 10.1367188 2.54296875 10.9335938"></polygon>
                    <polygon id="Path" points="6.0234375 8.82421875 6.0234375 1.54101562 5.9296875 1.54101562 3.77929688 3.09960938 3.77929688 1.98632812 6.02929688 0.369140625 7.078125 0.369140625 7.078125 8.82421875"></polygon>
                    <polygon id="Path" points="9.26953125 10.9746094 9.77929688 7.640625 10.9453125 7.640625 10.0253906 10.9746094"></polygon>
                    <polygon id="Path" points="18.5273438 8.82421875 18.5273438 1.54101562 18.4335938 1.54101562 16.2832031 3.09960938 16.2832031 1.98632812 18.5332031 0.369140625 19.5820312 0.369140625 19.5820312 8.82421875"></polygon>
                    <polygon id="Path" points="24.09375 10.9335938 21.5507812 10.9335938 21.5507812 10.1367188 23.109375 10.1367188 23.109375 0.796875 21.5507812 0.796875 21.5507812 0 24.09375 0"></polygon>
                </g>
                <g id="incr()-[0,-1]" transform="translate(291.7441, 50.7129)" fill="#000000">
                    <path d="M0.1875,8.94140625 L0.1875,2.625 L1.20703125,2.625 L1.20703125,8.94140625 L0.1875,8.94140625 Z M0.703125,1.40625 C0.51171875,1.40625 0.346679688,1.33691406 0.208007812,1.19824219 C0.0693359375,1.05957031 0,0.89453125 0,0.703125 C0,0.5078125 0.0693359375,0.341796875 0.208007812,0.205078125 C0.346679688,0.068359375 0.51171875,0 0.703125,0 C0.8984375,0 1.06445312,0.068359375 1.20117188,0.205078125 C1.33789062,0.341796875 1.40625,0.5078125 1.40625,0.703125 C1.40625,0.89453125 1.33789062,1.05957031 1.20117188,1.19824219 C1.06445312,1.33691406 0.8984375,1.40625 0.703125,1.40625 Z" id="Shape"></path>
                    <path d="M3.12890625,8.94140625 L3.12890625,2.625 L4.1484375,2.625 L4.1484375,3.57421875 L4.2421875,3.57421875 C4.40234375,3.23828125 4.6328125,2.97753906 4.93359375,2.79199219 C5.234375,2.60644531 5.6171875,2.51367188 6.08203125,2.51367188 C6.79296875,2.51367188 7.33886719,2.71582031 7.71972656,3.12011719 C8.10058594,3.52441406 8.29101562,4.1015625 8.29101562,4.8515625 L8.29101562,8.94140625 L7.27148438,8.94140625 L7.27148438,5.09765625 C7.27148438,4.52734375 7.15136719,4.10449219 6.91113281,3.82910156 C6.67089844,3.55371094 6.29882812,3.41601562 5.79492188,3.41601562 C5.45898438,3.41601562 5.16796875,3.48828125 4.921875,3.6328125 C4.67578125,3.77734375 4.48535156,3.98242188 4.35058594,4.24804688 C4.21582031,4.51367188 4.1484375,4.83203125 4.1484375,5.203125 L4.1484375,8.94140625 L3.12890625,8.94140625 Z" id="Path"></path>
                    <path d="M12.7148438,9.05273438 C12.125,9.05273438 11.6132812,8.91796875 11.1796875,8.6484375 C10.7460938,8.37890625 10.4101562,7.99804688 10.171875,7.50585938 C9.93359375,7.01367188 9.81445312,6.43359375 9.81445312,5.765625 L9.81445312,5.75390625 C9.81445312,5.09765625 9.93261719,4.52734375 10.1689453,4.04296875 C10.4052734,3.55859375 10.7402344,3.18261719 11.1738281,2.91503906 C11.6074219,2.64746094 12.1191406,2.51367188 12.7089844,2.51367188 C13.2207031,2.51367188 13.6621094,2.60351562 14.0332031,2.78320312 C14.4042969,2.96289062 14.7011719,3.20410156 14.9238281,3.50683594 C15.1464844,3.80957031 15.2890625,4.1484375 15.3515625,4.5234375 L15.3574219,4.55859375 L14.34375,4.55859375 L14.3378906,4.54101562 C14.2597656,4.22851562 14.0820312,3.96289062 13.8046875,3.74414062 C13.5273438,3.52539062 13.1621094,3.41601562 12.7089844,3.41601562 C12.3300781,3.41601562 12.0019531,3.51171875 11.7246094,3.703125 C11.4472656,3.89453125 11.2333984,4.16503906 11.0830078,4.51464844 C10.9326172,4.86425781 10.8574219,5.27734375 10.8574219,5.75390625 L10.8574219,5.765625 C10.8574219,6.25 10.9335938,6.67089844 11.0859375,7.02832031 C11.2382812,7.38574219 11.453125,7.66210938 11.7304688,7.85742188 C12.0078125,8.05273438 12.3339844,8.15039062 12.7089844,8.15039062 C13.1347656,8.15039062 13.4824219,8.05859375 13.7519531,7.875 C14.0214844,7.69140625 14.2148438,7.42382812 14.3320312,7.07226562 L14.34375,7.03710938 L15.3515625,7.03125 L15.3398438,7.09570312 C15.2539062,7.47460938 15.1015625,7.81152344 14.8828125,8.10644531 C14.6640625,8.40136719 14.375,8.6328125 14.015625,8.80078125 C13.65625,8.96875 13.2226562,9.05273438 12.7148438,9.05273438 Z" id="Path"></path>
                    <path d="M16.8457031,8.94140625 L16.8457031,2.625 L17.8652344,2.625 L17.8652344,3.5625 L17.9589844,3.5625 C18.0800781,3.23046875 18.2851562,2.97265625 18.5742188,2.7890625 C18.8632812,2.60546875 19.2207031,2.51367188 19.6464844,2.51367188 C19.7441406,2.51367188 19.8408203,2.51855469 19.9365234,2.52832031 C20.0322266,2.53808594 20.1054688,2.546875 20.15625,2.5546875 L20.15625,3.54492188 C20.0507812,3.52539062 19.9482422,3.51074219 19.8486328,3.50097656 C19.7490234,3.49121094 19.6425781,3.48632812 19.5292969,3.48632812 C19.2050781,3.48632812 18.9179688,3.55078125 18.6679688,3.6796875 C18.4179688,3.80859375 18.2216797,3.98828125 18.0791016,4.21875 C17.9365234,4.44921875 17.8652344,4.71875 17.8652344,5.02734375 L17.8652344,8.94140625 L16.8457031,8.94140625 Z" id="Path"></path>
                    <path d="M23.5488281,11.0507812 C23.1699219,10.546875 22.8574219,10.0117188 22.6113281,9.4453125 C22.3652344,8.87890625 22.1826172,8.27539062 22.0634766,7.63476562 C21.9443359,6.99414062 21.8847656,6.31054688 21.8847656,5.58398438 C21.8847656,4.85742188 21.9433594,4.17480469 22.0605469,3.53613281 C22.1777344,2.89746094 22.359375,2.29394531 22.6054688,1.72558594 C22.8515625,1.15722656 23.1660156,0.62109375 23.5488281,0.1171875 L24.4042969,0.1171875 C24.1933594,0.38671875 23.9970703,0.7265625 23.8154297,1.13671875 C23.6337891,1.546875 23.4765625,1.99902344 23.34375,2.49316406 C23.2109375,2.98730469 23.1074219,3.49902344 23.0332031,4.02832031 C22.9589844,4.55761719 22.921875,5.07617188 22.921875,5.58398438 C22.921875,6.09570312 22.9589844,6.61621094 23.0332031,7.14550781 C23.1074219,7.67480469 23.2109375,8.18652344 23.34375,8.68066406 C23.4765625,9.17480469 23.6337891,9.62597656 23.8154297,10.0341797 C23.9970703,10.4423828 24.1933594,10.78125 24.4042969,11.0507812 L23.5488281,11.0507812 Z" id="Path"></path>
                    <path d="M26.5488281,11.0507812 L25.6933594,11.0507812 C25.9042969,10.78125 26.1005859,10.4423828 26.2822266,10.0341797 C26.4638672,9.62597656 26.6210938,9.17480469 26.7539062,8.68066406 C26.8867188,8.18652344 26.9902344,7.67480469 27.0644531,7.14550781 C27.1386719,6.61621094 27.1757812,6.09570312 27.1757812,5.58398438 C27.1757812,5.07617188 27.1386719,4.55761719 27.0644531,4.02832031 C26.9902344,3.49902344 26.8867188,2.98730469 26.7539062,2.49316406 C26.6210938,1.99902344 26.4638672,1.546875 26.2822266,1.13671875 C26.1005859,0.7265625 25.9042969,0.38671875 25.6933594,0.1171875 L26.5488281,0.1171875 C26.9316406,0.62109375 27.2460938,1.15722656 27.4921875,1.72558594 C27.7382812,2.29394531 27.9199219,2.89746094 28.0371094,3.53613281 C28.1542969,4.17480469 28.2128906,4.85742188 28.2128906,5.58398438 C28.2128906,6.31054688 28.1533203,6.99414062 28.0341797,7.63476562 C27.9150391,8.27539062 27.7333984,8.87890625 27.4892578,9.4453125 C27.2451172,10.0117188 26.9316406,10.546875 26.5488281,11.0507812 Z" id="Path"></path>
                    <polygon id="Path" points="0.78515625 25.0507812 0.78515625 14.1171875 3.328125 14.1171875 3.328125 14.9140625 1.76953125 14.9140625 1.76953125 24.2539062 3.328125 24.2539062 3.328125 25.0507812"></polygon>
                    <path d="M7.5703125,23.140625 C6.9453125,23.140625 6.41113281,22.9609375 5.96777344,22.6015625 C5.52441406,22.2421875 5.18359375,21.7314453 4.9453125,21.0693359 C4.70703125,20.4072266 4.58789062,19.6230469 4.58789062,18.7167969 L4.58789062,18.7050781 C4.58789062,17.7988281 4.70703125,17.015625 4.9453125,16.3554688 C5.18359375,15.6953125 5.52441406,15.1855469 5.96777344,14.8261719 C6.41113281,14.4667969 6.9453125,14.2871094 7.5703125,14.2871094 C8.1953125,14.2871094 8.73046875,14.4667969 9.17578125,14.8261719 C9.62109375,15.1855469 9.96386719,15.6953125 10.2041016,16.3554688 C10.4443359,17.015625 10.5644531,17.7988281 10.5644531,18.7050781 L10.5644531,18.7167969 C10.5644531,19.6230469 10.4443359,20.4072266 10.2041016,21.0693359 C9.96386719,21.7314453 9.62109375,22.2421875 9.17578125,22.6015625 C8.73046875,22.9609375 8.1953125,23.140625 7.5703125,23.140625 Z M7.5703125,22.2207031 C7.9765625,22.2207031 8.32324219,22.078125 8.61035156,21.7929688 C8.89746094,21.5078125 9.11816406,21.1035156 9.27246094,20.5800781 C9.42675781,20.0566406 9.50390625,19.4355469 9.50390625,18.7167969 L9.50390625,18.7050781 C9.50390625,17.9863281 9.42675781,17.3662109 9.27246094,16.8447266 C9.11816406,16.3232422 8.89746094,15.9208984 8.61035156,15.6376953 C8.32324219,15.3544922 7.9765625,15.2128906 7.5703125,15.2128906 C7.16796875,15.2128906 6.82324219,15.3544922 6.53613281,15.6376953 C6.24902344,15.9208984 6.02929688,16.3232422 5.87695312,16.8447266 C5.72460938,17.3662109 5.6484375,17.9863281 5.6484375,18.7050781 L5.6484375,18.7167969 C5.6484375,19.4355469 5.72460938,20.0566406 5.87695312,20.5800781 C6.02929688,21.1035156 6.24902344,21.5078125 6.53613281,21.7929688 C6.82324219,22.078125 7.16796875,22.2207031 7.5703125,22.2207031 Z" id="Shape"></path>
                    <polygon id="Path" points="12.046875 25.0917969 12.5566406 21.7578125 13.7226562 21.7578125 12.8027344 25.0917969"></polygon>
                    <polygon id="Path" points="21.3046875 22.9414062 21.3046875 15.6582031 21.2109375 15.6582031 19.0605469 17.2167969 19.0605469 16.1035156 21.3105469 14.4863281 22.359375 14.4863281 22.359375 22.9414062"></polygon>
                    <polygon id="Path" points="26.8710938 25.0507812 24.328125 25.0507812 24.328125 24.2539062 25.8867188 24.2539062 25.8867188 14.9140625 24.328125 14.9140625 24.328125 14.1171875 26.8710938 14.1171875"></polygon>
                </g>
                <g id="[1,-1]" transform="translate(292.5293, 182.8301)" fill="#000000">
                    <polygon id="Path" points="0 10.9335938 0 0 2.54296875 0 2.54296875 0.796875 0.984375 0.796875 0.984375 10.1367188 2.54296875 10.1367188 2.54296875 10.9335938"></polygon>
                    <polygon id="Path" points="6.0234375 8.82421875 6.0234375 1.54101562 5.9296875 1.54101562 3.77929688 3.09960938 3.77929688 1.98632812 6.02929688 0.369140625 7.078125 0.369140625 7.078125 8.82421875"></polygon>
                    <polygon id="Path" points="9.26953125 10.9746094 9.77929688 7.640625 10.9453125 7.640625 10.0253906 10.9746094"></polygon>
                    <polygon id="Path" points="18.5273438 8.82421875 18.5273438 1.54101562 18.4335938 1.54101562 16.2832031 3.09960938 16.2832031 1.98632812 18.5332031 0.369140625 19.5820312 0.369140625 19.5820312 8.82421875"></polygon>
                    <polygon id="Path" points="24.09375 10.9335938 21.5507812 10.9335938 21.5507812 10.1367188 23.109375 10.1367188 23.109375 0.796875 21.5507812 0.796875 21.5507812 0 24.09375 0"></polygon>
                </g>
                <g id="0-[0,-0]" transform="translate(268.9199, 0)" fill="#000000">
                    <path d="M14.0332031,8.85351562 C13.4082031,8.85351562 12.8740234,8.67382812 12.4306641,8.31445312 C11.9873047,7.95507812 11.6464844,7.44433594 11.4082031,6.78222656 C11.1699219,6.12011719 11.0507812,5.3359375 11.0507812,4.4296875 L11.0507812,4.41796875 C11.0507812,3.51171875 11.1699219,2.72851562 11.4082031,2.06835938 C11.6464844,1.40820312 11.9873047,0.8984375 12.4306641,0.5390625 C12.8740234,0.1796875 13.4082031,0 14.0332031,0 C14.6582031,0 15.1933594,0.1796875 15.6386719,0.5390625 C16.0839844,0.8984375 16.4267578,1.40820312 16.6669922,2.06835938 C16.9072266,2.72851562 17.0273438,3.51171875 17.0273438,4.41796875 L17.0273438,4.4296875 C17.0273438,5.3359375 16.9072266,6.12011719 16.6669922,6.78222656 C16.4267578,7.44433594 16.0839844,7.95507812 15.6386719,8.31445312 C15.1933594,8.67382812 14.6582031,8.85351562 14.0332031,8.85351562 Z M14.0332031,7.93359375 C14.4394531,7.93359375 14.7861328,7.79101562 15.0732422,7.50585938 C15.3603516,7.22070312 15.5810547,6.81640625 15.7353516,6.29296875 C15.8896484,5.76953125 15.9667969,5.1484375 15.9667969,4.4296875 L15.9667969,4.41796875 C15.9667969,3.69921875 15.8896484,3.07910156 15.7353516,2.55761719 C15.5810547,2.03613281 15.3603516,1.63378906 15.0732422,1.35058594 C14.7861328,1.06738281 14.4394531,0.92578125 14.0332031,0.92578125 C13.6308594,0.92578125 13.2861328,1.06738281 12.9990234,1.35058594 C12.7119141,1.63378906 12.4921875,2.03613281 12.3398438,2.55761719 C12.1875,3.07910156 12.1113281,3.69921875 12.1113281,4.41796875 L12.1113281,4.4296875 C12.1113281,5.1484375 12.1875,5.76953125 12.3398438,6.29296875 C12.4921875,6.81640625 12.7119141,7.22070312 12.9990234,7.50585938 C13.2861328,7.79101562 13.6308594,7.93359375 14.0332031,7.93359375 Z" id="Shape"></path>
                    <polygon id="Path" points="0 24.7636719 0 13.8300781 2.54296875 13.8300781 2.54296875 14.6269531 0.984375 14.6269531 0.984375 23.9667969 2.54296875 23.9667969 2.54296875 24.7636719"></polygon>
                    <path d="M6.78515625,22.8535156 C6.16015625,22.8535156 5.62597656,22.6738281 5.18261719,22.3144531 C4.73925781,21.9550781 4.3984375,21.4443359 4.16015625,20.7822266 C3.921875,20.1201172 3.80273438,19.3359375 3.80273438,18.4296875 L3.80273438,18.4179688 C3.80273438,17.5117188 3.921875,16.7285156 4.16015625,16.0683594 C4.3984375,15.4082031 4.73925781,14.8984375 5.18261719,14.5390625 C5.62597656,14.1796875 6.16015625,14 6.78515625,14 C7.41015625,14 7.9453125,14.1796875 8.390625,14.5390625 C8.8359375,14.8984375 9.17871094,15.4082031 9.41894531,16.0683594 C9.65917969,16.7285156 9.77929688,17.5117188 9.77929688,18.4179688 L9.77929688,18.4296875 C9.77929688,19.3359375 9.65917969,20.1201172 9.41894531,20.7822266 C9.17871094,21.4443359 8.8359375,21.9550781 8.390625,22.3144531 C7.9453125,22.6738281 7.41015625,22.8535156 6.78515625,22.8535156 Z M6.78515625,21.9335938 C7.19140625,21.9335938 7.53808594,21.7910156 7.82519531,21.5058594 C8.11230469,21.2207031 8.33300781,20.8164062 8.48730469,20.2929688 C8.64160156,19.7695312 8.71875,19.1484375 8.71875,18.4296875 L8.71875,18.4179688 C8.71875,17.6992188 8.64160156,17.0791016 8.48730469,16.5576172 C8.33300781,16.0361328 8.11230469,15.6337891 7.82519531,15.3505859 C7.53808594,15.0673828 7.19140625,14.9257812 6.78515625,14.9257812 C6.3828125,14.9257812 6.03808594,15.0673828 5.75097656,15.3505859 C5.46386719,15.6337891 5.24414062,16.0361328 5.09179688,16.5576172 C4.93945312,17.0791016 4.86328125,17.6992188 4.86328125,18.4179688 L4.86328125,18.4296875 C4.86328125,19.1484375 4.93945312,19.7695312 5.09179688,20.2929688 C5.24414062,20.8164062 5.46386719,21.2207031 5.75097656,21.5058594 C6.03808594,21.7910156 6.3828125,21.9335938 6.78515625,21.9335938 Z" id="Shape"></path>
                    <polygon id="Path" points="11.2617188 24.8046875 11.7714844 21.4707031 12.9375 21.4707031 12.0175781 24.8046875"></polygon>
                    <path d="M21.28125,22.8535156 C20.65625,22.8535156 20.1220703,22.6738281 19.6787109,22.3144531 C19.2353516,21.9550781 18.8945312,21.4443359 18.65625,20.7822266 C18.4179688,20.1201172 18.2988281,19.3359375 18.2988281,18.4296875 L18.2988281,18.4179688 C18.2988281,17.5117188 18.4179688,16.7285156 18.65625,16.0683594 C18.8945312,15.4082031 19.2353516,14.8984375 19.6787109,14.5390625 C20.1220703,14.1796875 20.65625,14 21.28125,14 C21.90625,14 22.4414062,14.1796875 22.8867188,14.5390625 C23.3320312,14.8984375 23.6748047,15.4082031 23.9150391,16.0683594 C24.1552734,16.7285156 24.2753906,17.5117188 24.2753906,18.4179688 L24.2753906,18.4296875 C24.2753906,19.3359375 24.1552734,20.1201172 23.9150391,20.7822266 C23.6748047,21.4443359 23.3320312,21.9550781 22.8867188,22.3144531 C22.4414062,22.6738281 21.90625,22.8535156 21.28125,22.8535156 Z M21.28125,21.9335938 C21.6875,21.9335938 22.0341797,21.7910156 22.3212891,21.5058594 C22.6083984,21.2207031 22.8291016,20.8164062 22.9833984,20.2929688 C23.1376953,19.7695312 23.2148438,19.1484375 23.2148438,18.4296875 L23.2148438,18.4179688 C23.2148438,17.6992188 23.1376953,17.0791016 22.9833984,16.5576172 C22.8291016,16.0361328 22.6083984,15.6337891 22.3212891,15.3505859 C22.0341797,15.0673828 21.6875,14.9257812 21.28125,14.9257812 C20.8789062,14.9257812 20.5341797,15.0673828 20.2470703,15.3505859 C19.9599609,15.6337891 19.7402344,16.0361328 19.5878906,16.5576172 C19.4355469,17.0791016 19.359375,17.6992188 19.359375,18.4179688 L19.359375,18.4296875 C19.359375,19.1484375 19.4355469,19.7695312 19.5878906,20.2929688 C19.7402344,20.8164062 19.9599609,21.2207031 20.2470703,21.5058594 C20.5341797,21.7910156 20.8789062,21.9335938 21.28125,21.9335938 Z" id="Shape"></path>
                    <polygon id="Path" points="28.078125 24.7636719 25.5351562 24.7636719 25.5351562 23.9667969 27.09375 23.9667969 27.09375 14.6269531 25.5351562 14.6269531 25.5351562 13.8300781 28.078125 13.8300781"></polygon>
                </g>
            </g>
            <line x1="312" y1="32.5" x2="312" y2="255" id="Path-Copy" stroke="#000000" stroke-width="2"></line>
        </g>
    </g>
</svg>