<?xml version="1.0" encoding="UTF-8"?>
<svg width="512px" height="320px" viewBox="0 0 512 320" version="1.1" xmlns="http://www.w3.org/2000/svg" xmlns:xlink="http://www.w3.org/1999/xlink">
    <title>ot-fig-1</title>
    <g id="ot-fig-1" stroke="none" stroke-width="1" fill="none" fill-rule="evenodd">
        <g id="Group" transform="translate(53, 24)">
            <line x1="155" y1="32.5" x2="155" y2="255" id="Path" stroke="#000000" stroke-width="2"></line>
            <path id="Path-Copy-2" d="M41.5,32.5 L41.5,253.591 L45.0642122,247.254869 L45.9357878,247.745131 L41.4357878,255.745131 L41,256.519864 L40.5642122,255.745131 L36.0642122,247.745131 L36.9357878,247.254869 L40.5,253.591 L40.5,32.5 L41.5,32.5 Z" fill="#000000" fill-rule="nonzero"></path>
            <path id="Path-Copy-3" d="M155.259197,80.3224292 L301.862174,169.194495 L307.055,172.342 L303.483683,166.009489 L304.354746,165.518318 L308.863102,173.513611 L309.299699,174.28789 L308.411282,174.258932 L299.237374,173.959912 L299.269951,172.960443 L306.535,173.197 L301.343779,170.049637 L154.740803,81.1775708 L155.259197,80.3224292 Z" fill="#000000" fill-rule="nonzero"></path>
            <path id="Path-Copy-4" d="M311.642471,59.1504671 L312.357529,59.8495329 L164.593062,210.994232 L160.342,215.342 L167.3205,213.302938 L167.601002,214.262792 L158.790718,216.837455 L157.937515,217.08679 L158.167491,216.228167 L160.542259,207.361912 L161.50821,207.620635 L159.627,214.643 L163.878005,210.295167 L311.642471,59.1504671 Z" fill="#000000" fill-rule="nonzero"></path>
            <g id="texts-outlined" transform="translate(29.041, 2.0586)" fill="#000000" fill-rule="nonzero">
                <g id="Alice-“xyz”" transform="translate(111.7559, 0)">
                    <path d="M0.779296875,8.94140625 L3.89648438,0.486328125 L4.70507812,0.486328125 L4.70507812,1.8515625 L4.37109375,1.8515625 L1.88671875,8.94140625 L0.779296875,8.94140625 Z M2.19140625,6.52148438 L2.51953125,5.625 L6.33984375,5.625 L6.66796875,6.52148438 L2.19140625,6.52148438 Z M6.94921875,8.94140625 L4.46484375,1.8515625 L4.46484375,0.486328125 L4.93945312,0.486328125 L8.05664062,8.94140625 L6.94921875,8.94140625 Z" id="Shape"></path>
                    <polygon id="Path" points="9.46875 8.94140625 9.46875 0.1171875 10.4882812 0.1171875 10.4882812 8.94140625"></polygon>
                    <path d="M12.46875,8.94140625 L12.46875,2.625 L13.4882812,2.625 L13.4882812,8.94140625 L12.46875,8.94140625 Z M12.984375,1.40625 C12.7929688,1.40625 12.6279297,1.33691406 12.4892578,1.19824219 C12.3505859,1.05957031 12.28125,0.89453125 12.28125,0.703125 C12.28125,0.5078125 12.3505859,0.341796875 12.4892578,0.205078125 C12.6279297,0.068359375 12.7929688,0 12.984375,0 C13.1796875,0 13.3457031,0.068359375 13.4824219,0.205078125 C13.6191406,0.341796875 13.6875,0.5078125 13.6875,0.703125 C13.6875,0.89453125 13.6191406,1.05957031 13.4824219,1.19824219 C13.3457031,1.33691406 13.1796875,1.40625 12.984375,1.40625 Z" id="Shape"></path>
                    <path d="M17.9941406,9.05273438 C17.4042969,9.05273438 16.8925781,8.91796875 16.4589844,8.6484375 C16.0253906,8.37890625 15.6894531,7.99804688 15.4511719,7.50585938 C15.2128906,7.01367188 15.09375,6.43359375 15.09375,5.765625 L15.09375,5.75390625 C15.09375,5.09765625 15.2119141,4.52734375 15.4482422,4.04296875 C15.6845703,3.55859375 16.0195312,3.18261719 16.453125,2.91503906 C16.8867188,2.64746094 17.3984375,2.51367188 17.9882812,2.51367188 C18.5,2.51367188 18.9414062,2.60351562 19.3125,2.78320312 C19.6835938,2.96289062 19.9804688,3.20410156 20.203125,3.50683594 C20.4257812,3.80957031 20.5683594,4.1484375 20.6308594,4.5234375 L20.6367188,4.55859375 L19.6230469,4.55859375 L19.6171875,4.54101562 C19.5390625,4.22851562 19.3613281,3.96289062 19.0839844,3.74414062 C18.8066406,3.52539062 18.4414062,3.41601562 17.9882812,3.41601562 C17.609375,3.41601562 17.28125,3.51171875 17.0039062,3.703125 C16.7265625,3.89453125 16.5126953,4.16503906 16.3623047,4.51464844 C16.2119141,4.86425781 16.1367188,5.27734375 16.1367188,5.75390625 L16.1367188,5.765625 C16.1367188,6.25 16.2128906,6.67089844 16.3652344,7.02832031 C16.5175781,7.38574219 16.7324219,7.66210938 17.0097656,7.85742188 C17.2871094,8.05273438 17.6132812,8.15039062 17.9882812,8.15039062 C18.4140625,8.15039062 18.7617188,8.05859375 19.03125,7.875 C19.3007812,7.69140625 19.4941406,7.42382812 19.6113281,7.07226562 L19.6230469,7.03710938 L20.6308594,7.03125 L20.6191406,7.09570312 C20.5332031,7.47460938 20.3808594,7.81152344 20.1621094,8.10644531 C19.9433594,8.40136719 19.6542969,8.6328125 19.2949219,8.80078125 C18.9355469,8.96875 18.5019531,9.05273438 17.9941406,9.05273438 Z" id="Path"></path>
                    <path d="M24.703125,9.05273438 C24.1015625,9.05273438 23.5849609,8.91992188 23.1533203,8.65429688 C22.7216797,8.38867188 22.3896484,8.01269531 22.1572266,7.52636719 C21.9248047,7.04003906 21.8085938,6.46679688 21.8085938,5.80664062 L21.8085938,5.80078125 C21.8085938,5.1484375 21.9248047,4.57617188 22.1572266,4.08398438 C22.3896484,3.59179688 22.71875,3.20703125 23.1445312,2.9296875 C23.5703125,2.65234375 24.0683594,2.51367188 24.6386719,2.51367188 C25.2128906,2.51367188 25.7060547,2.64648438 26.1181641,2.91210938 C26.5302734,3.17773438 26.8466797,3.54785156 27.0673828,4.02246094 C27.2880859,4.49707031 27.3984375,5.04882812 27.3984375,5.67773438 L27.3984375,6.07617188 L22.3359375,6.07617188 L22.3359375,5.26171875 L26.8769531,5.26171875 L26.3730469,6.00585938 L26.3730469,5.6015625 C26.3730469,5.10546875 26.2988281,4.69726562 26.1503906,4.37695312 C26.0019531,4.05664062 25.796875,3.81738281 25.5351562,3.65917969 C25.2734375,3.50097656 24.9726562,3.421875 24.6328125,3.421875 C24.2929688,3.421875 23.9892578,3.50488281 23.7216797,3.67089844 C23.4541016,3.83691406 23.2421875,4.08203125 23.0859375,4.40625 C22.9296875,4.73046875 22.8515625,5.12890625 22.8515625,5.6015625 L22.8515625,6.00585938 C22.8515625,6.45507812 22.9277344,6.83886719 23.0800781,7.15722656 C23.2324219,7.47558594 23.4492188,7.71972656 23.7304688,7.88964844 C24.0117188,8.05957031 24.34375,8.14453125 24.7265625,8.14453125 C25.0117188,8.14453125 25.2597656,8.10546875 25.4707031,8.02734375 C25.6816406,7.94921875 25.8554688,7.84960938 25.9921875,7.72851562 C26.1289062,7.60742188 26.2246094,7.484375 26.2792969,7.359375 L26.3027344,7.30664062 L27.3222656,7.30664062 L27.3105469,7.35351562 C27.2558594,7.56835938 27.1591797,7.77636719 27.0205078,7.97753906 C26.8818359,8.17871094 26.703125,8.36035156 26.484375,8.52246094 C26.265625,8.68457031 26.0068359,8.81347656 25.7080078,8.90917969 C25.4091797,9.00488281 25.0742188,9.05273438 24.703125,9.05273438 Z" id="Path"></path>
                    <path d="M1.67578125,14.4863281 L1.16601562,17.8203125 L0,17.8203125 L0.919921875,14.4863281 L1.67578125,14.4863281 Z M3.62109375,14.4863281 L3.11132812,17.8203125 L1.9453125,17.8203125 L2.86523438,14.4863281 L3.62109375,14.4863281 Z" id="Shape"></path>
                    <polygon id="Path" points="5.00976562 22.9414062 7.171875 19.7832031 4.98632812 16.625 6.1875 16.625 7.6875 18.9746094 7.78125 18.9746094 9.26367188 16.625 10.40625 16.625 8.26171875 19.7421875 10.4355469 22.9414062 9.24023438 22.9414062 7.74609375 20.5566406 7.65234375 20.5566406 6.15234375 22.9414062"></polygon>
                    <path d="M12.3457031,25.15625 C12.2792969,25.15625 12.2050781,25.1533203 12.1230469,25.1474609 C12.0410156,25.1416016 11.9648438,25.1328125 11.8945312,25.1210938 L11.8945312,24.2832031 C11.9570312,24.2949219 12.0253906,24.3027344 12.0996094,24.3066406 C12.1738281,24.3105469 12.2460938,24.3125 12.3164062,24.3125 C12.6054688,24.3125 12.8427734,24.2382812 13.0283203,24.0898438 C13.2138672,23.9414062 13.3632812,23.6855469 13.4765625,23.3222656 L13.59375,22.9472656 L11.2558594,16.625 L12.3457031,16.625 L14.2910156,22.4609375 L13.8867188,21.8222656 L14.3671875,21.8222656 L13.9628906,22.4609375 L15.9023438,16.625 L16.9746094,16.625 L14.5078125,23.328125 C14.3359375,23.8007812 14.1542969,24.1699219 13.9628906,24.4355469 C13.7714844,24.7011719 13.5478516,24.8876953 13.2919922,24.9951172 C13.0361328,25.1025391 12.7207031,25.15625 12.3457031,25.15625 Z" id="Path"></path>
                    <polygon id="Path" points="18.1757812 22.9414062 18.1757812 22.203125 21.8203125 17.5625 21.8203125 17.46875 18.1816406 17.46875 18.1816406 16.625 23.0214844 16.625 23.0214844 17.3808594 19.3945312 22.0039062 19.3945312 22.0976562 23.0390625 22.0976562 23.0390625 22.9414062"></polygon>
                    <path d="M24.7851562,17.8203125 L25.2949219,14.4863281 L26.4609375,14.4863281 L25.5410156,17.8203125 L24.7851562,17.8203125 Z M26.7304688,17.8203125 L27.2402344,14.4863281 L28.40625,14.4863281 L27.4863281,17.8203125 L26.7304688,17.8203125 Z" id="Shape"></path>
                </g>
                <g id="“axz”" transform="translate(111.7031, 259.4863)">
                    <path d="M1.67578125,0 L1.16601562,3.33398438 L0,3.33398438 L0.919921875,0 L1.67578125,0 Z M3.62109375,0 L3.11132812,3.33398438 L1.9453125,3.33398438 L2.86523438,0 L3.62109375,0 Z" id="Shape"></path>
                    <path d="M7.24804688,8.56640625 C6.84960938,8.56640625 6.49121094,8.49023438 6.17285156,8.33789062 C5.85449219,8.18554688 5.60253906,7.96875 5.41699219,7.6875 C5.23144531,7.40625 5.13867188,7.07421875 5.13867188,6.69140625 L5.13867188,6.6796875 C5.13867188,6.3046875 5.22851562,5.98339844 5.40820312,5.71582031 C5.58789062,5.44824219 5.84960938,5.23828125 6.19335938,5.0859375 C6.53710938,4.93359375 6.953125,4.84375 7.44140625,4.81640625 L9.76171875,4.67578125 L9.76171875,5.49023438 L7.56445312,5.63085938 C7.08398438,5.65820312 6.73339844,5.7578125 6.51269531,5.9296875 C6.29199219,6.1015625 6.18164062,6.34375 6.18164062,6.65625 L6.18164062,6.66796875 C6.18164062,6.98828125 6.30273438,7.23730469 6.54492188,7.41503906 C6.78710938,7.59277344 7.09179688,7.68164062 7.45898438,7.68164062 C7.80664062,7.68164062 8.11523438,7.61230469 8.38476562,7.47363281 C8.65429688,7.33496094 8.86621094,7.14648438 9.02050781,6.90820312 C9.17480469,6.66992188 9.25195312,6.40039062 9.25195312,6.09960938 L9.25195312,4.13085938 C9.25195312,3.74023438 9.13378906,3.44238281 8.89746094,3.23730469 C8.66113281,3.03222656 8.30664062,2.9296875 7.83398438,2.9296875 C7.45507812,2.9296875 7.14453125,2.99707031 6.90234375,3.13183594 C6.66015625,3.26660156 6.49804688,3.45703125 6.41601562,3.703125 L6.41015625,3.72070312 L5.390625,3.72070312 L5.39648438,3.68554688 C5.45117188,3.35351562 5.58886719,3.06347656 5.80957031,2.81542969 C6.03027344,2.56738281 6.31640625,2.37402344 6.66796875,2.23535156 C7.01953125,2.09667969 7.41992188,2.02734375 7.86914062,2.02734375 C8.38476562,2.02734375 8.82128906,2.11132812 9.17871094,2.27929688 C9.53613281,2.44726562 9.80761719,2.68847656 9.99316406,3.00292969 C10.1787109,3.31738281 10.2714844,3.69335938 10.2714844,4.13085938 L10.2714844,8.45507812 L9.25195312,8.45507812 L9.25195312,7.5234375 L9.15820312,7.5234375 C9.02539062,7.74609375 8.86425781,7.93554688 8.67480469,8.09179688 C8.48535156,8.24804688 8.27148438,8.36621094 8.03320312,8.44628906 C7.79492188,8.52636719 7.53320312,8.56640625 7.24804688,8.56640625 Z" id="Path"></path>
                    <polygon id="Path" points="11.6308594 8.45507812 13.7929688 5.296875 11.6074219 2.13867188 12.8085938 2.13867188 14.3085938 4.48828125 14.4023438 4.48828125 15.8847656 2.13867188 17.0273438 2.13867188 14.8828125 5.25585938 17.0566406 8.45507812 15.8613281 8.45507812 14.3671875 6.0703125 14.2734375 6.0703125 12.7734375 8.45507812"></polygon>
                    <polygon id="Path" points="18.28125 8.45507812 18.28125 7.71679688 21.9257812 3.07617188 21.9257812 2.98242188 18.2871094 2.98242188 18.2871094 2.13867188 23.1269531 2.13867188 23.1269531 2.89453125 19.5 7.51757812 19.5 7.61132812 23.1445312 7.61132812 23.1445312 8.45507812"></polygon>
                    <path d="M24.890625,3.33398438 L25.4003906,0 L26.5664062,0 L25.6464844,3.33398438 L24.890625,3.33398438 Z M26.8359375,3.33398438 L27.3457031,0 L28.5117188,0 L27.5917969,3.33398438 L26.8359375,3.33398438 Z" id="Shape"></path>
                </g>
                <g id="“axz”-copy" transform="translate(268.7031, 259.4863)">
                    <path d="M1.67578125,0 L1.16601562,3.33398438 L0,3.33398438 L0.919921875,0 L1.67578125,0 Z M3.62109375,0 L3.11132812,3.33398438 L1.9453125,3.33398438 L2.86523438,0 L3.62109375,0 Z" id="Shape"></path>
                    <path d="M7.24804688,8.56640625 C6.84960938,8.56640625 6.49121094,8.49023438 6.17285156,8.33789062 C5.85449219,8.18554688 5.60253906,7.96875 5.41699219,7.6875 C5.23144531,7.40625 5.13867188,7.07421875 5.13867188,6.69140625 L5.13867188,6.6796875 C5.13867188,6.3046875 5.22851562,5.98339844 5.40820312,5.71582031 C5.58789062,5.44824219 5.84960938,5.23828125 6.19335938,5.0859375 C6.53710938,4.93359375 6.953125,4.84375 7.44140625,4.81640625 L9.76171875,4.67578125 L9.76171875,5.49023438 L7.56445312,5.63085938 C7.08398438,5.65820312 6.73339844,5.7578125 6.51269531,5.9296875 C6.29199219,6.1015625 6.18164062,6.34375 6.18164062,6.65625 L6.18164062,6.66796875 C6.18164062,6.98828125 6.30273438,7.23730469 6.54492188,7.41503906 C6.78710938,7.59277344 7.09179688,7.68164062 7.45898438,7.68164062 C7.80664062,7.68164062 8.11523438,7.61230469 8.38476562,7.47363281 C8.65429688,7.33496094 8.86621094,7.14648438 9.02050781,6.90820312 C9.17480469,6.66992188 9.25195312,6.40039062 9.25195312,6.09960938 L9.25195312,4.13085938 C9.25195312,3.74023438 9.13378906,3.44238281 8.89746094,3.23730469 C8.66113281,3.03222656 8.30664062,2.9296875 7.83398438,2.9296875 C7.45507812,2.9296875 7.14453125,2.99707031 6.90234375,3.13183594 C6.66015625,3.26660156 6.49804688,3.45703125 6.41601562,3.703125 L6.41015625,3.72070312 L5.390625,3.72070312 L5.39648438,3.68554688 C5.45117188,3.35351562 5.58886719,3.06347656 5.80957031,2.81542969 C6.03027344,2.56738281 6.31640625,2.37402344 6.66796875,2.23535156 C7.01953125,2.09667969 7.41992188,2.02734375 7.86914062,2.02734375 C8.38476562,2.02734375 8.82128906,2.11132812 9.17871094,2.27929688 C9.53613281,2.44726562 9.80761719,2.68847656 9.99316406,3.00292969 C10.1787109,3.31738281 10.2714844,3.69335938 10.2714844,4.13085938 L10.2714844,8.45507812 L9.25195312,8.45507812 L9.25195312,7.5234375 L9.15820312,7.5234375 C9.02539062,7.74609375 8.86425781,7.93554688 8.67480469,8.09179688 C8.48535156,8.24804688 8.27148438,8.36621094 8.03320312,8.44628906 C7.79492188,8.52636719 7.53320312,8.56640625 7.24804688,8.56640625 Z" id="Path"></path>
                    <polygon id="Path" points="11.6308594 8.45507812 13.7929688 5.296875 11.6074219 2.13867188 12.8085938 2.13867188 14.3085938 4.48828125 14.4023438 4.48828125 15.8847656 2.13867188 17.0273438 2.13867188 14.8828125 5.25585938 17.0566406 8.45507812 15.8613281 8.45507812 14.3671875 6.0703125 14.2734375 6.0703125 12.7734375 8.45507812"></polygon>
                    <polygon id="Path" points="18.28125 8.45507812 18.28125 7.71679688 21.9257812 3.07617188 21.9257812 2.98242188 18.2871094 2.98242188 18.2871094 2.13867188 23.1269531 2.13867188 23.1269531 2.89453125 19.5 7.51757812 19.5 7.61132812 23.1445312 7.61132812 23.1445312 8.45507812"></polygon>
                    <path d="M24.890625,3.33398438 L25.4003906,0 L26.5664062,0 L25.6464844,3.33398438 L24.890625,3.33398438 Z M26.8359375,3.33398438 L27.3457031,0 L28.5117188,0 L27.5917969,3.33398438 L26.8359375,3.33398438 Z" id="Shape"></path>
                </g>
                <g id="time" transform="translate(0, 14)">
                    <path d="M2.84179688,8.98828125 C2.19335938,8.98828125 1.72363281,8.85742188 1.43261719,8.59570312 C1.14160156,8.33398438 0.99609375,7.90234375 0.99609375,7.30078125 L0.99609375,3.46875 L0,3.46875 L0,2.625 L0.99609375,2.625 L0.99609375,0.990234375 L2.05078125,0.990234375 L2.05078125,2.625 L3.43359375,2.625 L3.43359375,3.46875 L2.05078125,3.46875 L2.05078125,7.04296875 C2.05078125,7.4140625 2.12109375,7.68066406 2.26171875,7.84277344 C2.40234375,8.00488281 2.63671875,8.0859375 2.96484375,8.0859375 C3.0546875,8.0859375 3.13183594,8.08398438 3.19628906,8.08007812 C3.26074219,8.07617188 3.33984375,8.0703125 3.43359375,8.0625 L3.43359375,8.9296875 C3.3359375,8.9453125 3.23828125,8.95898438 3.140625,8.97070312 C3.04296875,8.98242188 2.94335938,8.98828125 2.84179688,8.98828125 Z" id="Path"></path>
                    <path d="M4.98046875,8.94140625 L4.98046875,2.625 L6,2.625 L6,8.94140625 L4.98046875,8.94140625 Z M5.49609375,1.40625 C5.3046875,1.40625 5.13964844,1.33691406 5.00097656,1.19824219 C4.86230469,1.05957031 4.79296875,0.89453125 4.79296875,0.703125 C4.79296875,0.5078125 4.86230469,0.341796875 5.00097656,0.205078125 C5.13964844,0.068359375 5.3046875,0 5.49609375,0 C5.69140625,0 5.85742188,0.068359375 5.99414062,0.205078125 C6.13085938,0.341796875 6.19921875,0.5078125 6.19921875,0.703125 C6.19921875,0.89453125 6.13085938,1.05957031 5.99414062,1.19824219 C5.85742188,1.33691406 5.69140625,1.40625 5.49609375,1.40625 Z" id="Shape"></path>
                    <path d="M7.921875,8.94140625 L7.921875,2.625 L8.94140625,2.625 L8.94140625,3.5859375 L9.03515625,3.5859375 C9.17578125,3.24609375 9.39160156,2.98242188 9.68261719,2.79492188 C9.97363281,2.60742188 10.3261719,2.51367188 10.7402344,2.51367188 C11.0253906,2.51367188 11.28125,2.56054688 11.5078125,2.65429688 C11.734375,2.74804688 11.9296875,2.87792969 12.09375,3.04394531 C12.2578125,3.20996094 12.3886719,3.40234375 12.4863281,3.62109375 L12.5800781,3.62109375 C12.6933594,3.3984375 12.8457031,3.20410156 13.0371094,3.03808594 C13.2285156,2.87207031 13.4501953,2.74316406 13.7021484,2.65136719 C13.9541016,2.55957031 14.2246094,2.51367188 14.5136719,2.51367188 C14.9433594,2.51367188 15.3076172,2.59375 15.6064453,2.75390625 C15.9052734,2.9140625 16.1328125,3.14746094 16.2890625,3.45410156 C16.4453125,3.76074219 16.5234375,4.13476562 16.5234375,4.57617188 L16.5234375,8.94140625 L15.5039062,8.94140625 L15.5039062,4.81054688 C15.5039062,4.49804688 15.4560547,4.23925781 15.3603516,4.03417969 C15.2646484,3.82910156 15.1191406,3.67480469 14.9238281,3.57128906 C14.7285156,3.46777344 14.4824219,3.41601562 14.1855469,3.41601562 C13.8925781,3.41601562 13.6367188,3.48242188 13.4179688,3.61523438 C13.1992188,3.74804688 13.0292969,3.92480469 12.9082031,4.14550781 C12.7871094,4.36621094 12.7265625,4.61132812 12.7265625,4.88085938 L12.7265625,8.94140625 L11.7070312,8.94140625 L11.7070312,4.65234375 C11.7070312,4.40234375 11.6533203,4.18457031 11.5458984,3.99902344 C11.4384766,3.81347656 11.2861328,3.66992188 11.0888672,3.56835938 C10.8916016,3.46679688 10.6601562,3.41601562 10.3945312,3.41601562 C10.1210938,3.41601562 9.87402344,3.48828125 9.65332031,3.6328125 C9.43261719,3.77734375 9.25878906,3.97167969 9.13183594,4.21582031 C9.00488281,4.45996094 8.94140625,4.73046875 8.94140625,5.02734375 L8.94140625,8.94140625 L7.921875,8.94140625 Z" id="Path"></path>
                    <path d="M20.9414062,9.05273438 C20.3398438,9.05273438 19.8232422,8.91992188 19.3916016,8.65429688 C18.9599609,8.38867188 18.6279297,8.01269531 18.3955078,7.52636719 C18.1630859,7.04003906 18.046875,6.46679688 18.046875,5.80664062 L18.046875,5.80078125 C18.046875,5.1484375 18.1630859,4.57617188 18.3955078,4.08398438 C18.6279297,3.59179688 18.9570312,3.20703125 19.3828125,2.9296875 C19.8085938,2.65234375 20.3066406,2.51367188 20.8769531,2.51367188 C21.4511719,2.51367188 21.9443359,2.64648438 22.3564453,2.91210938 C22.7685547,3.17773438 23.0849609,3.54785156 23.3056641,4.02246094 C23.5263672,4.49707031 23.6367188,5.04882812 23.6367188,5.67773438 L23.6367188,6.07617188 L18.5742188,6.07617188 L18.5742188,5.26171875 L23.1152344,5.26171875 L22.6113281,6.00585938 L22.6113281,5.6015625 C22.6113281,5.10546875 22.5371094,4.69726562 22.3886719,4.37695312 C22.2402344,4.05664062 22.0351562,3.81738281 21.7734375,3.65917969 C21.5117188,3.50097656 21.2109375,3.421875 20.8710938,3.421875 C20.53125,3.421875 20.2275391,3.50488281 19.9599609,3.67089844 C19.6923828,3.83691406 19.4804688,4.08203125 19.3242188,4.40625 C19.1679688,4.73046875 19.0898438,5.12890625 19.0898438,5.6015625 L19.0898438,6.00585938 C19.0898438,6.45507812 19.1660156,6.83886719 19.3183594,7.15722656 C19.4707031,7.47558594 19.6875,7.71972656 19.96875,7.88964844 C20.25,8.05957031 20.5820312,8.14453125 20.9648438,8.14453125 C21.25,8.14453125 21.4980469,8.10546875 21.7089844,8.02734375 C21.9199219,7.94921875 22.09375,7.84960938 22.2304688,7.72851562 C22.3671875,7.60742188 22.4628906,7.484375 22.5175781,7.359375 L22.5410156,7.30664062 L23.5605469,7.30664062 L23.5488281,7.35351562 C23.4941406,7.56835938 23.3974609,7.77636719 23.2587891,7.97753906 C23.1201172,8.17871094 22.9414062,8.36035156 22.7226562,8.52246094 C22.5039062,8.68457031 22.2451172,8.81347656 21.9462891,8.90917969 C21.6474609,9.00488281 21.3125,9.05273438 20.9414062,9.05273438 Z" id="Path"></path>
                </g>
                <g id="O-=-ins(0,-“a”)" transform="translate(41.5977, 74)">
                    <path d="M3.87890625,9.140625 C3.0703125,9.140625 2.37695312,8.95996094 1.79882812,8.59863281 C1.22070312,8.23730469 0.776367188,7.72460938 0.465820312,7.06054688 C0.155273438,6.39648438 0,5.61523438 0,4.71679688 L0,4.70507812 C0,3.79882812 0.157226563,3.015625 0.471679688,2.35546875 C0.786132812,1.6953125 1.23339844,1.18554688 1.81347656,0.826171875 C2.39355469,0.466796875 3.08203125,0.287109375 3.87890625,0.287109375 C4.6796875,0.287109375 5.37011719,0.466796875 5.95019531,0.826171875 C6.53027344,1.18554688 6.9765625,1.69628906 7.2890625,2.35839844 C7.6015625,3.02050781 7.7578125,3.80273438 7.7578125,4.70507812 L7.7578125,4.71679688 C7.7578125,5.61523438 7.60253906,6.39550781 7.29199219,7.05761719 C6.98144531,7.71972656 6.53613281,8.23242188 5.95605469,8.59570312 C5.37597656,8.95898438 4.68359375,9.140625 3.87890625,9.140625 Z M3.87890625,8.16796875 C4.45703125,8.16796875 4.95507812,8.02539062 5.37304688,7.74023438 C5.79101562,7.45507812 6.11328125,7.05371094 6.33984375,6.53613281 C6.56640625,6.01855469 6.6796875,5.41210938 6.6796875,4.71679688 L6.6796875,4.70507812 C6.6796875,4.00195312 6.56640625,3.39257812 6.33984375,2.87695312 C6.11328125,2.36132812 5.79101562,1.96289062 5.37304688,1.68164062 C4.95507812,1.40039062 4.45703125,1.25976562 3.87890625,1.25976562 C3.3046875,1.25976562 2.80859375,1.40039062 2.390625,1.68164062 C1.97265625,1.96289062 1.64941406,2.36132812 1.42089844,2.87695312 C1.19238281,3.39257812 1.078125,4.00195312 1.078125,4.70507812 L1.078125,4.71679688 C1.078125,5.41210938 1.18945312,6.01855469 1.41210938,6.53613281 C1.63476562,7.05371094 1.95507812,7.45507812 2.37304688,7.74023438 C2.79101562,8.02539062 3.29296875,8.16796875 3.87890625,8.16796875 Z" id="Shape"></path>
                    <path d="M12.6386719,7.58789062 L12.6386719,6.63867188 L18.6855469,6.63867188 L18.6855469,7.58789062 L12.6386719,7.58789062 Z M12.6386719,4.4296875 L12.6386719,3.48046875 L18.6855469,3.48046875 L18.6855469,4.4296875 L12.6386719,4.4296875 Z" id="Shape"></path>
                    <path d="M23.7890625,8.94140625 L23.7890625,2.625 L24.8085938,2.625 L24.8085938,8.94140625 L23.7890625,8.94140625 Z M24.3046875,1.40625 C24.1132812,1.40625 23.9482422,1.33691406 23.8095703,1.19824219 C23.6708984,1.05957031 23.6015625,0.89453125 23.6015625,0.703125 C23.6015625,0.5078125 23.6708984,0.341796875 23.8095703,0.205078125 C23.9482422,0.068359375 24.1132812,0 24.3046875,0 C24.5,0 24.6660156,0.068359375 24.8027344,0.205078125 C24.9394531,0.341796875 25.0078125,0.5078125 25.0078125,0.703125 C25.0078125,0.89453125 24.9394531,1.05957031 24.8027344,1.19824219 C24.6660156,1.33691406 24.5,1.40625 24.3046875,1.40625 Z" id="Shape"></path>
                    <path d="M26.7304688,8.94140625 L26.7304688,2.625 L27.75,2.625 L27.75,3.57421875 L27.84375,3.57421875 C28.0039062,3.23828125 28.234375,2.97753906 28.5351562,2.79199219 C28.8359375,2.60644531 29.21875,2.51367188 29.6835938,2.51367188 C30.3945312,2.51367188 30.9404297,2.71582031 31.3212891,3.12011719 C31.7021484,3.52441406 31.8925781,4.1015625 31.8925781,4.8515625 L31.8925781,8.94140625 L30.8730469,8.94140625 L30.8730469,5.09765625 C30.8730469,4.52734375 30.7529297,4.10449219 30.5126953,3.82910156 C30.2724609,3.55371094 29.9003906,3.41601562 29.3964844,3.41601562 C29.0605469,3.41601562 28.7695312,3.48828125 28.5234375,3.6328125 C28.2773438,3.77734375 28.0869141,3.98242188 27.9521484,4.24804688 C27.8173828,4.51367188 27.75,4.83203125 27.75,5.203125 L27.75,8.94140625 L26.7304688,8.94140625 Z" id="Path"></path>
                    <path d="M35.9003906,9.05273438 C35.4316406,9.05273438 35.0175781,8.98144531 34.6582031,8.83886719 C34.2988281,8.69628906 34.0107422,8.49609375 33.7939453,8.23828125 C33.5771484,7.98046875 33.4492188,7.67773438 33.4101562,7.33007812 L33.4101562,7.33007812 L34.453125,7.33007812 L34.453125,7.33007812 C34.5390625,7.59179688 34.7070312,7.80273438 34.9570312,7.96289062 C35.2070312,8.12304688 35.5332031,8.203125 35.9355469,8.203125 C36.2207031,8.203125 36.4716797,8.16113281 36.6884766,8.07714844 C36.9052734,7.99316406 37.0761719,7.87792969 37.2011719,7.73144531 C37.3261719,7.58496094 37.3886719,7.41601562 37.3886719,7.22460938 L37.3886719,7.21289062 C37.3886719,6.99804688 37.3027344,6.81542969 37.1308594,6.66503906 C36.9589844,6.51464844 36.6777344,6.39257812 36.2871094,6.29882812 L35.3085938,6.06445312 C34.9140625,5.97070312 34.5898438,5.84863281 34.3359375,5.69824219 C34.0820312,5.54785156 33.8945312,5.36230469 33.7734375,5.14160156 C33.6523438,4.92089844 33.5917969,4.66015625 33.5917969,4.359375 L33.5917969,4.35351562 C33.5917969,4.00195312 33.6943359,3.6875 33.8994141,3.41015625 C34.1044922,3.1328125 34.3847656,2.9140625 34.7402344,2.75390625 C35.0957031,2.59375 35.4960938,2.51367188 35.9414062,2.51367188 C36.3828125,2.51367188 36.7744141,2.58300781 37.1162109,2.72167969 C37.4580078,2.86035156 37.7333984,3.05664062 37.9423828,3.31054688 C38.1513672,3.56445312 38.2792969,3.86328125 38.3261719,4.20703125 L38.3261719,4.20703125 L37.3242188,4.20703125 L37.3242188,4.20703125 C37.2578125,3.95703125 37.1054688,3.75390625 36.8671875,3.59765625 C36.6289062,3.44140625 36.3183594,3.36328125 35.9355469,3.36328125 C35.6855469,3.36328125 35.4628906,3.40332031 35.2675781,3.48339844 C35.0722656,3.56347656 34.9179688,3.67382812 34.8046875,3.81445312 C34.6914062,3.95507812 34.6347656,4.11914062 34.6347656,4.30664062 L34.6347656,4.31835938 C34.6347656,4.45898438 34.671875,4.58398438 34.7460938,4.69335938 C34.8203125,4.80273438 34.9355469,4.8984375 35.0917969,4.98046875 C35.2480469,5.0625 35.4492188,5.13476562 35.6953125,5.19726562 L36.6679688,5.43164062 C37.2617188,5.57617188 37.7041016,5.78320312 37.9951172,6.05273438 C38.2861328,6.32226562 38.4316406,6.68359375 38.4316406,7.13671875 L38.4316406,7.1484375 C38.4316406,7.5234375 38.3203125,7.85449219 38.0976562,8.14160156 C37.875,8.42871094 37.5732422,8.65234375 37.1923828,8.8125 C36.8115234,8.97265625 36.3808594,9.05273438 35.9003906,9.05273438 Z" id="Path"></path>
                    <path d="M42.1464844,11.0507812 C41.7675781,10.546875 41.4550781,10.0117188 41.2089844,9.4453125 C40.9628906,8.87890625 40.7802734,8.27539062 40.6611328,7.63476562 C40.5419922,6.99414062 40.4824219,6.31054688 40.4824219,5.58398438 C40.4824219,4.85742188 40.5410156,4.17480469 40.6582031,3.53613281 C40.7753906,2.89746094 40.9570312,2.29394531 41.203125,1.72558594 C41.4492188,1.15722656 41.7636719,0.62109375 42.1464844,0.1171875 L43.0019531,0.1171875 C42.7910156,0.38671875 42.5947266,0.7265625 42.4130859,1.13671875 C42.2314453,1.546875 42.0742188,1.99902344 41.9414062,2.49316406 C41.8085938,2.98730469 41.7050781,3.49902344 41.6308594,4.02832031 C41.5566406,4.55761719 41.5195312,5.07617188 41.5195312,5.58398438 C41.5195312,6.09570312 41.5566406,6.61621094 41.6308594,7.14550781 C41.7050781,7.67480469 41.8085938,8.18652344 41.9414062,8.68066406 C42.0742188,9.17480469 42.2314453,9.62597656 42.4130859,10.0341797 C42.5947266,10.4423828 42.7910156,10.78125 43.0019531,11.0507812 L42.1464844,11.0507812 Z" id="Path"></path>
                    <path d="M47.4199219,9.140625 C46.7949219,9.140625 46.2607422,8.9609375 45.8173828,8.6015625 C45.3740234,8.2421875 45.0332031,7.73144531 44.7949219,7.06933594 C44.5566406,6.40722656 44.4375,5.62304688 44.4375,4.71679688 L44.4375,4.70507812 C44.4375,3.79882812 44.5566406,3.015625 44.7949219,2.35546875 C45.0332031,1.6953125 45.3740234,1.18554688 45.8173828,0.826171875 C46.2607422,0.466796875 46.7949219,0.287109375 47.4199219,0.287109375 C48.0449219,0.287109375 48.5800781,0.466796875 49.0253906,0.826171875 C49.4707031,1.18554688 49.8134766,1.6953125 50.0537109,2.35546875 C50.2939453,3.015625 50.4140625,3.79882812 50.4140625,4.70507812 L50.4140625,4.71679688 C50.4140625,5.62304688 50.2939453,6.40722656 50.0537109,7.06933594 C49.8134766,7.73144531 49.4707031,8.2421875 49.0253906,8.6015625 C48.5800781,8.9609375 48.0449219,9.140625 47.4199219,9.140625 Z M47.4199219,8.22070312 C47.8261719,8.22070312 48.1728516,8.078125 48.4599609,7.79296875 C48.7470703,7.5078125 48.9677734,7.10351562 49.1220703,6.58007812 C49.2763672,6.05664062 49.3535156,5.43554688 49.3535156,4.71679688 L49.3535156,4.70507812 C49.3535156,3.98632812 49.2763672,3.36621094 49.1220703,2.84472656 C48.9677734,2.32324219 48.7470703,1.92089844 48.4599609,1.63769531 C48.1728516,1.35449219 47.8261719,1.21289062 47.4199219,1.21289062 C47.0175781,1.21289062 46.6728516,1.35449219 46.3857422,1.63769531 C46.0986328,1.92089844 45.8789062,2.32324219 45.7265625,2.84472656 C45.5742188,3.36621094 45.4980469,3.98632812 45.4980469,4.70507812 L45.4980469,4.71679688 C45.4980469,5.43554688 45.5742188,6.05664062 45.7265625,6.58007812 C45.8789062,7.10351562 46.0986328,7.5078125 46.3857422,7.79296875 C46.6728516,8.078125 47.0175781,8.22070312 47.4199219,8.22070312 Z" id="Shape"></path>
                    <polygon id="Path" points="51.8964844 11.0917969 52.40625 7.7578125 53.5722656 7.7578125 52.6523438 11.0917969"></polygon>
                    <path d="M60.7617188,0.486328125 L60.2519531,3.8203125 L59.0859375,3.8203125 L60.0058594,0.486328125 L60.7617188,0.486328125 Z M62.7070312,0.486328125 L62.1972656,3.8203125 L61.03125,3.8203125 L61.9511719,0.486328125 L62.7070312,0.486328125 Z" id="Shape"></path>
                    <path d="M66.3339844,9.05273438 C65.9355469,9.05273438 65.5771484,8.9765625 65.2587891,8.82421875 C64.9404297,8.671875 64.6884766,8.45507812 64.5029297,8.17382812 C64.3173828,7.89257812 64.2246094,7.56054688 64.2246094,7.17773438 L64.2246094,7.16601562 C64.2246094,6.79101562 64.3144531,6.46972656 64.4941406,6.20214844 C64.6738281,5.93457031 64.9355469,5.72460938 65.2792969,5.57226562 C65.6230469,5.41992188 66.0390625,5.33007812 66.5273438,5.30273438 L68.8476562,5.16210938 L68.8476562,5.9765625 L66.6503906,6.1171875 C66.1699219,6.14453125 65.8193359,6.24414062 65.5986328,6.41601562 C65.3779297,6.58789062 65.2675781,6.83007812 65.2675781,7.14257812 L65.2675781,7.15429688 C65.2675781,7.47460938 65.3886719,7.72363281 65.6308594,7.90136719 C65.8730469,8.07910156 66.1777344,8.16796875 66.5449219,8.16796875 C66.8925781,8.16796875 67.2011719,8.09863281 67.4707031,7.95996094 C67.7402344,7.82128906 67.9521484,7.6328125 68.1064453,7.39453125 C68.2607422,7.15625 68.3378906,6.88671875 68.3378906,6.5859375 L68.3378906,4.6171875 C68.3378906,4.2265625 68.2197266,3.92871094 67.9833984,3.72363281 C67.7470703,3.51855469 67.3925781,3.41601562 66.9199219,3.41601562 C66.5410156,3.41601562 66.2304688,3.48339844 65.9882812,3.61816406 C65.7460938,3.75292969 65.5839844,3.94335938 65.5019531,4.18945312 L65.4960938,4.20703125 L64.4765625,4.20703125 L64.4824219,4.171875 C64.5371094,3.83984375 64.6748047,3.54980469 64.8955078,3.30175781 C65.1162109,3.05371094 65.4023438,2.86035156 65.7539062,2.72167969 C66.1054688,2.58300781 66.5058594,2.51367188 66.9550781,2.51367188 C67.4707031,2.51367188 67.9072266,2.59765625 68.2646484,2.765625 C68.6220703,2.93359375 68.8935547,3.17480469 69.0791016,3.48925781 C69.2646484,3.80371094 69.3574219,4.1796875 69.3574219,4.6171875 L69.3574219,8.94140625 L68.3378906,8.94140625 L68.3378906,8.00976562 L68.2441406,8.00976562 C68.1113281,8.23242188 67.9501953,8.421875 67.7607422,8.578125 C67.5712891,8.734375 67.3574219,8.85253906 67.1191406,8.93261719 C66.8808594,9.01269531 66.6191406,9.05273438 66.3339844,9.05273438 Z" id="Path"></path>
                    <path d="M71.2148438,3.8203125 L71.7246094,0.486328125 L72.890625,0.486328125 L71.9707031,3.8203125 L71.2148438,3.8203125 Z M73.1601562,3.8203125 L73.6699219,0.486328125 L74.8359375,0.486328125 L73.9160156,3.8203125 L73.1601562,3.8203125 Z" id="Shape"></path>
                    <path d="M77.2792969,11.0507812 L76.4238281,11.0507812 C76.6347656,10.78125 76.8310547,10.4423828 77.0126953,10.0341797 C77.1943359,9.62597656 77.3515625,9.17480469 77.484375,8.68066406 C77.6171875,8.18652344 77.7207031,7.67480469 77.7949219,7.14550781 C77.8691406,6.61621094 77.90625,6.09570312 77.90625,5.58398438 C77.90625,5.07617188 77.8691406,4.55761719 77.7949219,4.02832031 C77.7207031,3.49902344 77.6171875,2.98730469 77.484375,2.49316406 C77.3515625,1.99902344 77.1943359,1.546875 77.0126953,1.13671875 C76.8310547,0.7265625 76.6347656,0.38671875 76.4238281,0.1171875 L77.2792969,0.1171875 C77.6621094,0.62109375 77.9765625,1.15722656 78.2226562,1.72558594 C78.46875,2.29394531 78.6503906,2.89746094 78.7675781,3.53613281 C78.8847656,4.17480469 78.9433594,4.85742188 78.9433594,5.58398438 C78.9433594,6.31054688 78.8837891,6.99414062 78.7646484,7.63476562 C78.6455078,8.27539062 78.4638672,8.87890625 78.2197266,9.4453125 C77.9755859,10.0117188 77.6621094,10.546875 77.2792969,11.0507812 Z" id="Path"></path>
                </g>
                <g id="O-=-del(1)" transform="translate(287.709, 52.1172)">
                    <path d="M3.87890625,9.0234375 C3.0703125,9.0234375 2.37695312,8.84277344 1.79882812,8.48144531 C1.22070312,8.12011719 0.776367188,7.60742188 0.465820312,6.94335938 C0.155273438,6.27929688 0,5.49804688 0,4.59960938 L0,4.58789062 C0,3.68164062 0.157226563,2.8984375 0.471679688,2.23828125 C0.786132812,1.578125 1.23339844,1.06835938 1.81347656,0.708984375 C2.39355469,0.349609375 3.08203125,0.169921875 3.87890625,0.169921875 C4.6796875,0.169921875 5.37011719,0.349609375 5.95019531,0.708984375 C6.53027344,1.06835938 6.9765625,1.57910156 7.2890625,2.24121094 C7.6015625,2.90332031 7.7578125,3.68554688 7.7578125,4.58789062 L7.7578125,4.59960938 C7.7578125,5.49804688 7.60253906,6.27832031 7.29199219,6.94042969 C6.98144531,7.60253906 6.53613281,8.11523438 5.95605469,8.47851562 C5.37597656,8.84179688 4.68359375,9.0234375 3.87890625,9.0234375 Z M3.87890625,8.05078125 C4.45703125,8.05078125 4.95507812,7.90820312 5.37304688,7.62304688 C5.79101562,7.33789062 6.11328125,6.93652344 6.33984375,6.41894531 C6.56640625,5.90136719 6.6796875,5.29492188 6.6796875,4.59960938 L6.6796875,4.58789062 C6.6796875,3.88476562 6.56640625,3.27539062 6.33984375,2.75976562 C6.11328125,2.24414062 5.79101562,1.84570312 5.37304688,1.56445312 C4.95507812,1.28320312 4.45703125,1.14257812 3.87890625,1.14257812 C3.3046875,1.14257812 2.80859375,1.28320312 2.390625,1.56445312 C1.97265625,1.84570312 1.64941406,2.24414062 1.42089844,2.75976562 C1.19238281,3.27539062 1.078125,3.88476562 1.078125,4.58789062 L1.078125,4.59960938 C1.078125,5.29492188 1.18945312,5.90136719 1.41210938,6.41894531 C1.63476562,6.93652344 1.95507812,7.33789062 2.37304688,7.62304688 C2.79101562,7.90820312 3.29296875,8.05078125 3.87890625,8.05078125 Z" id="Shape"></path>
                    <path d="M16.0136719,7.47070312 L16.0136719,6.52148438 L22.0605469,6.52148438 L22.0605469,7.47070312 L16.0136719,7.47070312 Z M16.0136719,4.3125 L16.0136719,3.36328125 L22.0605469,3.36328125 L22.0605469,4.3125 L16.0136719,4.3125 Z" id="Shape"></path>
                    <path d="M29.4726562,8.93554688 C28.9414062,8.93554688 28.4765625,8.80078125 28.078125,8.53125 C27.6796875,8.26171875 27.3710938,7.88183594 27.1523438,7.39160156 C26.9335938,6.90136719 26.8242188,6.328125 26.8242188,5.671875 L26.8242188,5.66015625 C26.8242188,5 26.9335938,4.42578125 27.1523438,3.9375 C27.3710938,3.44921875 27.6787109,3.0703125 28.0751953,2.80078125 C28.4716797,2.53125 28.9375,2.39648438 29.4726562,2.39648438 C29.7617188,2.39648438 30.0341797,2.44238281 30.2900391,2.53417969 C30.5458984,2.62597656 30.7734375,2.75390625 30.9726562,2.91796875 C31.171875,3.08203125 31.328125,3.27734375 31.4414062,3.50390625 L31.5351562,3.50390625 L31.5351562,0 L32.5546875,0 L32.5546875,8.82421875 L31.5351562,8.82421875 L31.5351562,7.81640625 L31.4414062,7.81640625 C31.3125,8.05078125 31.1503906,8.25097656 30.9550781,8.41699219 C30.7597656,8.58300781 30.5371094,8.7109375 30.2871094,8.80078125 C30.0371094,8.890625 29.765625,8.93554688 29.4726562,8.93554688 Z M29.7070312,8.03320312 C30.0898438,8.03320312 30.4199219,7.9375 30.6972656,7.74609375 C30.9746094,7.5546875 31.1875,7.28222656 31.3359375,6.92871094 C31.484375,6.57519531 31.5585938,6.15625 31.5585938,5.671875 L31.5585938,5.66015625 C31.5585938,5.171875 31.484375,4.75195312 31.3359375,4.40039062 C31.1875,4.04882812 30.9746094,3.77734375 30.6972656,3.5859375 C30.4199219,3.39453125 30.0898438,3.29882812 29.7070312,3.29882812 C29.3242188,3.29882812 28.9951172,3.39355469 28.7197266,3.58300781 C28.4443359,3.77246094 28.2333984,4.04296875 28.0869141,4.39453125 C27.9404297,4.74609375 27.8671875,5.16796875 27.8671875,5.66015625 L27.8671875,5.671875 C27.8671875,6.16015625 27.9404297,6.58105469 28.0869141,6.93457031 C28.2333984,7.28808594 28.4443359,7.55957031 28.7197266,7.74902344 C28.9951172,7.93847656 29.3242188,8.03320312 29.7070312,8.03320312 Z" id="Shape"></path>
                    <path d="M37.0898438,8.93554688 C36.4882812,8.93554688 35.9716797,8.80273438 35.5400391,8.53710938 C35.1083984,8.27148438 34.7763672,7.89550781 34.5439453,7.40917969 C34.3115234,6.92285156 34.1953125,6.34960938 34.1953125,5.68945312 L34.1953125,5.68359375 C34.1953125,5.03125 34.3115234,4.45898438 34.5439453,3.96679688 C34.7763672,3.47460938 35.1054688,3.08984375 35.53125,2.8125 C35.9570312,2.53515625 36.4550781,2.39648438 37.0253906,2.39648438 C37.5996094,2.39648438 38.0927734,2.52929688 38.5048828,2.79492188 C38.9169922,3.06054688 39.2333984,3.43066406 39.4541016,3.90527344 C39.6748047,4.37988281 39.7851562,4.93164062 39.7851562,5.56054688 L39.7851562,5.95898438 L34.7226562,5.95898438 L34.7226562,5.14453125 L39.2636719,5.14453125 L38.7597656,5.88867188 L38.7597656,5.484375 C38.7597656,4.98828125 38.6855469,4.58007812 38.5371094,4.25976562 C38.3886719,3.93945312 38.1835938,3.70019531 37.921875,3.54199219 C37.6601562,3.38378906 37.359375,3.3046875 37.0195312,3.3046875 C36.6796875,3.3046875 36.3759766,3.38769531 36.1083984,3.55371094 C35.8408203,3.71972656 35.6289062,3.96484375 35.4726562,4.2890625 C35.3164062,4.61328125 35.2382812,5.01171875 35.2382812,5.484375 L35.2382812,5.88867188 C35.2382812,6.33789062 35.3144531,6.72167969 35.4667969,7.04003906 C35.6191406,7.35839844 35.8359375,7.60253906 36.1171875,7.77246094 C36.3984375,7.94238281 36.7304688,8.02734375 37.1132812,8.02734375 C37.3984375,8.02734375 37.6464844,7.98828125 37.8574219,7.91015625 C38.0683594,7.83203125 38.2421875,7.73242188 38.3789062,7.61132812 C38.515625,7.49023438 38.6113281,7.3671875 38.6660156,7.2421875 L38.6894531,7.18945312 L39.7089844,7.18945312 L39.6972656,7.23632812 C39.6425781,7.45117188 39.5458984,7.65917969 39.4072266,7.86035156 C39.2685547,8.06152344 39.0898438,8.24316406 38.8710938,8.40527344 C38.6523438,8.56738281 38.3935547,8.69628906 38.0947266,8.79199219 C37.7958984,8.88769531 37.4609375,8.93554688 37.0898438,8.93554688 Z" id="Path"></path>
                    <polygon id="Path" points="41.4257812 8.82421875 41.4257812 0 42.4453125 0 42.4453125 8.82421875"></polygon>
                    <path d="M46.5351562,10.9335938 C46.15625,10.4296875 45.84375,9.89453125 45.5976562,9.328125 C45.3515625,8.76171875 45.1689453,8.15820312 45.0498047,7.51757812 C44.9306641,6.87695312 44.8710938,6.19335938 44.8710938,5.46679688 C44.8710938,4.74023438 44.9296875,4.05761719 45.046875,3.41894531 C45.1640625,2.78027344 45.3457031,2.17675781 45.5917969,1.60839844 C45.8378906,1.04003906 46.1523438,0.50390625 46.5351562,0 L47.390625,0 C47.1796875,0.26953125 46.9833984,0.609375 46.8017578,1.01953125 C46.6201172,1.4296875 46.4628906,1.88183594 46.3300781,2.37597656 C46.1972656,2.87011719 46.09375,3.38183594 46.0195312,3.91113281 C45.9453125,4.44042969 45.9082031,4.95898438 45.9082031,5.46679688 C45.9082031,5.97851562 45.9453125,6.49902344 46.0195312,7.02832031 C46.09375,7.55761719 46.1972656,8.06933594 46.3300781,8.56347656 C46.4628906,9.05761719 46.6201172,9.50878906 46.8017578,9.91699219 C46.9833984,10.3251953 47.1796875,10.6640625 47.390625,10.9335938 L46.5351562,10.9335938 Z" id="Path"></path>
                    <polygon id="Path" points="51.046875 8.82421875 51.046875 1.54101562 50.953125 1.54101562 48.8027344 3.09960938 48.8027344 1.98632812 51.0527344 0.369140625 52.1015625 0.369140625 52.1015625 8.82421875"></polygon>
                    <path d="M55.1015625,10.9335938 L54.2460938,10.9335938 C54.4570312,10.6640625 54.6533203,10.3251953 54.8349609,9.91699219 C55.0166016,9.50878906 55.1738281,9.05761719 55.3066406,8.56347656 C55.4394531,8.06933594 55.5429688,7.55761719 55.6171875,7.02832031 C55.6914062,6.49902344 55.7285156,5.97851562 55.7285156,5.46679688 C55.7285156,4.95898438 55.6914062,4.44042969 55.6171875,3.91113281 C55.5429688,3.38183594 55.4394531,2.87011719 55.3066406,2.37597656 C55.1738281,1.88183594 55.0166016,1.4296875 54.8349609,1.01953125 C54.6533203,0.609375 54.4570312,0.26953125 54.2460938,0 L55.1015625,0 C55.484375,0.50390625 55.7988281,1.04003906 56.0449219,1.60839844 C56.2910156,2.17675781 56.4726562,2.78027344 56.5898438,3.41894531 C56.7070312,4.05761719 56.765625,4.74023438 56.765625,5.46679688 C56.765625,6.19335938 56.7060547,6.87695312 56.5869141,7.51757812 C56.4677734,8.15820312 56.2861328,8.76171875 56.0419922,9.328125 C55.7978516,9.89453125 55.484375,10.4296875 55.1015625,10.9335938 Z" id="Path"></path>
                </g>
                <g id="O’-=-del(2)" transform="translate(61.9121, 209.1172)">
                    <path d="M3.87890625,9.0234375 C3.0703125,9.0234375 2.37695312,8.84277344 1.79882812,8.48144531 C1.22070312,8.12011719 0.776367188,7.60742188 0.465820312,6.94335938 C0.155273438,6.27929688 0,5.49804688 0,4.59960938 L0,4.58789062 C0,3.68164062 0.157226563,2.8984375 0.471679688,2.23828125 C0.786132812,1.578125 1.23339844,1.06835938 1.81347656,0.708984375 C2.39355469,0.349609375 3.08203125,0.169921875 3.87890625,0.169921875 C4.6796875,0.169921875 5.37011719,0.349609375 5.95019531,0.708984375 C6.53027344,1.06835938 6.9765625,1.57910156 7.2890625,2.24121094 C7.6015625,2.90332031 7.7578125,3.68554688 7.7578125,4.58789062 L7.7578125,4.59960938 C7.7578125,5.49804688 7.60253906,6.27832031 7.29199219,6.94042969 C6.98144531,7.60253906 6.53613281,8.11523438 5.95605469,8.47851562 C5.37597656,8.84179688 4.68359375,9.0234375 3.87890625,9.0234375 Z M3.87890625,8.05078125 C4.45703125,8.05078125 4.95507812,7.90820312 5.37304688,7.62304688 C5.79101562,7.33789062 6.11328125,6.93652344 6.33984375,6.41894531 C6.56640625,5.90136719 6.6796875,5.29492188 6.6796875,4.59960938 L6.6796875,4.58789062 C6.6796875,3.88476562 6.56640625,3.27539062 6.33984375,2.75976562 C6.11328125,2.24414062 5.79101562,1.84570312 5.37304688,1.56445312 C4.95507812,1.28320312 4.45703125,1.14257812 3.87890625,1.14257812 C3.3046875,1.14257812 2.80859375,1.28320312 2.390625,1.56445312 C1.97265625,1.84570312 1.64941406,2.24414062 1.42089844,2.75976562 C1.19238281,3.27539062 1.078125,3.88476562 1.078125,4.58789062 L1.078125,4.59960938 C1.078125,5.29492188 1.18945312,5.90136719 1.41210938,6.41894531 C1.63476562,6.93652344 1.95507812,7.33789062 2.37304688,7.62304688 C2.79101562,7.90820312 3.29296875,8.05078125 3.87890625,8.05078125 Z" id="Shape"></path>
                    <polygon id="Path" points="9.45117188 3.703125 9.9609375 0.369140625 11.1269531 0.369140625 10.2070312 3.703125"></polygon>
                    <path d="M16.2011719,7.47070312 L16.2011719,6.52148438 L22.2480469,6.52148438 L22.2480469,7.47070312 L16.2011719,7.47070312 Z M16.2011719,4.3125 L16.2011719,3.36328125 L22.2480469,3.36328125 L22.2480469,4.3125 L16.2011719,4.3125 Z" id="Shape"></path>
                    <path d="M29.6601562,8.93554688 C29.1289062,8.93554688 28.6640625,8.80078125 28.265625,8.53125 C27.8671875,8.26171875 27.5585938,7.88183594 27.3398438,7.39160156 C27.1210938,6.90136719 27.0117188,6.328125 27.0117188,5.671875 L27.0117188,5.66015625 C27.0117188,5 27.1210938,4.42578125 27.3398438,3.9375 C27.5585938,3.44921875 27.8662109,3.0703125 28.2626953,2.80078125 C28.6591797,2.53125 29.125,2.39648438 29.6601562,2.39648438 C29.9492188,2.39648438 30.2216797,2.44238281 30.4775391,2.53417969 C30.7333984,2.62597656 30.9609375,2.75390625 31.1601562,2.91796875 C31.359375,3.08203125 31.515625,3.27734375 31.6289062,3.50390625 L31.7226562,3.50390625 L31.7226562,0 L32.7421875,0 L32.7421875,8.82421875 L31.7226562,8.82421875 L31.7226562,7.81640625 L31.6289062,7.81640625 C31.5,8.05078125 31.3378906,8.25097656 31.1425781,8.41699219 C30.9472656,8.58300781 30.7246094,8.7109375 30.4746094,8.80078125 C30.2246094,8.890625 29.953125,8.93554688 29.6601562,8.93554688 Z M29.8945312,8.03320312 C30.2773438,8.03320312 30.6074219,7.9375 30.8847656,7.74609375 C31.1621094,7.5546875 31.375,7.28222656 31.5234375,6.92871094 C31.671875,6.57519531 31.7460938,6.15625 31.7460938,5.671875 L31.7460938,5.66015625 C31.7460938,5.171875 31.671875,4.75195312 31.5234375,4.40039062 C31.375,4.04882812 31.1621094,3.77734375 30.8847656,3.5859375 C30.6074219,3.39453125 30.2773438,3.29882812 29.8945312,3.29882812 C29.5117188,3.29882812 29.1826172,3.39355469 28.9072266,3.58300781 C28.6318359,3.77246094 28.4208984,4.04296875 28.2744141,4.39453125 C28.1279297,4.74609375 28.0546875,5.16796875 28.0546875,5.66015625 L28.0546875,5.671875 C28.0546875,6.16015625 28.1279297,6.58105469 28.2744141,6.93457031 C28.4208984,7.28808594 28.6318359,7.55957031 28.9072266,7.74902344 C29.1826172,7.93847656 29.5117188,8.03320312 29.8945312,8.03320312 Z" id="Shape"></path>
                    <path d="M37.2773438,8.93554688 C36.6757812,8.93554688 36.1591797,8.80273438 35.7275391,8.53710938 C35.2958984,8.27148438 34.9638672,7.89550781 34.7314453,7.40917969 C34.4990234,6.92285156 34.3828125,6.34960938 34.3828125,5.68945312 L34.3828125,5.68359375 C34.3828125,5.03125 34.4990234,4.45898438 34.7314453,3.96679688 C34.9638672,3.47460938 35.2929688,3.08984375 35.71875,2.8125 C36.1445312,2.53515625 36.6425781,2.39648438 37.2128906,2.39648438 C37.7871094,2.39648438 38.2802734,2.52929688 38.6923828,2.79492188 C39.1044922,3.06054688 39.4208984,3.43066406 39.6416016,3.90527344 C39.8623047,4.37988281 39.9726562,4.93164062 39.9726562,5.56054688 L39.9726562,5.95898438 L34.9101562,5.95898438 L34.9101562,5.14453125 L39.4511719,5.14453125 L38.9472656,5.88867188 L38.9472656,5.484375 C38.9472656,4.98828125 38.8730469,4.58007812 38.7246094,4.25976562 C38.5761719,3.93945312 38.3710938,3.70019531 38.109375,3.54199219 C37.8476562,3.38378906 37.546875,3.3046875 37.2070312,3.3046875 C36.8671875,3.3046875 36.5634766,3.38769531 36.2958984,3.55371094 C36.0283203,3.71972656 35.8164062,3.96484375 35.6601562,4.2890625 C35.5039062,4.61328125 35.4257812,5.01171875 35.4257812,5.484375 L35.4257812,5.88867188 C35.4257812,6.33789062 35.5019531,6.72167969 35.6542969,7.04003906 C35.8066406,7.35839844 36.0234375,7.60253906 36.3046875,7.77246094 C36.5859375,7.94238281 36.9179688,8.02734375 37.3007812,8.02734375 C37.5859375,8.02734375 37.8339844,7.98828125 38.0449219,7.91015625 C38.2558594,7.83203125 38.4296875,7.73242188 38.5664062,7.61132812 C38.703125,7.49023438 38.7988281,7.3671875 38.8535156,7.2421875 L38.8769531,7.18945312 L39.8964844,7.18945312 L39.8847656,7.23632812 C39.8300781,7.45117188 39.7333984,7.65917969 39.5947266,7.86035156 C39.4560547,8.06152344 39.2773438,8.24316406 39.0585938,8.40527344 C38.8398438,8.56738281 38.5810547,8.69628906 38.2822266,8.79199219 C37.9833984,8.88769531 37.6484375,8.93554688 37.2773438,8.93554688 Z" id="Path"></path>
                    <polygon id="Path" points="41.6132812 8.82421875 41.6132812 0 42.6328125 0 42.6328125 8.82421875"></polygon>
                    <path d="M46.7226562,10.9335938 C46.34375,10.4296875 46.03125,9.89453125 45.7851562,9.328125 C45.5390625,8.76171875 45.3564453,8.15820312 45.2373047,7.51757812 C45.1181641,6.87695312 45.0585938,6.19335938 45.0585938,5.46679688 C45.0585938,4.74023438 45.1171875,4.05761719 45.234375,3.41894531 C45.3515625,2.78027344 45.5332031,2.17675781 45.7792969,1.60839844 C46.0253906,1.04003906 46.3398438,0.50390625 46.7226562,0 L47.578125,0 C47.3671875,0.26953125 47.1708984,0.609375 46.9892578,1.01953125 C46.8076172,1.4296875 46.6503906,1.88183594 46.5175781,2.37597656 C46.3847656,2.87011719 46.28125,3.38183594 46.2070312,3.91113281 C46.1328125,4.44042969 46.0957031,4.95898438 46.0957031,5.46679688 C46.0957031,5.97851562 46.1328125,6.49902344 46.2070312,7.02832031 C46.28125,7.55761719 46.3847656,8.06933594 46.5175781,8.56347656 C46.6503906,9.05761719 46.8076172,9.50878906 46.9892578,9.91699219 C47.1708984,10.3251953 47.3671875,10.6640625 47.578125,10.9335938 L46.7226562,10.9335938 Z" id="Path"></path>
                    <path d="M49.1660156,8.82421875 L49.1660156,8.09765625 L52.0253906,5.00390625 C52.3847656,4.61328125 52.6660156,4.29003906 52.8691406,4.03417969 C53.0722656,3.77832031 53.2148438,3.546875 53.296875,3.33984375 C53.3789062,3.1328125 53.4199219,2.90625 53.4199219,2.66015625 L53.4199219,2.6484375 C53.4199219,2.3515625 53.3554688,2.0859375 53.2265625,1.8515625 C53.0976562,1.6171875 52.9140625,1.43164062 52.6757812,1.29492188 C52.4375,1.15820312 52.1523438,1.08984375 51.8203125,1.08984375 C51.484375,1.08984375 51.1894531,1.15917969 50.9355469,1.29785156 C50.6816406,1.43652344 50.484375,1.62988281 50.34375,1.87792969 C50.203125,2.12597656 50.1328125,2.41601562 50.1328125,2.74804688 L50.1269531,2.75976562 L49.1191406,2.75390625 L49.1074219,2.74804688 C49.1113281,2.24804688 49.2324219,1.80371094 49.4707031,1.41503906 C49.7089844,1.02636719 50.0371094,0.721679688 50.4550781,0.500976562 C50.8730469,0.280273438 51.3515625,0.169921875 51.890625,0.169921875 C52.3828125,0.169921875 52.8261719,0.272460938 53.2207031,0.477539062 C53.6152344,0.682617188 53.9267578,0.962890625 54.1552734,1.31835938 C54.3837891,1.67382812 54.4980469,2.08007812 54.4980469,2.53710938 L54.4980469,2.54882812 C54.4980469,2.86914062 54.4423828,3.17773438 54.3310547,3.47460938 C54.2197266,3.77148438 54.0234375,4.10058594 53.7421875,4.46191406 C53.4609375,4.82324219 53.0644531,5.26757812 52.5527344,5.79492188 L50.3671875,8.05078125 L50.6308594,7.56445312 L50.6308594,8.05078125 L50.3730469,7.875 L54.6386719,7.875 L54.6386719,8.82421875 L49.1660156,8.82421875 Z" id="Path"></path>
                    <path d="M56.9648438,10.9335938 L56.109375,10.9335938 C56.3203125,10.6640625 56.5166016,10.3251953 56.6982422,9.91699219 C56.8798828,9.50878906 57.0371094,9.05761719 57.1699219,8.56347656 C57.3027344,8.06933594 57.40625,7.55761719 57.4804688,7.02832031 C57.5546875,6.49902344 57.5917969,5.97851562 57.5917969,5.46679688 C57.5917969,4.95898438 57.5546875,4.44042969 57.4804688,3.91113281 C57.40625,3.38183594 57.3027344,2.87011719 57.1699219,2.37597656 C57.0371094,1.88183594 56.8798828,1.4296875 56.6982422,1.01953125 C56.5166016,0.609375 56.3203125,0.26953125 56.109375,0 L56.9648438,0 C57.3476562,0.50390625 57.6621094,1.04003906 57.9082031,1.60839844 C58.1542969,2.17675781 58.3359375,2.78027344 58.453125,3.41894531 C58.5703125,4.05761719 58.6289062,4.74023438 58.6289062,5.46679688 C58.6289062,6.19335938 58.5693359,6.87695312 58.4501953,7.51757812 C58.3310547,8.15820312 58.1494141,8.76171875 57.9052734,9.328125 C57.6611328,9.89453125 57.3476562,10.4296875 56.9648438,10.9335938 Z" id="Path"></path>
                </g>
                <g id="Bob-“xyz”" transform="translate(268.7559, 0.1172)">
                    <path d="M4.63476562,8.82421875 L4.63476562,7.89257812 L7.24804688,7.89257812 C7.88476562,7.89257812 8.3671875,7.765625 8.6953125,7.51171875 C9.0234375,7.2578125 9.1875,6.88867188 9.1875,6.40429688 L9.1875,6.39257812 C9.1875,6.06835938 9.11132812,5.796875 8.95898438,5.578125 C8.80664062,5.359375 8.57910156,5.1953125 8.27636719,5.0859375 C7.97363281,4.9765625 7.59765625,4.921875 7.1484375,4.921875 L4.63476562,4.921875 L4.63476562,4.01367188 L6.84960938,4.01367188 C7.49023438,4.01367188 7.97167969,3.90039062 8.29394531,3.67382812 C8.61621094,3.44726562 8.77734375,3.11132812 8.77734375,2.66601562 L8.77734375,2.65429688 C8.77734375,2.22460938 8.63183594,1.89160156 8.34082031,1.65527344 C8.04980469,1.41894531 7.64257812,1.30078125 7.11914062,1.30078125 L4.63476562,1.30078125 L4.63476562,0.369140625 L7.34179688,0.369140625 C7.86132812,0.369140625 8.30761719,0.455078125 8.68066406,0.626953125 C9.05371094,0.798828125 9.34082031,1.04199219 9.54199219,1.35644531 C9.74316406,1.67089844 9.84375,2.04296875 9.84375,2.47265625 L9.84375,2.484375 C9.84375,2.77734375 9.77832031,3.05273438 9.64746094,3.31054688 C9.51660156,3.56835938 9.34179688,3.78515625 9.12304688,3.9609375 C8.90429688,4.13671875 8.65820312,4.25 8.38476562,4.30078125 L8.38476562,4.39453125 C8.77148438,4.44140625 9.10546875,4.55664062 9.38671875,4.74023438 C9.66796875,4.92382813 9.88574219,5.16113281 10.0400391,5.45214844 C10.1943359,5.74316406 10.2714844,6.07421875 10.2714844,6.4453125 L10.2714844,6.45703125 C10.2714844,6.94921875 10.1572266,7.37207031 9.92871094,7.72558594 C9.70019531,8.07910156 9.37304688,8.35058594 8.94726562,8.54003906 C8.52148438,8.72949219 8.0078125,8.82421875 7.40625,8.82421875 L4.63476562,8.82421875 Z M4.10742188,8.82421875 L4.10742188,0.369140625 L5.16210938,0.369140625 L5.16210938,8.82421875 L4.10742188,8.82421875 Z" id="Shape"></path>
                    <path d="M14.4609375,8.93554688 C13.8632812,8.93554688 13.3466797,8.80371094 12.9111328,8.54003906 C12.4755859,8.27636719 12.1396484,7.90039062 11.9033203,7.41210938 C11.6669922,6.92382812 11.5488281,6.34375 11.5488281,5.671875 L11.5488281,5.66015625 C11.5488281,4.984375 11.6669922,4.40234375 11.9033203,3.9140625 C12.1396484,3.42578125 12.4755859,3.05078125 12.9111328,2.7890625 C13.3466797,2.52734375 13.8632812,2.39648438 14.4609375,2.39648438 C15.0625,2.39648438 15.5800781,2.52734375 16.0136719,2.7890625 C16.4472656,3.05078125 16.7822266,3.42578125 17.0185547,3.9140625 C17.2548828,4.40234375 17.3730469,4.984375 17.3730469,5.66015625 L17.3730469,5.671875 C17.3730469,6.34375 17.2548828,6.92382812 17.0185547,7.41210938 C16.7822266,7.90039062 16.4472656,8.27636719 16.0136719,8.54003906 C15.5800781,8.80371094 15.0625,8.93554688 14.4609375,8.93554688 Z M14.4609375,8.03320312 C14.859375,8.03320312 15.1972656,7.93945312 15.4746094,7.75195312 C15.7519531,7.56445312 15.9638672,7.29492188 16.1103516,6.94335938 C16.2568359,6.59179688 16.3300781,6.16796875 16.3300781,5.671875 L16.3300781,5.66015625 C16.3300781,5.16015625 16.2568359,4.734375 16.1103516,4.3828125 C15.9638672,4.03125 15.7519531,3.76269531 15.4746094,3.57714844 C15.1972656,3.39160156 14.859375,3.29882812 14.4609375,3.29882812 C14.0625,3.29882812 13.7246094,3.39160156 13.4472656,3.57714844 C13.1699219,3.76269531 12.9580078,4.03125 12.8115234,4.3828125 C12.6650391,4.734375 12.5917969,5.16015625 12.5917969,5.66015625 L12.5917969,5.671875 C12.5917969,6.16796875 12.6650391,6.59179688 12.8115234,6.94335938 C12.9580078,7.29492188 13.1699219,7.56445312 13.4472656,7.75195312 C13.7246094,7.93945312 14.0625,8.03320312 14.4609375,8.03320312 Z" id="Shape"></path>
                    <path d="M22.0957031,8.93554688 C21.8027344,8.93554688 21.53125,8.890625 21.28125,8.80078125 C21.03125,8.7109375 20.8085938,8.58300781 20.6132812,8.41699219 C20.4179688,8.25097656 20.2558594,8.05078125 20.1269531,7.81640625 L20.0332031,7.81640625 L20.0332031,8.82421875 L19.0136719,8.82421875 L19.0136719,0 L20.0332031,0 L20.0332031,3.50390625 L20.1269531,3.50390625 C20.2441406,3.27734375 20.4013672,3.08203125 20.5986328,2.91796875 C20.7958984,2.75390625 21.0224609,2.62597656 21.2783203,2.53417969 C21.5341797,2.44238281 21.8066406,2.39648438 22.0957031,2.39648438 C22.6308594,2.39648438 23.0966797,2.53125 23.4931641,2.80078125 C23.8896484,3.0703125 24.1972656,3.44921875 24.4160156,3.9375 C24.6347656,4.42578125 24.7441406,5 24.7441406,5.66015625 L24.7441406,5.671875 C24.7441406,6.328125 24.6347656,6.90136719 24.4160156,7.39160156 C24.1972656,7.88183594 23.8896484,8.26171875 23.4931641,8.53125 C23.0966797,8.80078125 22.6308594,8.93554688 22.0957031,8.93554688 Z M21.8613281,8.03320312 C22.2480469,8.03320312 22.578125,7.93847656 22.8515625,7.74902344 C23.125,7.55957031 23.3349609,7.28808594 23.4814453,6.93457031 C23.6279297,6.58105469 23.7011719,6.16015625 23.7011719,5.671875 L23.7011719,5.66015625 C23.7011719,5.16796875 23.6279297,4.74609375 23.4814453,4.39453125 C23.3349609,4.04296875 23.125,3.77246094 22.8515625,3.58300781 C22.578125,3.39355469 22.2480469,3.29882812 21.8613281,3.29882812 C21.4785156,3.29882812 21.1484375,3.39453125 20.8710938,3.5859375 C20.59375,3.77734375 20.3808594,4.04882812 20.2324219,4.40039062 C20.0839844,4.75195312 20.0097656,5.171875 20.0097656,5.66015625 L20.0097656,5.671875 C20.0097656,6.15625 20.0839844,6.57519531 20.2324219,6.92871094 C20.3808594,7.28222656 20.59375,7.5546875 20.8710938,7.74609375 C21.1484375,7.9375 21.4785156,8.03320312 21.8613281,8.03320312 Z" id="Shape"></path>
                    <path d="M1.67578125,14.3691406 L1.16601562,17.703125 L0,17.703125 L0.919921875,14.3691406 L1.67578125,14.3691406 Z M3.62109375,14.3691406 L3.11132812,17.703125 L1.9453125,17.703125 L2.86523438,14.3691406 L3.62109375,14.3691406 Z" id="Shape"></path>
                    <polygon id="Path" points="5.00976562 22.8242188 7.171875 19.6660156 4.98632812 16.5078125 6.1875 16.5078125 7.6875 18.8574219 7.78125 18.8574219 9.26367188 16.5078125 10.40625 16.5078125 8.26171875 19.625 10.4355469 22.8242188 9.24023438 22.8242188 7.74609375 20.4394531 7.65234375 20.4394531 6.15234375 22.8242188"></polygon>
                    <path d="M12.3457031,25.0390625 C12.2792969,25.0390625 12.2050781,25.0361328 12.1230469,25.0302734 C12.0410156,25.0244141 11.9648438,25.015625 11.8945312,25.0039062 L11.8945312,24.1660156 C11.9570312,24.1777344 12.0253906,24.1855469 12.0996094,24.1894531 C12.1738281,24.1933594 12.2460938,24.1953125 12.3164062,24.1953125 C12.6054688,24.1953125 12.8427734,24.1210938 13.0283203,23.9726562 C13.2138672,23.8242188 13.3632812,23.5683594 13.4765625,23.2050781 L13.59375,22.8300781 L11.2558594,16.5078125 L12.3457031,16.5078125 L14.2910156,22.34375 L13.8867188,21.7050781 L14.3671875,21.7050781 L13.9628906,22.34375 L15.9023438,16.5078125 L16.9746094,16.5078125 L14.5078125,23.2109375 C14.3359375,23.6835938 14.1542969,24.0527344 13.9628906,24.3183594 C13.7714844,24.5839844 13.5478516,24.7705078 13.2919922,24.8779297 C13.0361328,24.9853516 12.7207031,25.0390625 12.3457031,25.0390625 Z" id="Path"></path>
                    <polygon id="Path" points="18.1757812 22.8242188 18.1757812 22.0859375 21.8203125 17.4453125 21.8203125 17.3515625 18.1816406 17.3515625 18.1816406 16.5078125 23.0214844 16.5078125 23.0214844 17.2636719 19.3945312 21.8867188 19.3945312 21.9804688 23.0390625 21.9804688 23.0390625 22.8242188"></polygon>
                    <path d="M24.7851562,17.703125 L25.2949219,14.3691406 L26.4609375,14.3691406 L25.5410156,17.703125 L24.7851562,17.703125 Z M26.7304688,17.703125 L27.2402344,14.3691406 L28.40625,14.3691406 L27.4863281,17.703125 L26.7304688,17.703125 Z" id="Shape"></path>
                </g>
                <g id="1-copy" transform="translate(50.4707, 81.3047)">
                    <polygon id="Path" points="1.49609375 5.63671875 1.49609375 0.78125 1.43359375 0.78125 0 1.8203125 0 1.078125 1.5 0 2.19921875 0 2.19921875 5.63671875"></polygon>
                </g>
                <g id="2" transform="translate(296.5488, 59.1719)">
                    <path d="M0.0390625,5.76953125 L0.0390625,5.28515625 L1.9453125,3.22265625 C2.18489583,2.96223958 2.37239583,2.74674479 2.5078125,2.57617188 C2.64322917,2.40559896 2.73828125,2.25130208 2.79296875,2.11328125 C2.84765625,1.97526042 2.875,1.82421875 2.875,1.66015625 L2.875,1.65234375 C2.875,1.45442708 2.83203125,1.27734375 2.74609375,1.12109375 C2.66015625,0.96484375 2.53776042,0.841145833 2.37890625,0.75 C2.22005208,0.658854167 2.02994792,0.61328125 1.80859375,0.61328125 C1.58463542,0.61328125 1.38802083,0.659505208 1.21875,0.751953125 C1.04947917,0.844401042 0.91796875,0.973307292 0.82421875,1.13867188 C0.73046875,1.30403646 0.68359375,1.49739583 0.68359375,1.71875 L0.6796875,1.7265625 L0.0078125,1.72265625 L0,1.71875 C0.00260416667,1.38541667 0.0833333333,1.08919271 0.2421875,0.830078125 C0.401041667,0.570963542 0.619791667,0.367838542 0.8984375,0.220703125 C1.17708333,0.0735677083 1.49609375,0 1.85546875,0 C2.18359375,0 2.47916667,0.068359375 2.7421875,0.205078125 C3.00520833,0.341796875 3.21289062,0.528645833 3.36523438,0.765625 C3.51757812,1.00260417 3.59375,1.2734375 3.59375,1.578125 L3.59375,1.5859375 C3.59375,1.79947917 3.55664062,2.00520833 3.48242188,2.203125 C3.40820312,2.40104167 3.27734375,2.62044271 3.08984375,2.86132812 C2.90234375,3.10221354 2.63802083,3.3984375 2.296875,3.75 L0.83984375,5.25390625 L1.015625,4.9296875 L1.015625,5.25390625 L0.84375,5.13671875 L3.6875,5.13671875 L3.6875,5.76953125 L0.0390625,5.76953125 Z" id="Path"></path>
                </g>
                <g id="2" transform="translate(70.5488, 216.1719)">
                    <path d="M0.0390625,5.76953125 L0.0390625,5.28515625 L1.9453125,3.22265625 C2.18489583,2.96223958 2.37239583,2.74674479 2.5078125,2.57617188 C2.64322917,2.40559896 2.73828125,2.25130208 2.79296875,2.11328125 C2.84765625,1.97526042 2.875,1.82421875 2.875,1.66015625 L2.875,1.65234375 C2.875,1.45442708 2.83203125,1.27734375 2.74609375,1.12109375 C2.66015625,0.96484375 2.53776042,0.841145833 2.37890625,0.75 C2.22005208,0.658854167 2.02994792,0.61328125 1.80859375,0.61328125 C1.58463542,0.61328125 1.38802083,0.659505208 1.21875,0.751953125 C1.04947917,0.844401042 0.91796875,0.973307292 0.82421875,1.13867188 C0.73046875,1.30403646 0.68359375,1.49739583 0.68359375,1.71875 L0.6796875,1.7265625 L0.0078125,1.72265625 L0,1.71875 C0.00260416667,1.38541667 0.0833333333,1.08919271 0.2421875,0.830078125 C0.401041667,0.570963542 0.619791667,0.367838542 0.8984375,0.220703125 C1.17708333,0.0735677083 1.49609375,0 1.85546875,0 C2.18359375,0 2.47916667,0.068359375 2.7421875,0.205078125 C3.00520833,0.341796875 3.21289062,0.528645833 3.36523438,0.765625 C3.51757812,1.00260417 3.59375,1.2734375 3.59375,1.578125 L3.59375,1.5859375 C3.59375,1.79947917 3.55664062,2.00520833 3.48242188,2.203125 C3.40820312,2.40104167 3.27734375,2.62044271 3.08984375,2.86132812 C2.90234375,3.10221354 2.63802083,3.3984375 2.296875,3.75 L0.83984375,5.25390625 L1.015625,4.9296875 L1.015625,5.25390625 L0.84375,5.13671875 L3.6875,5.13671875 L3.6875,5.76953125 L0.0390625,5.76953125 Z" id="Path"></path>
                </g>
                <g id="O’-=-ins(0,-“a”)" transform="translate(287.709, 167)">
                    <path d="M3.87890625,9.140625 C3.0703125,9.140625 2.37695312,8.95996094 1.79882812,8.59863281 C1.22070312,8.23730469 0.776367188,7.72460938 0.465820312,7.06054688 C0.155273438,6.39648438 0,5.61523438 0,4.71679688 L0,4.70507812 C0,3.79882812 0.157226563,3.015625 0.471679688,2.35546875 C0.786132812,1.6953125 1.23339844,1.18554688 1.81347656,0.826171875 C2.39355469,0.466796875 3.08203125,0.287109375 3.87890625,0.287109375 C4.6796875,0.287109375 5.37011719,0.466796875 5.95019531,0.826171875 C6.53027344,1.18554688 6.9765625,1.69628906 7.2890625,2.35839844 C7.6015625,3.02050781 7.7578125,3.80273438 7.7578125,4.70507812 L7.7578125,4.71679688 C7.7578125,5.61523438 7.60253906,6.39550781 7.29199219,7.05761719 C6.98144531,7.71972656 6.53613281,8.23242188 5.95605469,8.59570312 C5.37597656,8.95898438 4.68359375,9.140625 3.87890625,9.140625 Z M3.87890625,8.16796875 C4.45703125,8.16796875 4.95507812,8.02539062 5.37304688,7.74023438 C5.79101562,7.45507812 6.11328125,7.05371094 6.33984375,6.53613281 C6.56640625,6.01855469 6.6796875,5.41210938 6.6796875,4.71679688 L6.6796875,4.70507812 C6.6796875,4.00195312 6.56640625,3.39257812 6.33984375,2.87695312 C6.11328125,2.36132812 5.79101562,1.96289062 5.37304688,1.68164062 C4.95507812,1.40039062 4.45703125,1.25976562 3.87890625,1.25976562 C3.3046875,1.25976562 2.80859375,1.40039062 2.390625,1.68164062 C1.97265625,1.96289062 1.64941406,2.36132812 1.42089844,2.87695312 C1.19238281,3.39257812 1.078125,4.00195312 1.078125,4.70507812 L1.078125,4.71679688 C1.078125,5.41210938 1.18945312,6.01855469 1.41210938,6.53613281 C1.63476562,7.05371094 1.95507812,7.45507812 2.37304688,7.74023438 C2.79101562,8.02539062 3.29296875,8.16796875 3.87890625,8.16796875 Z" id="Shape"></path>
                    <polygon id="Path" points="9.45117188 3.8203125 9.9609375 0.486328125 11.1269531 0.486328125 10.2070312 3.8203125"></polygon>
                    <path d="M16.2011719,7.58789062 L16.2011719,6.63867188 L22.2480469,6.63867188 L22.2480469,7.58789062 L16.2011719,7.58789062 Z M16.2011719,4.4296875 L16.2011719,3.48046875 L22.2480469,3.48046875 L22.2480469,4.4296875 L16.2011719,4.4296875 Z" id="Shape"></path>
                    <path d="M27.3515625,8.94140625 L27.3515625,2.625 L28.3710938,2.625 L28.3710938,8.94140625 L27.3515625,8.94140625 Z M27.8671875,1.40625 C27.6757812,1.40625 27.5107422,1.33691406 27.3720703,1.19824219 C27.2333984,1.05957031 27.1640625,0.89453125 27.1640625,0.703125 C27.1640625,0.5078125 27.2333984,0.341796875 27.3720703,0.205078125 C27.5107422,0.068359375 27.6757812,0 27.8671875,0 C28.0625,0 28.2285156,0.068359375 28.3652344,0.205078125 C28.5019531,0.341796875 28.5703125,0.5078125 28.5703125,0.703125 C28.5703125,0.89453125 28.5019531,1.05957031 28.3652344,1.19824219 C28.2285156,1.33691406 28.0625,1.40625 27.8671875,1.40625 Z" id="Shape"></path>
                    <path d="M30.2929688,8.94140625 L30.2929688,2.625 L31.3125,2.625 L31.3125,3.57421875 L31.40625,3.57421875 C31.5664062,3.23828125 31.796875,2.97753906 32.0976562,2.79199219 C32.3984375,2.60644531 32.78125,2.51367188 33.2460938,2.51367188 C33.9570312,2.51367188 34.5029297,2.71582031 34.8837891,3.12011719 C35.2646484,3.52441406 35.4550781,4.1015625 35.4550781,4.8515625 L35.4550781,8.94140625 L34.4355469,8.94140625 L34.4355469,5.09765625 C34.4355469,4.52734375 34.3154297,4.10449219 34.0751953,3.82910156 C33.8349609,3.55371094 33.4628906,3.41601562 32.9589844,3.41601562 C32.6230469,3.41601562 32.3320312,3.48828125 32.0859375,3.6328125 C31.8398438,3.77734375 31.6494141,3.98242188 31.5146484,4.24804688 C31.3798828,4.51367188 31.3125,4.83203125 31.3125,5.203125 L31.3125,8.94140625 L30.2929688,8.94140625 Z" id="Path"></path>
                    <path d="M39.4628906,9.05273438 C38.9941406,9.05273438 38.5800781,8.98144531 38.2207031,8.83886719 C37.8613281,8.69628906 37.5732422,8.49609375 37.3564453,8.23828125 C37.1396484,7.98046875 37.0117188,7.67773438 36.9726562,7.33007812 L36.9726562,7.33007812 L38.015625,7.33007812 L38.015625,7.33007812 C38.1015625,7.59179688 38.2695312,7.80273438 38.5195312,7.96289062 C38.7695312,8.12304688 39.0957031,8.203125 39.4980469,8.203125 C39.7832031,8.203125 40.0341797,8.16113281 40.2509766,8.07714844 C40.4677734,7.99316406 40.6386719,7.87792969 40.7636719,7.73144531 C40.8886719,7.58496094 40.9511719,7.41601562 40.9511719,7.22460938 L40.9511719,7.21289062 C40.9511719,6.99804688 40.8652344,6.81542969 40.6933594,6.66503906 C40.5214844,6.51464844 40.2402344,6.39257812 39.8496094,6.29882812 L38.8710938,6.06445312 C38.4765625,5.97070312 38.1523438,5.84863281 37.8984375,5.69824219 C37.6445312,5.54785156 37.4570312,5.36230469 37.3359375,5.14160156 C37.2148438,4.92089844 37.1542969,4.66015625 37.1542969,4.359375 L37.1542969,4.35351562 C37.1542969,4.00195312 37.2568359,3.6875 37.4619141,3.41015625 C37.6669922,3.1328125 37.9472656,2.9140625 38.3027344,2.75390625 C38.6582031,2.59375 39.0585938,2.51367188 39.5039062,2.51367188 C39.9453125,2.51367188 40.3369141,2.58300781 40.6787109,2.72167969 C41.0205078,2.86035156 41.2958984,3.05664062 41.5048828,3.31054688 C41.7138672,3.56445312 41.8417969,3.86328125 41.8886719,4.20703125 L41.8886719,4.20703125 L40.8867188,4.20703125 L40.8867188,4.20703125 C40.8203125,3.95703125 40.6679688,3.75390625 40.4296875,3.59765625 C40.1914062,3.44140625 39.8808594,3.36328125 39.4980469,3.36328125 C39.2480469,3.36328125 39.0253906,3.40332031 38.8300781,3.48339844 C38.6347656,3.56347656 38.4804688,3.67382812 38.3671875,3.81445312 C38.2539062,3.95507812 38.1972656,4.11914062 38.1972656,4.30664062 L38.1972656,4.31835938 C38.1972656,4.45898438 38.234375,4.58398438 38.3085938,4.69335938 C38.3828125,4.80273438 38.4980469,4.8984375 38.6542969,4.98046875 C38.8105469,5.0625 39.0117188,5.13476562 39.2578125,5.19726562 L40.2304688,5.43164062 C40.8242188,5.57617188 41.2666016,5.78320312 41.5576172,6.05273438 C41.8486328,6.32226562 41.9941406,6.68359375 41.9941406,7.13671875 L41.9941406,7.1484375 C41.9941406,7.5234375 41.8828125,7.85449219 41.6601562,8.14160156 C41.4375,8.42871094 41.1357422,8.65234375 40.7548828,8.8125 C40.3740234,8.97265625 39.9433594,9.05273438 39.4628906,9.05273438 Z" id="Path"></path>
                    <path d="M45.7089844,11.0507812 C45.3300781,10.546875 45.0175781,10.0117188 44.7714844,9.4453125 C44.5253906,8.87890625 44.3427734,8.27539062 44.2236328,7.63476562 C44.1044922,6.99414062 44.0449219,6.31054688 44.0449219,5.58398438 C44.0449219,4.85742188 44.1035156,4.17480469 44.2207031,3.53613281 C44.3378906,2.89746094 44.5195312,2.29394531 44.765625,1.72558594 C45.0117188,1.15722656 45.3261719,0.62109375 45.7089844,0.1171875 L46.5644531,0.1171875 C46.3535156,0.38671875 46.1572266,0.7265625 45.9755859,1.13671875 C45.7939453,1.546875 45.6367188,1.99902344 45.5039062,2.49316406 C45.3710938,2.98730469 45.2675781,3.49902344 45.1933594,4.02832031 C45.1191406,4.55761719 45.0820312,5.07617188 45.0820312,5.58398438 C45.0820312,6.09570312 45.1191406,6.61621094 45.1933594,7.14550781 C45.2675781,7.67480469 45.3710938,8.18652344 45.5039062,8.68066406 C45.6367188,9.17480469 45.7939453,9.62597656 45.9755859,10.0341797 C46.1572266,10.4423828 46.3535156,10.78125 46.5644531,11.0507812 L45.7089844,11.0507812 Z" id="Path"></path>
                    <path d="M50.9824219,9.140625 C50.3574219,9.140625 49.8232422,8.9609375 49.3798828,8.6015625 C48.9365234,8.2421875 48.5957031,7.73144531 48.3574219,7.06933594 C48.1191406,6.40722656 48,5.62304688 48,4.71679688 L48,4.70507812 C48,3.79882812 48.1191406,3.015625 48.3574219,2.35546875 C48.5957031,1.6953125 48.9365234,1.18554688 49.3798828,0.826171875 C49.8232422,0.466796875 50.3574219,0.287109375 50.9824219,0.287109375 C51.6074219,0.287109375 52.1425781,0.466796875 52.5878906,0.826171875 C53.0332031,1.18554688 53.3759766,1.6953125 53.6162109,2.35546875 C53.8564453,3.015625 53.9765625,3.79882812 53.9765625,4.70507812 L53.9765625,4.71679688 C53.9765625,5.62304688 53.8564453,6.40722656 53.6162109,7.06933594 C53.3759766,7.73144531 53.0332031,8.2421875 52.5878906,8.6015625 C52.1425781,8.9609375 51.6074219,9.140625 50.9824219,9.140625 Z M50.9824219,8.22070312 C51.3886719,8.22070312 51.7353516,8.078125 52.0224609,7.79296875 C52.3095703,7.5078125 52.5302734,7.10351562 52.6845703,6.58007812 C52.8388672,6.05664062 52.9160156,5.43554688 52.9160156,4.71679688 L52.9160156,4.70507812 C52.9160156,3.98632812 52.8388672,3.36621094 52.6845703,2.84472656 C52.5302734,2.32324219 52.3095703,1.92089844 52.0224609,1.63769531 C51.7353516,1.35449219 51.3886719,1.21289062 50.9824219,1.21289062 C50.5800781,1.21289062 50.2353516,1.35449219 49.9482422,1.63769531 C49.6611328,1.92089844 49.4414062,2.32324219 49.2890625,2.84472656 C49.1367188,3.36621094 49.0605469,3.98632812 49.0605469,4.70507812 L49.0605469,4.71679688 C49.0605469,5.43554688 49.1367188,6.05664062 49.2890625,6.58007812 C49.4414062,7.10351562 49.6611328,7.5078125 49.9482422,7.79296875 C50.2353516,8.078125 50.5800781,8.22070312 50.9824219,8.22070312 Z" id="Shape"></path>
                    <polygon id="Path" points="55.4589844 11.0917969 55.96875 7.7578125 57.1347656 7.7578125 56.2148438 11.0917969"></polygon>
                    <path d="M64.3242188,0.486328125 L63.8144531,3.8203125 L62.6484375,3.8203125 L63.5683594,0.486328125 L64.3242188,0.486328125 Z M66.2695312,0.486328125 L65.7597656,3.8203125 L64.59375,3.8203125 L65.5136719,0.486328125 L66.2695312,0.486328125 Z" id="Shape"></path>
                    <path d="M69.8964844,9.05273438 C69.4980469,9.05273438 69.1396484,8.9765625 68.8212891,8.82421875 C68.5029297,8.671875 68.2509766,8.45507812 68.0654297,8.17382812 C67.8798828,7.89257812 67.7871094,7.56054688 67.7871094,7.17773438 L67.7871094,7.16601562 C67.7871094,6.79101562 67.8769531,6.46972656 68.0566406,6.20214844 C68.2363281,5.93457031 68.4980469,5.72460938 68.8417969,5.57226562 C69.1855469,5.41992188 69.6015625,5.33007812 70.0898438,5.30273438 L72.4101562,5.16210938 L72.4101562,5.9765625 L70.2128906,6.1171875 C69.7324219,6.14453125 69.3818359,6.24414062 69.1611328,6.41601562 C68.9404297,6.58789062 68.8300781,6.83007812 68.8300781,7.14257812 L68.8300781,7.15429688 C68.8300781,7.47460938 68.9511719,7.72363281 69.1933594,7.90136719 C69.4355469,8.07910156 69.7402344,8.16796875 70.1074219,8.16796875 C70.4550781,8.16796875 70.7636719,8.09863281 71.0332031,7.95996094 C71.3027344,7.82128906 71.5146484,7.6328125 71.6689453,7.39453125 C71.8232422,7.15625 71.9003906,6.88671875 71.9003906,6.5859375 L71.9003906,4.6171875 C71.9003906,4.2265625 71.7822266,3.92871094 71.5458984,3.72363281 C71.3095703,3.51855469 70.9550781,3.41601562 70.4824219,3.41601562 C70.1035156,3.41601562 69.7929688,3.48339844 69.5507812,3.61816406 C69.3085938,3.75292969 69.1464844,3.94335938 69.0644531,4.18945312 L69.0585938,4.20703125 L68.0390625,4.20703125 L68.0449219,4.171875 C68.0996094,3.83984375 68.2373047,3.54980469 68.4580078,3.30175781 C68.6787109,3.05371094 68.9648438,2.86035156 69.3164062,2.72167969 C69.6679688,2.58300781 70.0683594,2.51367188 70.5175781,2.51367188 C71.0332031,2.51367188 71.4697266,2.59765625 71.8271484,2.765625 C72.1845703,2.93359375 72.4560547,3.17480469 72.6416016,3.48925781 C72.8271484,3.80371094 72.9199219,4.1796875 72.9199219,4.6171875 L72.9199219,8.94140625 L71.9003906,8.94140625 L71.9003906,8.00976562 L71.8066406,8.00976562 C71.6738281,8.23242188 71.5126953,8.421875 71.3232422,8.578125 C71.1337891,8.734375 70.9199219,8.85253906 70.6816406,8.93261719 C70.4433594,9.01269531 70.1816406,9.05273438 69.8964844,9.05273438 Z" id="Path"></path>
                    <path d="M74.7773438,3.8203125 L75.2871094,0.486328125 L76.453125,0.486328125 L75.5332031,3.8203125 L74.7773438,3.8203125 Z M76.7226562,3.8203125 L77.2324219,0.486328125 L78.3984375,0.486328125 L77.4785156,3.8203125 L76.7226562,3.8203125 Z" id="Shape"></path>
                    <path d="M80.8417969,11.0507812 L79.9863281,11.0507812 C80.1972656,10.78125 80.3935547,10.4423828 80.5751953,10.0341797 C80.7568359,9.62597656 80.9140625,9.17480469 81.046875,8.68066406 C81.1796875,8.18652344 81.2832031,7.67480469 81.3574219,7.14550781 C81.4316406,6.61621094 81.46875,6.09570312 81.46875,5.58398438 C81.46875,5.07617188 81.4316406,4.55761719 81.3574219,4.02832031 C81.2832031,3.49902344 81.1796875,2.98730469 81.046875,2.49316406 C80.9140625,1.99902344 80.7568359,1.546875 80.5751953,1.13671875 C80.3935547,0.7265625 80.1972656,0.38671875 79.9863281,0.1171875 L80.8417969,0.1171875 C81.2246094,0.62109375 81.5390625,1.15722656 81.7851562,1.72558594 C82.03125,2.29394531 82.2128906,2.89746094 82.3300781,3.53613281 C82.4472656,4.17480469 82.5058594,4.85742188 82.5058594,5.58398438 C82.5058594,6.31054688 82.4462891,6.99414062 82.3271484,7.63476562 C82.2080078,8.27539062 82.0263672,8.87890625 81.7822266,9.4453125 C81.5380859,10.0117188 81.2246094,10.546875 80.8417969,11.0507812 Z" id="Path"></path>
                </g>
                <g id="1" transform="translate(296.4707, 173.3047)">
                    <polygon id="Path" points="1.49609375 5.63671875 1.49609375 0.78125 1.43359375 0.78125 0 1.8203125 0 1.078125 1.5 0 2.19921875 0 2.19921875 5.63671875"></polygon>
                </g>
            </g>
            <line x1="312" y1="32.5" x2="312" y2="255" id="Path-Copy" stroke="#000000" stroke-width="2"></line>
            <circle id="Oval" fill="#000000" cx="155" cy="81" r="3"></circle>
            <circle id="Oval-Copy" fill="#000000" cx="312" cy="59" r="3"></circle>
        </g>
    </g>
</svg>