<?xml version="1.0" encoding="UTF-8"?>
<svg width="512px" height="320px" viewBox="0 0 512 320" version="1.1" xmlns="http://www.w3.org/2000/svg" xmlns:xlink="http://www.w3.org/1999/xlink">
    <title>ot-puzzle</title>
    <g id="ot-puzzle" stroke="none" stroke-width="1" fill="none" fill-rule="evenodd">
        <g id="Group" transform="translate(26, 38)">
            <line x1="135" y1="18.5" x2="135" y2="241" id="Path" stroke="#000000" stroke-width="2"></line>
            <path id="Path-Copy-2" d="M41.5,18.5 L41.5,239.591 L45.0642122,233.254869 L45.9357878,233.745131 L41.4357878,241.745131 L41,242.519864 L40.5642122,241.745131 L36.0642122,233.745131 L36.9357878,233.254869 L40.5,239.591 L40.5,18.5 L41.5,18.5 Z" fill="#000000" fill-rule="nonzero"></path>
            <path id="Path-Copy-8" d="M136.580055,30.2865187 C138.748824,31.0998069 139.920429,33.4081358 139.36335,35.602159 L252.209162,77.9194355 L257.856,80.036 L253.175048,74.4750626 L253.940125,73.8311232 L259.850703,80.853592 L260.423093,81.53366 L259.544672,81.6696736 L250.473983,83.0741674 L250.320968,82.0859436 L257.505,80.973 L251.858038,78.8557646 L139.011844,36.539287 C137.988736,38.5581891 135.588488,39.526685 133.419945,38.7134813 C131.092903,37.8408407 129.913878,35.246986 130.786519,32.9199445 C131.659159,30.592903 134.253014,29.4138782 136.580055,30.2865187 Z" fill="#000000" fill-rule="nonzero"></path>
            <path id="Path-Copy-9" d="M267.287712,115.634156 C268.042046,118.002194 266.733881,120.533377 264.365844,121.287712 C262.15889,121.990733 259.810231,120.902311 258.890283,118.834066 L146.262068,154.711436 L140.493,156.548 L147.613326,158.021674 L147.410734,159.000937 L138.422292,157.141392 L137.551835,156.96131 L138.15775,156.310933 L144.414505,149.595055 L145.14618,150.276709 L140.191,155.595 L145.958547,153.758611 L258.586603,117.880631 C258.140951,115.661457 259.427304,113.415277 261.634156,112.712288 C264.002194,111.957954 266.533377,113.266119 267.287712,115.634156 Z" fill="#000000" fill-rule="nonzero"></path>
            <path id="Path-Copy-10" d="M264.75447,112.856109 C266.887215,113.759085 267.961493,116.11392 267.313754,118.282619 L380.347333,166.140379 L385.897,168.49 L381.452347,162.737721 L382.243623,162.126262 L387.85607,169.389212 L388.39959,170.092568 L387.516259,170.191815 L378.394871,171.216648 L378.283218,170.222901 L385.508,169.411 L379.957451,167.061243 L266.923685,119.204149 C265.817432,121.179132 263.378524,122.046973 261.24553,121.143891 C258.956922,120.174924 257.887142,117.534138 258.856109,115.24553 C259.825076,112.956922 262.465862,111.887142 264.75447,112.856109 Z" fill="#000000" fill-rule="nonzero"></path>
            <path id="Path-Copy-5" d="M135.984488,30.109011 C138.244545,30.6157302 139.722977,32.7405029 139.473613,34.9902673 L379.82442,88.8787764 L385.735,90.204 L380.331641,85.3398008 L381.000705,84.5965959 L387.82242,90.737785 L388.483046,91.3325084 L387.631741,91.5882469 L378.84105,94.2290357 L378.553345,93.2713169 L385.517,91.179 L379.605645,89.8545518 L139.254628,35.9668741 C138.519513,38.1076267 136.2755,39.3976925 134.015512,38.890989 C131.590436,38.3472715 130.065294,35.9405886 130.609011,33.5155124 C131.152729,31.0904361 133.559411,29.5652935 135.984488,30.109011 Z" fill="#000000" fill-rule="nonzero"></path>
            <path id="Path-Copy-6" d="M393.700871,30.9006535 C395.688735,32.3923035 396.090996,35.213007 394.599346,37.2008712 C393.209222,39.0534357 390.664806,39.528893 388.715921,38.3777005 L271.863127,194.102164 L268.245,198.923 L274.899357,195.994334 L275.30224,196.909586 L266.901344,200.607553 L266.087787,200.965671 L266.20421,200.084439 L267.406413,190.98473 L268.397798,191.115706 L267.445,198.323 L271.063272,193.50197 L387.91549,37.7770991 C386.265293,36.2277169 386.010494,33.6517409 387.400654,31.7991288 C388.892304,29.8112647 391.713007,29.4090036 393.700871,30.9006535 Z" fill="#000000" fill-rule="nonzero"></path>
            <path id="Path-Copy-7" d="M394.627449,31.8369917 C396.098188,33.8403766 395.666393,36.6567102 393.663008,38.1274491 C391.796124,39.4979795 389.223296,39.2164013 387.691234,37.5505164 L145.291268,215.501681 L140.431,219.069 L147.648466,218.19275 L147.769047,219.185454 L138.657241,220.292242 L137.774838,220.399425 L138.14146,219.589665 L141.92725,211.227979 L142.83823,211.640429 L139.84,218.262 L144.699488,214.695581 L387.098721,36.7435678 C385.967829,34.7826934 386.469885,32.2432442 388.336992,30.8725509 C390.340377,29.401812 393.15671,29.8336069 394.627449,31.8369917 Z" fill="#000000" fill-rule="nonzero"></path>
            <g id="texts-outlined" transform="translate(29.041, 2.0586)" fill="#000000" fill-rule="nonzero">
                <g id="time">
                    <path d="M2.84179688,8.98828125 C2.19335938,8.98828125 1.72363281,8.85742188 1.43261719,8.59570312 C1.14160156,8.33398438 0.99609375,7.90234375 0.99609375,7.30078125 L0.99609375,3.46875 L0,3.46875 L0,2.625 L0.99609375,2.625 L0.99609375,0.990234375 L2.05078125,0.990234375 L2.05078125,2.625 L3.43359375,2.625 L3.43359375,3.46875 L2.05078125,3.46875 L2.05078125,7.04296875 C2.05078125,7.4140625 2.12109375,7.68066406 2.26171875,7.84277344 C2.40234375,8.00488281 2.63671875,8.0859375 2.96484375,8.0859375 C3.0546875,8.0859375 3.13183594,8.08398438 3.19628906,8.08007812 C3.26074219,8.07617188 3.33984375,8.0703125 3.43359375,8.0625 L3.43359375,8.9296875 C3.3359375,8.9453125 3.23828125,8.95898438 3.140625,8.97070312 C3.04296875,8.98242188 2.94335938,8.98828125 2.84179688,8.98828125 Z" id="Path"></path>
                    <path d="M4.98046875,8.94140625 L4.98046875,2.625 L6,2.625 L6,8.94140625 L4.98046875,8.94140625 Z M5.49609375,1.40625 C5.3046875,1.40625 5.13964844,1.33691406 5.00097656,1.19824219 C4.86230469,1.05957031 4.79296875,0.89453125 4.79296875,0.703125 C4.79296875,0.5078125 4.86230469,0.341796875 5.00097656,0.205078125 C5.13964844,0.068359375 5.3046875,0 5.49609375,0 C5.69140625,0 5.85742188,0.068359375 5.99414062,0.205078125 C6.13085938,0.341796875 6.19921875,0.5078125 6.19921875,0.703125 C6.19921875,0.89453125 6.13085938,1.05957031 5.99414062,1.19824219 C5.85742188,1.33691406 5.69140625,1.40625 5.49609375,1.40625 Z" id="Shape"></path>
                    <path d="M7.921875,8.94140625 L7.921875,2.625 L8.94140625,2.625 L8.94140625,3.5859375 L9.03515625,3.5859375 C9.17578125,3.24609375 9.39160156,2.98242188 9.68261719,2.79492188 C9.97363281,2.60742188 10.3261719,2.51367188 10.7402344,2.51367188 C11.0253906,2.51367188 11.28125,2.56054688 11.5078125,2.65429688 C11.734375,2.74804688 11.9296875,2.87792969 12.09375,3.04394531 C12.2578125,3.20996094 12.3886719,3.40234375 12.4863281,3.62109375 L12.5800781,3.62109375 C12.6933594,3.3984375 12.8457031,3.20410156 13.0371094,3.03808594 C13.2285156,2.87207031 13.4501953,2.74316406 13.7021484,2.65136719 C13.9541016,2.55957031 14.2246094,2.51367188 14.5136719,2.51367188 C14.9433594,2.51367188 15.3076172,2.59375 15.6064453,2.75390625 C15.9052734,2.9140625 16.1328125,3.14746094 16.2890625,3.45410156 C16.4453125,3.76074219 16.5234375,4.13476562 16.5234375,4.57617188 L16.5234375,8.94140625 L15.5039062,8.94140625 L15.5039062,4.81054688 C15.5039062,4.49804688 15.4560547,4.23925781 15.3603516,4.03417969 C15.2646484,3.82910156 15.1191406,3.67480469 14.9238281,3.57128906 C14.7285156,3.46777344 14.4824219,3.41601562 14.1855469,3.41601562 C13.8925781,3.41601562 13.6367188,3.48242188 13.4179688,3.61523438 C13.1992188,3.74804688 13.0292969,3.92480469 12.9082031,4.14550781 C12.7871094,4.36621094 12.7265625,4.61132812 12.7265625,4.88085938 L12.7265625,8.94140625 L11.7070312,8.94140625 L11.7070312,4.65234375 C11.7070312,4.40234375 11.6533203,4.18457031 11.5458984,3.99902344 C11.4384766,3.81347656 11.2861328,3.66992188 11.0888672,3.56835938 C10.8916016,3.46679688 10.6601562,3.41601562 10.3945312,3.41601562 C10.1210938,3.41601562 9.87402344,3.48828125 9.65332031,3.6328125 C9.43261719,3.77734375 9.25878906,3.97167969 9.13183594,4.21582031 C9.00488281,4.45996094 8.94140625,4.73046875 8.94140625,5.02734375 L8.94140625,8.94140625 L7.921875,8.94140625 Z" id="Path"></path>
                    <path d="M20.9414062,9.05273438 C20.3398438,9.05273438 19.8232422,8.91992188 19.3916016,8.65429688 C18.9599609,8.38867188 18.6279297,8.01269531 18.3955078,7.52636719 C18.1630859,7.04003906 18.046875,6.46679688 18.046875,5.80664062 L18.046875,5.80078125 C18.046875,5.1484375 18.1630859,4.57617188 18.3955078,4.08398438 C18.6279297,3.59179688 18.9570312,3.20703125 19.3828125,2.9296875 C19.8085938,2.65234375 20.3066406,2.51367188 20.8769531,2.51367188 C21.4511719,2.51367188 21.9443359,2.64648438 22.3564453,2.91210938 C22.7685547,3.17773438 23.0849609,3.54785156 23.3056641,4.02246094 C23.5263672,4.49707031 23.6367188,5.04882812 23.6367188,5.67773438 L23.6367188,6.07617188 L18.5742188,6.07617188 L18.5742188,5.26171875 L23.1152344,5.26171875 L22.6113281,6.00585938 L22.6113281,5.6015625 C22.6113281,5.10546875 22.5371094,4.69726562 22.3886719,4.37695312 C22.2402344,4.05664062 22.0351562,3.81738281 21.7734375,3.65917969 C21.5117188,3.50097656 21.2109375,3.421875 20.8710938,3.421875 C20.53125,3.421875 20.2275391,3.50488281 19.9599609,3.67089844 C19.6923828,3.83691406 19.4804688,4.08203125 19.3242188,4.40625 C19.1679688,4.73046875 19.0898438,5.12890625 19.0898438,5.6015625 L19.0898438,6.00585938 C19.0898438,6.45507812 19.1660156,6.83886719 19.3183594,7.15722656 C19.4707031,7.47558594 19.6875,7.71972656 19.96875,7.88964844 C20.25,8.05957031 20.5820312,8.14453125 20.9648438,8.14453125 C21.25,8.14453125 21.4980469,8.10546875 21.7089844,8.02734375 C21.9199219,7.94921875 22.09375,7.84960938 22.2304688,7.72851562 C22.3671875,7.60742188 22.4628906,7.484375 22.5175781,7.359375 L22.5410156,7.30664062 L23.5605469,7.30664062 L23.5488281,7.35351562 C23.4941406,7.56835938 23.3974609,7.77636719 23.2587891,7.97753906 C23.1201172,8.17871094 22.9414062,8.36035156 22.7226562,8.52246094 C22.5039062,8.68457031 22.2451172,8.81347656 21.9462891,8.90917969 C21.6474609,9.00488281 21.3125,9.05273438 20.9414062,9.05273438 Z" id="Path"></path>
                </g>
                <g id="ins(0,-“z”)" transform="translate(41.3516, 27)">
                    <path d="M0.1875,8.94140625 L0.1875,2.625 L1.20703125,2.625 L1.20703125,8.94140625 L0.1875,8.94140625 Z M0.703125,1.40625 C0.51171875,1.40625 0.346679688,1.33691406 0.208007812,1.19824219 C0.0693359375,1.05957031 0,0.89453125 0,0.703125 C0,0.5078125 0.0693359375,0.341796875 0.208007812,0.205078125 C0.346679688,0.068359375 0.51171875,0 0.703125,0 C0.8984375,0 1.06445312,0.068359375 1.20117188,0.205078125 C1.33789062,0.341796875 1.40625,0.5078125 1.40625,0.703125 C1.40625,0.89453125 1.33789062,1.05957031 1.20117188,1.19824219 C1.06445312,1.33691406 0.8984375,1.40625 0.703125,1.40625 Z" id="Shape"></path>
                    <path d="M3.12890625,8.94140625 L3.12890625,2.625 L4.1484375,2.625 L4.1484375,3.57421875 L4.2421875,3.57421875 C4.40234375,3.23828125 4.6328125,2.97753906 4.93359375,2.79199219 C5.234375,2.60644531 5.6171875,2.51367188 6.08203125,2.51367188 C6.79296875,2.51367188 7.33886719,2.71582031 7.71972656,3.12011719 C8.10058594,3.52441406 8.29101562,4.1015625 8.29101562,4.8515625 L8.29101562,8.94140625 L7.27148438,8.94140625 L7.27148438,5.09765625 C7.27148438,4.52734375 7.15136719,4.10449219 6.91113281,3.82910156 C6.67089844,3.55371094 6.29882812,3.41601562 5.79492188,3.41601562 C5.45898438,3.41601562 5.16796875,3.48828125 4.921875,3.6328125 C4.67578125,3.77734375 4.48535156,3.98242188 4.35058594,4.24804688 C4.21582031,4.51367188 4.1484375,4.83203125 4.1484375,5.203125 L4.1484375,8.94140625 L3.12890625,8.94140625 Z" id="Path"></path>
                    <path d="M12.2988281,9.05273438 C11.8300781,9.05273438 11.4160156,8.98144531 11.0566406,8.83886719 C10.6972656,8.69628906 10.4091797,8.49609375 10.1923828,8.23828125 C9.97558594,7.98046875 9.84765625,7.67773438 9.80859375,7.33007812 L9.80859375,7.33007812 L10.8515625,7.33007812 L10.8515625,7.33007812 C10.9375,7.59179688 11.1054688,7.80273438 11.3554688,7.96289062 C11.6054688,8.12304688 11.9316406,8.203125 12.3339844,8.203125 C12.6191406,8.203125 12.8701172,8.16113281 13.0869141,8.07714844 C13.3037109,7.99316406 13.4746094,7.87792969 13.5996094,7.73144531 C13.7246094,7.58496094 13.7871094,7.41601562 13.7871094,7.22460938 L13.7871094,7.21289062 C13.7871094,6.99804688 13.7011719,6.81542969 13.5292969,6.66503906 C13.3574219,6.51464844 13.0761719,6.39257812 12.6855469,6.29882812 L11.7070312,6.06445312 C11.3125,5.97070312 10.9882812,5.84863281 10.734375,5.69824219 C10.4804688,5.54785156 10.2929688,5.36230469 10.171875,5.14160156 C10.0507812,4.92089844 9.99023438,4.66015625 9.99023438,4.359375 L9.99023438,4.35351562 C9.99023438,4.00195312 10.0927734,3.6875 10.2978516,3.41015625 C10.5029297,3.1328125 10.7832031,2.9140625 11.1386719,2.75390625 C11.4941406,2.59375 11.8945312,2.51367188 12.3398438,2.51367188 C12.78125,2.51367188 13.1728516,2.58300781 13.5146484,2.72167969 C13.8564453,2.86035156 14.1318359,3.05664062 14.3408203,3.31054688 C14.5498047,3.56445312 14.6777344,3.86328125 14.7246094,4.20703125 L14.7246094,4.20703125 L13.7226562,4.20703125 L13.7226562,4.20703125 C13.65625,3.95703125 13.5039062,3.75390625 13.265625,3.59765625 C13.0273438,3.44140625 12.7167969,3.36328125 12.3339844,3.36328125 C12.0839844,3.36328125 11.8613281,3.40332031 11.6660156,3.48339844 C11.4707031,3.56347656 11.3164062,3.67382812 11.203125,3.81445312 C11.0898438,3.95507812 11.0332031,4.11914062 11.0332031,4.30664062 L11.0332031,4.31835938 C11.0332031,4.45898438 11.0703125,4.58398438 11.1445312,4.69335938 C11.21875,4.80273438 11.3339844,4.8984375 11.4902344,4.98046875 C11.6464844,5.0625 11.8476562,5.13476562 12.09375,5.19726562 L13.0664062,5.43164062 C13.6601562,5.57617188 14.1025391,5.78320312 14.3935547,6.05273438 C14.6845703,6.32226562 14.8300781,6.68359375 14.8300781,7.13671875 L14.8300781,7.1484375 C14.8300781,7.5234375 14.71875,7.85449219 14.4960938,8.14160156 C14.2734375,8.42871094 13.9716797,8.65234375 13.5908203,8.8125 C13.2099609,8.97265625 12.7792969,9.05273438 12.2988281,9.05273438 Z" id="Path"></path>
                    <path d="M18.5449219,11.0507812 C18.1660156,10.546875 17.8535156,10.0117188 17.6074219,9.4453125 C17.3613281,8.87890625 17.1787109,8.27539062 17.0595703,7.63476562 C16.9404297,6.99414062 16.8808594,6.31054688 16.8808594,5.58398438 C16.8808594,4.85742188 16.9394531,4.17480469 17.0566406,3.53613281 C17.1738281,2.89746094 17.3554688,2.29394531 17.6015625,1.72558594 C17.8476562,1.15722656 18.1621094,0.62109375 18.5449219,0.1171875 L19.4003906,0.1171875 C19.1894531,0.38671875 18.9931641,0.7265625 18.8115234,1.13671875 C18.6298828,1.546875 18.4726562,1.99902344 18.3398438,2.49316406 C18.2070312,2.98730469 18.1035156,3.49902344 18.0292969,4.02832031 C17.9550781,4.55761719 17.9179688,5.07617188 17.9179688,5.58398438 C17.9179688,6.09570312 17.9550781,6.61621094 18.0292969,7.14550781 C18.1035156,7.67480469 18.2070312,8.18652344 18.3398438,8.68066406 C18.4726562,9.17480469 18.6298828,9.62597656 18.8115234,10.0341797 C18.9931641,10.4423828 19.1894531,10.78125 19.4003906,11.0507812 L18.5449219,11.0507812 Z" id="Path"></path>
                    <path d="M23.8183594,9.140625 C23.1933594,9.140625 22.6591797,8.9609375 22.2158203,8.6015625 C21.7724609,8.2421875 21.4316406,7.73144531 21.1933594,7.06933594 C20.9550781,6.40722656 20.8359375,5.62304688 20.8359375,4.71679688 L20.8359375,4.70507812 C20.8359375,3.79882812 20.9550781,3.015625 21.1933594,2.35546875 C21.4316406,1.6953125 21.7724609,1.18554688 22.2158203,0.826171875 C22.6591797,0.466796875 23.1933594,0.287109375 23.8183594,0.287109375 C24.4433594,0.287109375 24.9785156,0.466796875 25.4238281,0.826171875 C25.8691406,1.18554688 26.2119141,1.6953125 26.4521484,2.35546875 C26.6923828,3.015625 26.8125,3.79882812 26.8125,4.70507812 L26.8125,4.71679688 C26.8125,5.62304688 26.6923828,6.40722656 26.4521484,7.06933594 C26.2119141,7.73144531 25.8691406,8.2421875 25.4238281,8.6015625 C24.9785156,8.9609375 24.4433594,9.140625 23.8183594,9.140625 Z M23.8183594,8.22070312 C24.2246094,8.22070312 24.5712891,8.078125 24.8583984,7.79296875 C25.1455078,7.5078125 25.3662109,7.10351562 25.5205078,6.58007812 C25.6748047,6.05664062 25.7519531,5.43554688 25.7519531,4.71679688 L25.7519531,4.70507812 C25.7519531,3.98632812 25.6748047,3.36621094 25.5205078,2.84472656 C25.3662109,2.32324219 25.1455078,1.92089844 24.8583984,1.63769531 C24.5712891,1.35449219 24.2246094,1.21289062 23.8183594,1.21289062 C23.4160156,1.21289062 23.0712891,1.35449219 22.7841797,1.63769531 C22.4970703,1.92089844 22.2773438,2.32324219 22.125,2.84472656 C21.9726562,3.36621094 21.8964844,3.98632812 21.8964844,4.70507812 L21.8964844,4.71679688 C21.8964844,5.43554688 21.9726562,6.05664062 22.125,6.58007812 C22.2773438,7.10351562 22.4970703,7.5078125 22.7841797,7.79296875 C23.0712891,8.078125 23.4160156,8.22070312 23.8183594,8.22070312 Z" id="Shape"></path>
                    <polygon id="Path" points="28.2949219 11.0917969 28.8046875 7.7578125 29.9707031 7.7578125 29.0507812 11.0917969"></polygon>
                    <path d="M37.1601562,0.486328125 L36.6503906,3.8203125 L35.484375,3.8203125 L36.4042969,0.486328125 L37.1601562,0.486328125 Z M39.1054688,0.486328125 L38.5957031,3.8203125 L37.4296875,3.8203125 L38.3496094,0.486328125 L39.1054688,0.486328125 Z" id="Shape"></path>
                    <polygon id="Path" points="40.8515625 8.94140625 40.8515625 8.203125 44.4960938 3.5625 44.4960938 3.46875 40.8574219 3.46875 40.8574219 2.625 45.6972656 2.625 45.6972656 3.38085938 42.0703125 8.00390625 42.0703125 8.09765625 45.7148438 8.09765625 45.7148438 8.94140625"></polygon>
                    <path d="M47.4609375,3.8203125 L47.9707031,0.486328125 L49.1367188,0.486328125 L48.2167969,3.8203125 L47.4609375,3.8203125 Z M49.40625,3.8203125 L49.9160156,0.486328125 L51.0820312,0.486328125 L50.1621094,3.8203125 L49.40625,3.8203125 Z" id="Shape"></path>
                    <path d="M53.5253906,11.0507812 L52.6699219,11.0507812 C52.8808594,10.78125 53.0771484,10.4423828 53.2587891,10.0341797 C53.4404297,9.62597656 53.5976562,9.17480469 53.7304688,8.68066406 C53.8632812,8.18652344 53.9667969,7.67480469 54.0410156,7.14550781 C54.1152344,6.61621094 54.1523438,6.09570312 54.1523438,5.58398438 C54.1523438,5.07617188 54.1152344,4.55761719 54.0410156,4.02832031 C53.9667969,3.49902344 53.8632812,2.98730469 53.7304688,2.49316406 C53.5976562,1.99902344 53.4404297,1.546875 53.2587891,1.13671875 C53.0771484,0.7265625 52.8808594,0.38671875 52.6699219,0.1171875 L53.5253906,0.1171875 C53.9082031,0.62109375 54.2226562,1.15722656 54.46875,1.72558594 C54.7148438,2.29394531 54.8964844,2.89746094 55.0136719,3.53613281 C55.1308594,4.17480469 55.1894531,4.85742188 55.1894531,5.58398438 C55.1894531,6.31054688 55.1298828,6.99414062 55.0107422,7.63476562 C54.8916016,8.27539062 54.7099609,8.87890625 54.4658203,9.4453125 C54.2216797,10.0117188 53.9082031,10.546875 53.5253906,11.0507812 Z" id="Path"></path>
                </g>
                <g id="P1" transform="translate(99.9424, 0.4863)">
                    <path d="M0.52734375,5.4375 L0.52734375,4.5 L2.91796875,4.5 C3.5234375,4.5 3.9921875,4.34277344 4.32421875,4.02832031 C4.65625,3.71386719 4.82226562,3.27929688 4.82226562,2.72460938 L4.82226562,2.71289062 C4.82226562,2.15429688 4.65625,1.71875 4.32421875,1.40625 C3.9921875,1.09375 3.5234375,0.9375 2.91796875,0.9375 L0.52734375,0.9375 L0.52734375,0 L3.1875,0 C3.71875,0 4.1875,0.11328125 4.59375,0.33984375 C5,0.56640625 5.31933594,0.8828125 5.55175781,1.2890625 C5.78417969,1.6953125 5.90039062,2.16601562 5.90039062,2.70117188 L5.90039062,2.71289062 C5.90039062,3.24804688 5.78417969,3.72070313 5.55175781,4.13085938 C5.31933594,4.54101562 5,4.86132812 4.59375,5.09179688 C4.1875,5.32226562 3.71875,5.4375 3.1875,5.4375 L0.52734375,5.4375 Z M0,8.45507812 L0,0 L1.0546875,0 L1.0546875,8.45507812 L0,8.45507812 Z" id="Shape"></path>
                    <polygon id="Path" points="9.55664062 8.45507812 9.55664062 1.171875 9.46289062 1.171875 7.3125 2.73046875 7.3125 1.6171875 9.5625 0 10.6113281 0 10.6113281 8.45507812"></polygon>
                </g>
                <g id="P3" transform="translate(227.9639, 0.3457)">
                    <path d="M0.52734375,5.578125 L0.52734375,4.640625 L2.91796875,4.640625 C3.5234375,4.640625 3.9921875,4.48339844 4.32421875,4.16894531 C4.65625,3.85449219 4.82226562,3.41992188 4.82226562,2.86523438 L4.82226562,2.85351562 C4.82226562,2.29492188 4.65625,1.859375 4.32421875,1.546875 C3.9921875,1.234375 3.5234375,1.078125 2.91796875,1.078125 L0.52734375,1.078125 L0.52734375,0.140625 L3.1875,0.140625 C3.71875,0.140625 4.1875,0.25390625 4.59375,0.48046875 C5,0.70703125 5.31933594,1.0234375 5.55175781,1.4296875 C5.78417969,1.8359375 5.90039062,2.30664062 5.90039062,2.84179688 L5.90039062,2.85351562 C5.90039062,3.38867188 5.78417969,3.86132813 5.55175781,4.27148438 C5.31933594,4.68164062 5,5.00195312 4.59375,5.23242188 C4.1875,5.46289062 3.71875,5.578125 3.1875,5.578125 L0.52734375,5.578125 Z M0,8.59570312 L0,0.140625 L1.0546875,0.140625 L1.0546875,8.59570312 L0,8.59570312 Z" id="Shape"></path>
                    <path d="M10.3652344,8.73632812 C9.78320312,8.73632812 9.27539062,8.63671875 8.84179688,8.4375 C8.40820312,8.23828125 8.06542969,7.96484375 7.81347656,7.6171875 C7.56152344,7.26953125 7.41601562,6.87304688 7.37695312,6.42773438 L7.37109375,6.35742188 L8.38476562,6.35742188 L8.390625,6.41601562 C8.41796875,6.69335938 8.51660156,6.9375 8.68652344,7.1484375 C8.85644531,7.359375 9.08496094,7.52441406 9.37207031,7.64355469 C9.65917969,7.76269531 9.99023438,7.82226562 10.3652344,7.82226562 C10.7363281,7.82226562 11.0615234,7.7578125 11.3408203,7.62890625 C11.6201172,7.5 11.8378906,7.32128906 11.9941406,7.09277344 C12.1503906,6.86425781 12.2285156,6.6015625 12.2285156,6.3046875 L12.2285156,6.29296875 C12.2285156,5.7734375 12.0556641,5.37402344 11.7099609,5.09472656 C11.3642578,4.81542969 10.8945312,4.67578125 10.3007812,4.67578125 L9.24023438,4.67578125 L9.24023438,3.78515625 L10.2539062,3.78515625 C10.5898438,3.78515625 10.8867188,3.72167969 11.1445312,3.59472656 C11.4023438,3.46777344 11.6035156,3.29394531 11.7480469,3.07324219 C11.8925781,2.85253906 11.9648438,2.6015625 11.9648438,2.3203125 L11.9648438,2.30859375 C11.9648438,2.01171875 11.9023438,1.75976562 11.7773438,1.55273438 C11.6523438,1.34570312 11.4697266,1.1875 11.2294922,1.078125 C10.9892578,0.96875 10.6972656,0.9140625 10.3535156,0.9140625 C10.0214844,0.9140625 9.72558594,0.969726562 9.46582031,1.08105469 C9.20605469,1.19238281 8.99804688,1.3515625 8.84179688,1.55859375 C8.68554688,1.765625 8.59179688,2.01171875 8.56054688,2.296875 L8.5546875,2.35546875 L7.54101562,2.35546875 L7.546875,2.296875 C7.59375,1.8359375 7.73925781,1.43359375 7.98339844,1.08984375 C8.22753906,0.74609375 8.55175781,0.478515625 8.95605469,0.287109375 C9.36035156,0.095703125 9.82617188,0 10.3535156,0 C10.8925781,0 11.3623047,0.0927734375 11.7626953,0.278320312 C12.1630859,0.463867188 12.4736328,0.719726562 12.6943359,1.04589844 C12.9150391,1.37207031 13.0253906,1.75 13.0253906,2.1796875 L13.0253906,2.19140625 C13.0253906,2.5390625 12.9492188,2.84765625 12.796875,3.1171875 C12.6445312,3.38671875 12.4335938,3.61132812 12.1640625,3.79101562 C11.8945312,3.97070312 11.5839844,4.09765625 11.2324219,4.171875 L11.2324219,4.1953125 C11.8496094,4.24609375 12.3486328,4.45410156 12.7294922,4.81933594 C13.1103516,5.18457031 13.3007812,5.66796875 13.3007812,6.26953125 L13.3007812,6.28125 C13.3007812,6.75 13.1738281,7.16992188 12.9199219,7.54101562 C12.6660156,7.91210938 12.3183594,8.20410156 11.8769531,8.41699219 C11.4355469,8.62988281 10.9316406,8.73632812 10.3652344,8.73632812 Z" id="Path"></path>
                </g>
                <g id="P2" transform="translate(356.1045, 0.2871)">
                    <path d="M0.52734375,5.63671875 L0.52734375,4.69921875 L2.91796875,4.69921875 C3.5234375,4.69921875 3.9921875,4.54199219 4.32421875,4.22753906 C4.65625,3.91308594 4.82226562,3.47851563 4.82226562,2.92382812 L4.82226562,2.91210938 C4.82226562,2.35351562 4.65625,1.91796875 4.32421875,1.60546875 C3.9921875,1.29296875 3.5234375,1.13671875 2.91796875,1.13671875 L0.52734375,1.13671875 L0.52734375,0.19921875 L3.1875,0.19921875 C3.71875,0.19921875 4.1875,0.3125 4.59375,0.5390625 C5,0.765625 5.31933594,1.08203125 5.55175781,1.48828125 C5.78417969,1.89453125 5.90039062,2.36523438 5.90039062,2.90039062 L5.90039062,2.91210938 C5.90039062,3.44726562 5.78417969,3.91992188 5.55175781,4.33007812 C5.31933594,4.74023438 5,5.06054688 4.59375,5.29101562 C4.1875,5.52148438 3.71875,5.63671875 3.1875,5.63671875 L0.52734375,5.63671875 Z M0,8.65429688 L0,0.19921875 L1.0546875,0.19921875 L1.0546875,8.65429688 L0,8.65429688 Z" id="Shape"></path>
                    <path d="M7.48828125,8.65429688 L7.48828125,7.92773438 L10.3476562,4.83398438 C10.7070312,4.44335938 10.9882812,4.12011719 11.1914062,3.86425781 C11.3945312,3.60839844 11.5371094,3.37695312 11.6191406,3.16992188 C11.7011719,2.96289062 11.7421875,2.73632812 11.7421875,2.49023438 L11.7421875,2.47851562 C11.7421875,2.18164062 11.6777344,1.91601562 11.5488281,1.68164062 C11.4199219,1.44726562 11.2363281,1.26171875 10.9980469,1.125 C10.7597656,0.98828125 10.4746094,0.919921875 10.1425781,0.919921875 C9.80664062,0.919921875 9.51171875,0.989257812 9.2578125,1.12792969 C9.00390625,1.26660156 8.80664062,1.45996094 8.66601562,1.70800781 C8.52539062,1.95605469 8.45507812,2.24609375 8.45507812,2.578125 L8.44921875,2.58984375 L7.44140625,2.58398437 L7.4296875,2.578125 C7.43359375,2.078125 7.5546875,1.63378906 7.79296875,1.24511719 C8.03125,0.856445312 8.359375,0.551757812 8.77734375,0.331054688 C9.1953125,0.110351562 9.67382812,0 10.2128906,0 C10.7050781,0 11.1484375,0.102539062 11.5429688,0.307617188 C11.9375,0.512695312 12.2490234,0.79296875 12.4775391,1.1484375 C12.7060547,1.50390625 12.8203125,1.91015625 12.8203125,2.3671875 L12.8203125,2.37890625 C12.8203125,2.69921875 12.7646484,3.0078125 12.6533203,3.3046875 C12.5419922,3.6015625 12.3457031,3.93066406 12.0644531,4.29199219 C11.7832031,4.65332031 11.3867188,5.09765625 10.875,5.625 L8.68945312,7.88085938 L8.953125,7.39453125 L8.953125,7.88085938 L8.6953125,7.70507812 L12.9609375,7.70507812 L12.9609375,8.65429688 L7.48828125,8.65429688 Z" id="Path"></path>
                </g>
                <g id="“z”" transform="translate(81.418, 41.4863)">
                    <path d="M1.67578125,0 L1.16601562,3.33398438 L0,3.33398438 L0.919921875,0 L1.67578125,0 Z M3.62109375,0 L3.11132812,3.33398438 L1.9453125,3.33398438 L2.86523438,0 L3.62109375,0 Z" id="Shape"></path>
                    <polygon id="Path" points="5.3671875 8.45507812 5.3671875 7.71679688 9.01171875 3.07617188 9.01171875 2.98242188 5.37304688 2.98242188 5.37304688 2.13867188 10.2128906 2.13867188 10.2128906 2.89453125 6.5859375 7.51757812 6.5859375 7.61132812 10.2304688 7.61132812 10.2304688 8.45507812"></polygon>
                    <path d="M11.9765625,3.33398438 L12.4863281,0 L13.6523438,0 L12.7324219,3.33398438 L11.9765625,3.33398438 Z M13.921875,3.33398438 L14.4316406,0 L15.5976562,0 L14.6777344,3.33398438 L13.921875,3.33398438 Z" id="Shape"></path>
                </g>
                <g id="“xz”" transform="translate(75.125, 149.4863)">
                    <path d="M1.67578125,0 L1.16601562,3.33398438 L0,3.33398438 L0.919921875,0 L1.67578125,0 Z M3.62109375,0 L3.11132812,3.33398438 L1.9453125,3.33398438 L2.86523438,0 L3.62109375,0 Z" id="Shape"></path>
                    <polygon id="Path" points="5.00976562 8.45507812 7.171875 5.296875 4.98632812 2.13867188 6.1875 2.13867188 7.6875 4.48828125 7.78125 4.48828125 9.26367188 2.13867188 10.40625 2.13867188 8.26171875 5.25585938 10.4355469 8.45507812 9.24023438 8.45507812 7.74609375 6.0703125 7.65234375 6.0703125 6.15234375 8.45507812"></polygon>
                    <polygon id="Path" points="11.6601562 8.45507812 11.6601562 7.71679688 15.3046875 3.07617188 15.3046875 2.98242188 11.6660156 2.98242188 11.6660156 2.13867188 16.5058594 2.13867188 16.5058594 2.89453125 12.8789062 7.51757812 12.8789062 7.61132812 16.5234375 7.61132812 16.5234375 8.45507812"></polygon>
                    <path d="M18.2695312,3.33398438 L18.7792969,0 L19.9453125,0 L19.0253906,3.33398438 L18.2695312,3.33398438 Z M20.2148438,3.33398438 L20.7246094,0 L21.890625,0 L20.9707031,3.33398438 L20.2148438,3.33398438 Z" id="Shape"></path>
                </g>
                <g id="“xzy”" transform="translate(68.6094, 209.4863)">
                    <path d="M1.67578125,0 L1.16601562,3.33398438 L0,3.33398438 L0.919921875,0 L1.67578125,0 Z M3.62109375,0 L3.11132812,3.33398438 L1.9453125,3.33398438 L2.86523438,0 L3.62109375,0 Z" id="Shape"></path>
                    <polygon id="Path" points="5.00976562 8.45507812 7.171875 5.296875 4.98632812 2.13867188 6.1875 2.13867188 7.6875 4.48828125 7.78125 4.48828125 9.26367188 2.13867188 10.40625 2.13867188 8.26171875 5.25585938 10.4355469 8.45507812 9.24023438 8.45507812 7.74609375 6.0703125 7.65234375 6.0703125 6.15234375 8.45507812"></polygon>
                    <polygon id="Path" points="11.6601562 8.45507812 11.6601562 7.71679688 15.3046875 3.07617188 15.3046875 2.98242188 11.6660156 2.98242188 11.6660156 2.13867188 16.5058594 2.13867188 16.5058594 2.89453125 12.8789062 7.51757812 12.8789062 7.61132812 16.5234375 7.61132812 16.5234375 8.45507812"></polygon>
                    <path d="M18.8144531,10.6699219 C18.7480469,10.6699219 18.6738281,10.6669922 18.5917969,10.6611328 C18.5097656,10.6552734 18.4335938,10.6464844 18.3632812,10.6347656 L18.3632812,9.796875 C18.4257812,9.80859375 18.4941406,9.81640625 18.5683594,9.8203125 C18.6425781,9.82421875 18.7148438,9.82617188 18.7851562,9.82617188 C19.0742188,9.82617188 19.3115234,9.75195312 19.4970703,9.60351562 C19.6826172,9.45507812 19.8320312,9.19921875 19.9453125,8.8359375 L20.0625,8.4609375 L17.7246094,2.13867188 L18.8144531,2.13867188 L20.7597656,7.97460938 L20.3554688,7.3359375 L20.8359375,7.3359375 L20.4316406,7.97460938 L22.3710938,2.13867188 L23.4433594,2.13867188 L20.9765625,8.84179688 C20.8046875,9.31445312 20.6230469,9.68359375 20.4316406,9.94921875 C20.2402344,10.2148438 20.0166016,10.4013672 19.7607422,10.5087891 C19.5048828,10.6162109 19.1894531,10.6699219 18.8144531,10.6699219 Z" id="Path"></path>
                    <path d="M24.7851562,3.33398438 L25.2949219,0 L26.4609375,0 L25.5410156,3.33398438 L24.7851562,3.33398438 Z M26.7304688,3.33398438 L27.2402344,0 L28.40625,0 L27.4863281,3.33398438 L26.7304688,3.33398438 Z" id="Shape"></path>
                </g>
                <g id="“xzy”-copy" transform="translate(92.2559, 246.4863)">
                    <path d="M1.67578125,0 L1.16601562,3.33398438 L0,3.33398438 L0.919921875,0 L1.67578125,0 Z M3.62109375,0 L3.11132812,3.33398438 L1.9453125,3.33398438 L2.86523438,0 L3.62109375,0 Z" id="Shape"></path>
                    <polygon id="Path" points="5.00976562 8.45507812 7.171875 5.296875 4.98632812 2.13867188 6.1875 2.13867188 7.6875 4.48828125 7.78125 4.48828125 9.26367188 2.13867188 10.40625 2.13867188 8.26171875 5.25585938 10.4355469 8.45507812 9.24023438 8.45507812 7.74609375 6.0703125 7.65234375 6.0703125 6.15234375 8.45507812"></polygon>
                    <polygon id="Path" points="11.6601562 8.45507812 11.6601562 7.71679688 15.3046875 3.07617188 15.3046875 2.98242188 11.6660156 2.98242188 11.6660156 2.13867188 16.5058594 2.13867188 16.5058594 2.89453125 12.8789062 7.51757812 12.8789062 7.61132812 16.5234375 7.61132812 16.5234375 8.45507812"></polygon>
                    <path d="M18.8144531,10.6699219 C18.7480469,10.6699219 18.6738281,10.6669922 18.5917969,10.6611328 C18.5097656,10.6552734 18.4335938,10.6464844 18.3632812,10.6347656 L18.3632812,9.796875 C18.4257812,9.80859375 18.4941406,9.81640625 18.5683594,9.8203125 C18.6425781,9.82421875 18.7148438,9.82617188 18.7851562,9.82617188 C19.0742188,9.82617188 19.3115234,9.75195312 19.4970703,9.60351562 C19.6826172,9.45507812 19.8320312,9.19921875 19.9453125,8.8359375 L20.0625,8.4609375 L17.7246094,2.13867188 L18.8144531,2.13867188 L20.7597656,7.97460938 L20.3554688,7.3359375 L20.8359375,7.3359375 L20.4316406,7.97460938 L22.3710938,2.13867188 L23.4433594,2.13867188 L20.9765625,8.84179688 C20.8046875,9.31445312 20.6230469,9.68359375 20.4316406,9.94921875 C20.2402344,10.2148438 20.0166016,10.4013672 19.7607422,10.5087891 C19.5048828,10.6162109 19.1894531,10.6699219 18.8144531,10.6699219 Z" id="Path"></path>
                    <path d="M24.7851562,3.33398438 L25.2949219,0 L26.4609375,0 L25.5410156,3.33398438 L24.7851562,3.33398438 Z M26.7304688,3.33398438 L27.2402344,0 L28.40625,0 L27.4863281,3.33398438 L26.7304688,3.33398438 Z" id="Shape"></path>
                </g>
                <g id="“xzy”-copy-2" transform="translate(220.2559, 246.4863)">
                    <path d="M1.67578125,0 L1.16601562,3.33398438 L0,3.33398438 L0.919921875,0 L1.67578125,0 Z M3.62109375,0 L3.11132812,3.33398438 L1.9453125,3.33398438 L2.86523438,0 L3.62109375,0 Z" id="Shape"></path>
                    <polygon id="Path" points="5.00976562 8.45507812 7.171875 5.296875 4.98632812 2.13867188 6.1875 2.13867188 7.6875 4.48828125 7.78125 4.48828125 9.26367188 2.13867188 10.40625 2.13867188 8.26171875 5.25585938 10.4355469 8.45507812 9.24023438 8.45507812 7.74609375 6.0703125 7.65234375 6.0703125 6.15234375 8.45507812"></polygon>
                    <polygon id="Path" points="11.6601562 8.45507812 11.6601562 7.71679688 15.3046875 3.07617188 15.3046875 2.98242188 11.6660156 2.98242188 11.6660156 2.13867188 16.5058594 2.13867188 16.5058594 2.89453125 12.8789062 7.51757812 12.8789062 7.61132812 16.5234375 7.61132812 16.5234375 8.45507812"></polygon>
                    <path d="M18.8144531,10.6699219 C18.7480469,10.6699219 18.6738281,10.6669922 18.5917969,10.6611328 C18.5097656,10.6552734 18.4335938,10.6464844 18.3632812,10.6347656 L18.3632812,9.796875 C18.4257812,9.80859375 18.4941406,9.81640625 18.5683594,9.8203125 C18.6425781,9.82421875 18.7148438,9.82617188 18.7851562,9.82617188 C19.0742188,9.82617188 19.3115234,9.75195312 19.4970703,9.60351562 C19.6826172,9.45507812 19.8320312,9.19921875 19.9453125,8.8359375 L20.0625,8.4609375 L17.7246094,2.13867188 L18.8144531,2.13867188 L20.7597656,7.97460938 L20.3554688,7.3359375 L20.8359375,7.3359375 L20.4316406,7.97460938 L22.3710938,2.13867188 L23.4433594,2.13867188 L20.9765625,8.84179688 C20.8046875,9.31445312 20.6230469,9.68359375 20.4316406,9.94921875 C20.2402344,10.2148438 20.0166016,10.4013672 19.7607422,10.5087891 C19.5048828,10.6162109 19.1894531,10.6699219 18.8144531,10.6699219 Z" id="Path"></path>
                    <path d="M24.7851562,3.33398438 L25.2949219,0 L26.4609375,0 L25.5410156,3.33398438 L24.7851562,3.33398438 Z M26.7304688,3.33398438 L27.2402344,0 L28.40625,0 L27.4863281,3.33398438 L26.7304688,3.33398438 Z" id="Shape"></path>
                </g>
                <g id="“zyx”" transform="translate(348.2559, 246.4863)">
                    <path d="M1.67578125,0 L1.16601562,3.33398438 L0,3.33398438 L0.919921875,0 L1.67578125,0 Z M3.62109375,0 L3.11132812,3.33398438 L1.9453125,3.33398438 L2.86523438,0 L3.62109375,0 Z" id="Shape"></path>
                    <polygon id="Path" points="5.3671875 8.45507812 5.3671875 7.71679688 9.01171875 3.07617188 9.01171875 2.98242188 5.37304688 2.98242188 5.37304688 2.13867188 10.2128906 2.13867188 10.2128906 2.89453125 6.5859375 7.51757812 6.5859375 7.61132812 10.2304688 7.61132812 10.2304688 8.45507812"></polygon>
                    <path d="M12.5214844,10.6699219 C12.4550781,10.6699219 12.3808594,10.6669922 12.2988281,10.6611328 C12.2167969,10.6552734 12.140625,10.6464844 12.0703125,10.6347656 L12.0703125,9.796875 C12.1328125,9.80859375 12.2011719,9.81640625 12.2753906,9.8203125 C12.3496094,9.82421875 12.421875,9.82617188 12.4921875,9.82617188 C12.78125,9.82617188 13.0185547,9.75195312 13.2041016,9.60351562 C13.3896484,9.45507812 13.5390625,9.19921875 13.6523438,8.8359375 L13.7695312,8.4609375 L11.4316406,2.13867188 L12.5214844,2.13867188 L14.4667969,7.97460938 L14.0625,7.3359375 L14.5429688,7.3359375 L14.1386719,7.97460938 L16.078125,2.13867188 L17.1503906,2.13867188 L14.6835938,8.84179688 C14.5117188,9.31445312 14.3300781,9.68359375 14.1386719,9.94921875 C13.9472656,10.2148438 13.7236328,10.4013672 13.4677734,10.5087891 C13.2119141,10.6162109 12.8964844,10.6699219 12.5214844,10.6699219 Z" id="Path"></path>
                    <polygon id="Path" points="17.9941406 8.45507812 20.15625 5.296875 17.9707031 2.13867188 19.171875 2.13867188 20.671875 4.48828125 20.765625 4.48828125 22.2480469 2.13867188 23.390625 2.13867188 21.2460938 5.25585938 23.4199219 8.45507812 22.2246094 8.45507812 20.7304688 6.0703125 20.6367188 6.0703125 19.1367188 8.45507812"></polygon>
                    <path d="M24.7851562,3.33398438 L25.2949219,0 L26.4609375,0 L25.5410156,3.33398438 L24.7851562,3.33398438 Z M26.7304688,3.33398438 L27.2402344,0 L28.40625,0 L27.4863281,3.33398438 L26.7304688,3.33398438 Z" id="Shape"></path>
                </g>
                <g id="ins(0,-“x”)" transform="translate(169.5273, 103)">
                    <path d="M0.1875,8.94140625 L0.1875,2.625 L1.20703125,2.625 L1.20703125,8.94140625 L0.1875,8.94140625 Z M0.703125,1.40625 C0.51171875,1.40625 0.346679688,1.33691406 0.208007812,1.19824219 C0.0693359375,1.05957031 0,0.89453125 0,0.703125 C0,0.5078125 0.0693359375,0.341796875 0.208007812,0.205078125 C0.346679688,0.068359375 0.51171875,0 0.703125,0 C0.8984375,0 1.06445312,0.068359375 1.20117188,0.205078125 C1.33789062,0.341796875 1.40625,0.5078125 1.40625,0.703125 C1.40625,0.89453125 1.33789062,1.05957031 1.20117188,1.19824219 C1.06445312,1.33691406 0.8984375,1.40625 0.703125,1.40625 Z" id="Shape"></path>
                    <path d="M3.12890625,8.94140625 L3.12890625,2.625 L4.1484375,2.625 L4.1484375,3.57421875 L4.2421875,3.57421875 C4.40234375,3.23828125 4.6328125,2.97753906 4.93359375,2.79199219 C5.234375,2.60644531 5.6171875,2.51367188 6.08203125,2.51367188 C6.79296875,2.51367188 7.33886719,2.71582031 7.71972656,3.12011719 C8.10058594,3.52441406 8.29101562,4.1015625 8.29101562,4.8515625 L8.29101562,8.94140625 L7.27148438,8.94140625 L7.27148438,5.09765625 C7.27148438,4.52734375 7.15136719,4.10449219 6.91113281,3.82910156 C6.67089844,3.55371094 6.29882812,3.41601562 5.79492188,3.41601562 C5.45898438,3.41601562 5.16796875,3.48828125 4.921875,3.6328125 C4.67578125,3.77734375 4.48535156,3.98242188 4.35058594,4.24804688 C4.21582031,4.51367188 4.1484375,4.83203125 4.1484375,5.203125 L4.1484375,8.94140625 L3.12890625,8.94140625 Z" id="Path"></path>
                    <path d="M12.2988281,9.05273438 C11.8300781,9.05273438 11.4160156,8.98144531 11.0566406,8.83886719 C10.6972656,8.69628906 10.4091797,8.49609375 10.1923828,8.23828125 C9.97558594,7.98046875 9.84765625,7.67773438 9.80859375,7.33007812 L9.80859375,7.33007812 L10.8515625,7.33007812 L10.8515625,7.33007812 C10.9375,7.59179688 11.1054688,7.80273438 11.3554688,7.96289062 C11.6054688,8.12304688 11.9316406,8.203125 12.3339844,8.203125 C12.6191406,8.203125 12.8701172,8.16113281 13.0869141,8.07714844 C13.3037109,7.99316406 13.4746094,7.87792969 13.5996094,7.73144531 C13.7246094,7.58496094 13.7871094,7.41601562 13.7871094,7.22460938 L13.7871094,7.21289062 C13.7871094,6.99804688 13.7011719,6.81542969 13.5292969,6.66503906 C13.3574219,6.51464844 13.0761719,6.39257812 12.6855469,6.29882812 L11.7070312,6.06445312 C11.3125,5.97070312 10.9882812,5.84863281 10.734375,5.69824219 C10.4804688,5.54785156 10.2929688,5.36230469 10.171875,5.14160156 C10.0507812,4.92089844 9.99023438,4.66015625 9.99023438,4.359375 L9.99023438,4.35351562 C9.99023438,4.00195312 10.0927734,3.6875 10.2978516,3.41015625 C10.5029297,3.1328125 10.7832031,2.9140625 11.1386719,2.75390625 C11.4941406,2.59375 11.8945312,2.51367188 12.3398438,2.51367188 C12.78125,2.51367188 13.1728516,2.58300781 13.5146484,2.72167969 C13.8564453,2.86035156 14.1318359,3.05664062 14.3408203,3.31054688 C14.5498047,3.56445312 14.6777344,3.86328125 14.7246094,4.20703125 L14.7246094,4.20703125 L13.7226562,4.20703125 L13.7226562,4.20703125 C13.65625,3.95703125 13.5039062,3.75390625 13.265625,3.59765625 C13.0273438,3.44140625 12.7167969,3.36328125 12.3339844,3.36328125 C12.0839844,3.36328125 11.8613281,3.40332031 11.6660156,3.48339844 C11.4707031,3.56347656 11.3164062,3.67382812 11.203125,3.81445312 C11.0898438,3.95507812 11.0332031,4.11914062 11.0332031,4.30664062 L11.0332031,4.31835938 C11.0332031,4.45898438 11.0703125,4.58398438 11.1445312,4.69335938 C11.21875,4.80273438 11.3339844,4.8984375 11.4902344,4.98046875 C11.6464844,5.0625 11.8476562,5.13476562 12.09375,5.19726562 L13.0664062,5.43164062 C13.6601562,5.57617188 14.1025391,5.78320312 14.3935547,6.05273438 C14.6845703,6.32226562 14.8300781,6.68359375 14.8300781,7.13671875 L14.8300781,7.1484375 C14.8300781,7.5234375 14.71875,7.85449219 14.4960938,8.14160156 C14.2734375,8.42871094 13.9716797,8.65234375 13.5908203,8.8125 C13.2099609,8.97265625 12.7792969,9.05273438 12.2988281,9.05273438 Z" id="Path"></path>
                    <path d="M18.5449219,11.0507812 C18.1660156,10.546875 17.8535156,10.0117188 17.6074219,9.4453125 C17.3613281,8.87890625 17.1787109,8.27539062 17.0595703,7.63476562 C16.9404297,6.99414062 16.8808594,6.31054688 16.8808594,5.58398438 C16.8808594,4.85742188 16.9394531,4.17480469 17.0566406,3.53613281 C17.1738281,2.89746094 17.3554688,2.29394531 17.6015625,1.72558594 C17.8476562,1.15722656 18.1621094,0.62109375 18.5449219,0.1171875 L19.4003906,0.1171875 C19.1894531,0.38671875 18.9931641,0.7265625 18.8115234,1.13671875 C18.6298828,1.546875 18.4726562,1.99902344 18.3398438,2.49316406 C18.2070312,2.98730469 18.1035156,3.49902344 18.0292969,4.02832031 C17.9550781,4.55761719 17.9179688,5.07617188 17.9179688,5.58398438 C17.9179688,6.09570312 17.9550781,6.61621094 18.0292969,7.14550781 C18.1035156,7.67480469 18.2070312,8.18652344 18.3398438,8.68066406 C18.4726562,9.17480469 18.6298828,9.62597656 18.8115234,10.0341797 C18.9931641,10.4423828 19.1894531,10.78125 19.4003906,11.0507812 L18.5449219,11.0507812 Z" id="Path"></path>
                    <path d="M23.8183594,9.140625 C23.1933594,9.140625 22.6591797,8.9609375 22.2158203,8.6015625 C21.7724609,8.2421875 21.4316406,7.73144531 21.1933594,7.06933594 C20.9550781,6.40722656 20.8359375,5.62304688 20.8359375,4.71679688 L20.8359375,4.70507812 C20.8359375,3.79882812 20.9550781,3.015625 21.1933594,2.35546875 C21.4316406,1.6953125 21.7724609,1.18554688 22.2158203,0.826171875 C22.6591797,0.466796875 23.1933594,0.287109375 23.8183594,0.287109375 C24.4433594,0.287109375 24.9785156,0.466796875 25.4238281,0.826171875 C25.8691406,1.18554688 26.2119141,1.6953125 26.4521484,2.35546875 C26.6923828,3.015625 26.8125,3.79882812 26.8125,4.70507812 L26.8125,4.71679688 C26.8125,5.62304688 26.6923828,6.40722656 26.4521484,7.06933594 C26.2119141,7.73144531 25.8691406,8.2421875 25.4238281,8.6015625 C24.9785156,8.9609375 24.4433594,9.140625 23.8183594,9.140625 Z M23.8183594,8.22070312 C24.2246094,8.22070312 24.5712891,8.078125 24.8583984,7.79296875 C25.1455078,7.5078125 25.3662109,7.10351562 25.5205078,6.58007812 C25.6748047,6.05664062 25.7519531,5.43554688 25.7519531,4.71679688 L25.7519531,4.70507812 C25.7519531,3.98632812 25.6748047,3.36621094 25.5205078,2.84472656 C25.3662109,2.32324219 25.1455078,1.92089844 24.8583984,1.63769531 C24.5712891,1.35449219 24.2246094,1.21289062 23.8183594,1.21289062 C23.4160156,1.21289062 23.0712891,1.35449219 22.7841797,1.63769531 C22.4970703,1.92089844 22.2773438,2.32324219 22.125,2.84472656 C21.9726562,3.36621094 21.8964844,3.98632812 21.8964844,4.70507812 L21.8964844,4.71679688 C21.8964844,5.43554688 21.9726562,6.05664062 22.125,6.58007812 C22.2773438,7.10351562 22.4970703,7.5078125 22.7841797,7.79296875 C23.0712891,8.078125 23.4160156,8.22070312 23.8183594,8.22070312 Z" id="Shape"></path>
                    <polygon id="Path" points="28.2949219 11.0917969 28.8046875 7.7578125 29.9707031 7.7578125 29.0507812 11.0917969"></polygon>
                    <path d="M37.1601562,0.486328125 L36.6503906,3.8203125 L35.484375,3.8203125 L36.4042969,0.486328125 L37.1601562,0.486328125 Z M39.1054688,0.486328125 L38.5957031,3.8203125 L37.4296875,3.8203125 L38.3496094,0.486328125 L39.1054688,0.486328125 Z" id="Shape"></path>
                    <polygon id="Path" points="40.4941406 8.94140625 42.65625 5.78320312 40.4707031 2.625 41.671875 2.625 43.171875 4.97460938 43.265625 4.97460938 44.7480469 2.625 45.890625 2.625 43.7460938 5.7421875 45.9199219 8.94140625 44.7246094 8.94140625 43.2304688 6.55664062 43.1367188 6.55664062 41.6367188 8.94140625"></polygon>
                    <path d="M47.2851562,3.8203125 L47.7949219,0.486328125 L48.9609375,0.486328125 L48.0410156,3.8203125 L47.2851562,3.8203125 Z M49.2304688,3.8203125 L49.7402344,0.486328125 L50.90625,0.486328125 L49.9863281,3.8203125 L49.2304688,3.8203125 Z" id="Shape"></path>
                    <path d="M53.3496094,11.0507812 L52.4941406,11.0507812 C52.7050781,10.78125 52.9013672,10.4423828 53.0830078,10.0341797 C53.2646484,9.62597656 53.421875,9.17480469 53.5546875,8.68066406 C53.6875,8.18652344 53.7910156,7.67480469 53.8652344,7.14550781 C53.9394531,6.61621094 53.9765625,6.09570312 53.9765625,5.58398438 C53.9765625,5.07617188 53.9394531,4.55761719 53.8652344,4.02832031 C53.7910156,3.49902344 53.6875,2.98730469 53.5546875,2.49316406 C53.421875,1.99902344 53.2646484,1.546875 53.0830078,1.13671875 C52.9013672,0.7265625 52.7050781,0.38671875 52.4941406,0.1171875 L53.3496094,0.1171875 C53.7324219,0.62109375 54.046875,1.15722656 54.2929688,1.72558594 C54.5390625,2.29394531 54.7207031,2.89746094 54.8378906,3.53613281 C54.9550781,4.17480469 55.0136719,4.85742188 55.0136719,5.58398438 C55.0136719,6.31054688 54.9541016,6.99414062 54.8349609,7.63476562 C54.7158203,8.27539062 54.5341797,8.87890625 54.2900391,9.4453125 C54.0458984,10.0117188 53.7324219,10.546875 53.3496094,11.0507812 Z" id="Path"></path>
                </g>
                <g id="“z”" transform="translate(242.9023, 74.4863)">
                    <path d="M1.67578125,0 L1.16601562,3.33398438 L0,3.33398438 L0.919921875,0 L1.67578125,0 Z M3.62109375,0 L3.11132812,3.33398438 L1.9453125,3.33398438 L2.86523438,0 L3.62109375,0 Z" id="Shape"></path>
                    <polygon id="Path" points="5.3671875 8.45507812 5.3671875 7.71679688 9.01171875 3.07617188 9.01171875 2.98242188 5.37304688 2.98242188 5.37304688 2.13867188 10.2128906 2.13867188 10.2128906 2.89453125 6.5859375 7.51757812 6.5859375 7.61132812 10.2304688 7.61132812 10.2304688 8.45507812"></polygon>
                    <path d="M11.9765625,3.33398438 L12.4863281,0 L13.6523438,0 L12.7324219,3.33398438 L11.9765625,3.33398438 Z M13.921875,3.33398438 L14.4316406,0 L15.5976562,0 L14.6777344,3.33398438 L13.921875,3.33398438 Z" id="Shape"></path>
                </g>
                <g id="“xz”" transform="translate(242.9023, 146.4863)">
                    <path d="M1.67578125,0 L1.16601562,3.33398438 L0,3.33398438 L0.919921875,0 L1.67578125,0 Z M3.62109375,0 L3.11132812,3.33398438 L1.9453125,3.33398438 L2.86523438,0 L3.62109375,0 Z" id="Shape"></path>
                    <polygon id="Path" points="5.00976562 8.45507812 7.171875 5.296875 4.98632812 2.13867188 6.1875 2.13867188 7.6875 4.48828125 7.78125 4.48828125 9.26367188 2.13867188 10.40625 2.13867188 8.26171875 5.25585938 10.4355469 8.45507812 9.24023438 8.45507812 7.74609375 6.0703125 7.65234375 6.0703125 6.15234375 8.45507812"></polygon>
                    <polygon id="Path" points="11.6601562 8.45507812 11.6601562 7.71679688 15.3046875 3.07617188 15.3046875 2.98242188 11.6660156 2.98242188 11.6660156 2.13867188 16.5058594 2.13867188 16.5058594 2.89453125 12.8789062 7.51757812 12.8789062 7.61132812 16.5234375 7.61132812 16.5234375 8.45507812"></polygon>
                    <path d="M18.2695312,3.33398438 L18.7792969,0 L19.9453125,0 L19.0253906,3.33398438 L18.2695312,3.33398438 Z M20.2148438,3.33398438 L20.7246094,0 L21.890625,0 L20.9707031,3.33398438 L20.2148438,3.33398438 Z" id="Shape"></path>
                </g>
                <g id="“xzy”" transform="translate(242.9023, 216.4863)">
                    <path d="M1.67578125,0 L1.16601562,3.33398438 L0,3.33398438 L0.919921875,0 L1.67578125,0 Z M3.62109375,0 L3.11132812,3.33398438 L1.9453125,3.33398438 L2.86523438,0 L3.62109375,0 Z" id="Shape"></path>
                    <polygon id="Path" points="5.00976562 8.45507812 7.171875 5.296875 4.98632812 2.13867188 6.1875 2.13867188 7.6875 4.48828125 7.78125 4.48828125 9.26367188 2.13867188 10.40625 2.13867188 8.26171875 5.25585938 10.4355469 8.45507812 9.24023438 8.45507812 7.74609375 6.0703125 7.65234375 6.0703125 6.15234375 8.45507812"></polygon>
                    <polygon id="Path" points="11.6601562 8.45507812 11.6601562 7.71679688 15.3046875 3.07617188 15.3046875 2.98242188 11.6660156 2.98242188 11.6660156 2.13867188 16.5058594 2.13867188 16.5058594 2.89453125 12.8789062 7.51757812 12.8789062 7.61132812 16.5234375 7.61132812 16.5234375 8.45507812"></polygon>
                    <path d="M18.8144531,10.6699219 C18.7480469,10.6699219 18.6738281,10.6669922 18.5917969,10.6611328 C18.5097656,10.6552734 18.4335938,10.6464844 18.3632812,10.6347656 L18.3632812,9.796875 C18.4257812,9.80859375 18.4941406,9.81640625 18.5683594,9.8203125 C18.6425781,9.82421875 18.7148438,9.82617188 18.7851562,9.82617188 C19.0742188,9.82617188 19.3115234,9.75195312 19.4970703,9.60351562 C19.6826172,9.45507812 19.8320312,9.19921875 19.9453125,8.8359375 L20.0625,8.4609375 L17.7246094,2.13867188 L18.8144531,2.13867188 L20.7597656,7.97460938 L20.3554688,7.3359375 L20.8359375,7.3359375 L20.4316406,7.97460938 L22.3710938,2.13867188 L23.4433594,2.13867188 L20.9765625,8.84179688 C20.8046875,9.31445312 20.6230469,9.68359375 20.4316406,9.94921875 C20.2402344,10.2148438 20.0166016,10.4013672 19.7607422,10.5087891 C19.5048828,10.6162109 19.1894531,10.6699219 18.8144531,10.6699219 Z" id="Path"></path>
                    <path d="M24.7851562,3.33398438 L25.2949219,0 L26.4609375,0 L25.5410156,3.33398438 L24.7851562,3.33398438 Z M26.7304688,3.33398438 L27.2402344,0 L28.40625,0 L27.4863281,3.33398438 L26.7304688,3.33398438 Z" id="Shape"></path>
                </g>
                <g id="ins(0,-“y”)" transform="translate(370.7441, 27)">
                    <path d="M0.1875,8.94140625 L0.1875,2.625 L1.20703125,2.625 L1.20703125,8.94140625 L0.1875,8.94140625 Z M0.703125,1.40625 C0.51171875,1.40625 0.346679688,1.33691406 0.208007812,1.19824219 C0.0693359375,1.05957031 0,0.89453125 0,0.703125 C0,0.5078125 0.0693359375,0.341796875 0.208007812,0.205078125 C0.346679688,0.068359375 0.51171875,0 0.703125,0 C0.8984375,0 1.06445312,0.068359375 1.20117188,0.205078125 C1.33789062,0.341796875 1.40625,0.5078125 1.40625,0.703125 C1.40625,0.89453125 1.33789062,1.05957031 1.20117188,1.19824219 C1.06445312,1.33691406 0.8984375,1.40625 0.703125,1.40625 Z" id="Shape"></path>
                    <path d="M3.12890625,8.94140625 L3.12890625,2.625 L4.1484375,2.625 L4.1484375,3.57421875 L4.2421875,3.57421875 C4.40234375,3.23828125 4.6328125,2.97753906 4.93359375,2.79199219 C5.234375,2.60644531 5.6171875,2.51367188 6.08203125,2.51367188 C6.79296875,2.51367188 7.33886719,2.71582031 7.71972656,3.12011719 C8.10058594,3.52441406 8.29101562,4.1015625 8.29101562,4.8515625 L8.29101562,8.94140625 L7.27148438,8.94140625 L7.27148438,5.09765625 C7.27148438,4.52734375 7.15136719,4.10449219 6.91113281,3.82910156 C6.67089844,3.55371094 6.29882812,3.41601562 5.79492188,3.41601562 C5.45898438,3.41601562 5.16796875,3.48828125 4.921875,3.6328125 C4.67578125,3.77734375 4.48535156,3.98242188 4.35058594,4.24804688 C4.21582031,4.51367188 4.1484375,4.83203125 4.1484375,5.203125 L4.1484375,8.94140625 L3.12890625,8.94140625 Z" id="Path"></path>
                    <path d="M12.2988281,9.05273438 C11.8300781,9.05273438 11.4160156,8.98144531 11.0566406,8.83886719 C10.6972656,8.69628906 10.4091797,8.49609375 10.1923828,8.23828125 C9.97558594,7.98046875 9.84765625,7.67773438 9.80859375,7.33007812 L9.80859375,7.33007812 L10.8515625,7.33007812 L10.8515625,7.33007812 C10.9375,7.59179688 11.1054688,7.80273438 11.3554688,7.96289062 C11.6054688,8.12304688 11.9316406,8.203125 12.3339844,8.203125 C12.6191406,8.203125 12.8701172,8.16113281 13.0869141,8.07714844 C13.3037109,7.99316406 13.4746094,7.87792969 13.5996094,7.73144531 C13.7246094,7.58496094 13.7871094,7.41601562 13.7871094,7.22460938 L13.7871094,7.21289062 C13.7871094,6.99804688 13.7011719,6.81542969 13.5292969,6.66503906 C13.3574219,6.51464844 13.0761719,6.39257812 12.6855469,6.29882812 L11.7070312,6.06445312 C11.3125,5.97070312 10.9882812,5.84863281 10.734375,5.69824219 C10.4804688,5.54785156 10.2929688,5.36230469 10.171875,5.14160156 C10.0507812,4.92089844 9.99023438,4.66015625 9.99023438,4.359375 L9.99023438,4.35351562 C9.99023438,4.00195312 10.0927734,3.6875 10.2978516,3.41015625 C10.5029297,3.1328125 10.7832031,2.9140625 11.1386719,2.75390625 C11.4941406,2.59375 11.8945312,2.51367188 12.3398438,2.51367188 C12.78125,2.51367188 13.1728516,2.58300781 13.5146484,2.72167969 C13.8564453,2.86035156 14.1318359,3.05664062 14.3408203,3.31054688 C14.5498047,3.56445312 14.6777344,3.86328125 14.7246094,4.20703125 L14.7246094,4.20703125 L13.7226562,4.20703125 L13.7226562,4.20703125 C13.65625,3.95703125 13.5039062,3.75390625 13.265625,3.59765625 C13.0273438,3.44140625 12.7167969,3.36328125 12.3339844,3.36328125 C12.0839844,3.36328125 11.8613281,3.40332031 11.6660156,3.48339844 C11.4707031,3.56347656 11.3164062,3.67382812 11.203125,3.81445312 C11.0898438,3.95507812 11.0332031,4.11914062 11.0332031,4.30664062 L11.0332031,4.31835938 C11.0332031,4.45898438 11.0703125,4.58398438 11.1445312,4.69335938 C11.21875,4.80273438 11.3339844,4.8984375 11.4902344,4.98046875 C11.6464844,5.0625 11.8476562,5.13476562 12.09375,5.19726562 L13.0664062,5.43164062 C13.6601562,5.57617188 14.1025391,5.78320312 14.3935547,6.05273438 C14.6845703,6.32226562 14.8300781,6.68359375 14.8300781,7.13671875 L14.8300781,7.1484375 C14.8300781,7.5234375 14.71875,7.85449219 14.4960938,8.14160156 C14.2734375,8.42871094 13.9716797,8.65234375 13.5908203,8.8125 C13.2099609,8.97265625 12.7792969,9.05273438 12.2988281,9.05273438 Z" id="Path"></path>
                    <path d="M18.5449219,11.0507812 C18.1660156,10.546875 17.8535156,10.0117188 17.6074219,9.4453125 C17.3613281,8.87890625 17.1787109,8.27539062 17.0595703,7.63476562 C16.9404297,6.99414062 16.8808594,6.31054688 16.8808594,5.58398438 C16.8808594,4.85742188 16.9394531,4.17480469 17.0566406,3.53613281 C17.1738281,2.89746094 17.3554688,2.29394531 17.6015625,1.72558594 C17.8476562,1.15722656 18.1621094,0.62109375 18.5449219,0.1171875 L19.4003906,0.1171875 C19.1894531,0.38671875 18.9931641,0.7265625 18.8115234,1.13671875 C18.6298828,1.546875 18.4726562,1.99902344 18.3398438,2.49316406 C18.2070312,2.98730469 18.1035156,3.49902344 18.0292969,4.02832031 C17.9550781,4.55761719 17.9179688,5.07617188 17.9179688,5.58398438 C17.9179688,6.09570312 17.9550781,6.61621094 18.0292969,7.14550781 C18.1035156,7.67480469 18.2070312,8.18652344 18.3398438,8.68066406 C18.4726562,9.17480469 18.6298828,9.62597656 18.8115234,10.0341797 C18.9931641,10.4423828 19.1894531,10.78125 19.4003906,11.0507812 L18.5449219,11.0507812 Z" id="Path"></path>
                    <path d="M23.8183594,9.140625 C23.1933594,9.140625 22.6591797,8.9609375 22.2158203,8.6015625 C21.7724609,8.2421875 21.4316406,7.73144531 21.1933594,7.06933594 C20.9550781,6.40722656 20.8359375,5.62304688 20.8359375,4.71679688 L20.8359375,4.70507812 C20.8359375,3.79882812 20.9550781,3.015625 21.1933594,2.35546875 C21.4316406,1.6953125 21.7724609,1.18554688 22.2158203,0.826171875 C22.6591797,0.466796875 23.1933594,0.287109375 23.8183594,0.287109375 C24.4433594,0.287109375 24.9785156,0.466796875 25.4238281,0.826171875 C25.8691406,1.18554688 26.2119141,1.6953125 26.4521484,2.35546875 C26.6923828,3.015625 26.8125,3.79882812 26.8125,4.70507812 L26.8125,4.71679688 C26.8125,5.62304688 26.6923828,6.40722656 26.4521484,7.06933594 C26.2119141,7.73144531 25.8691406,8.2421875 25.4238281,8.6015625 C24.9785156,8.9609375 24.4433594,9.140625 23.8183594,9.140625 Z M23.8183594,8.22070312 C24.2246094,8.22070312 24.5712891,8.078125 24.8583984,7.79296875 C25.1455078,7.5078125 25.3662109,7.10351562 25.5205078,6.58007812 C25.6748047,6.05664062 25.7519531,5.43554688 25.7519531,4.71679688 L25.7519531,4.70507812 C25.7519531,3.98632812 25.6748047,3.36621094 25.5205078,2.84472656 C25.3662109,2.32324219 25.1455078,1.92089844 24.8583984,1.63769531 C24.5712891,1.35449219 24.2246094,1.21289062 23.8183594,1.21289062 C23.4160156,1.21289062 23.0712891,1.35449219 22.7841797,1.63769531 C22.4970703,1.92089844 22.2773438,2.32324219 22.125,2.84472656 C21.9726562,3.36621094 21.8964844,3.98632812 21.8964844,4.70507812 L21.8964844,4.71679688 C21.8964844,5.43554688 21.9726562,6.05664062 22.125,6.58007812 C22.2773438,7.10351562 22.4970703,7.5078125 22.7841797,7.79296875 C23.0712891,8.078125 23.4160156,8.22070312 23.8183594,8.22070312 Z" id="Shape"></path>
                    <polygon id="Path" points="28.2949219 11.0917969 28.8046875 7.7578125 29.9707031 7.7578125 29.0507812 11.0917969"></polygon>
                    <path d="M37.1601562,0.486328125 L36.6503906,3.8203125 L35.484375,3.8203125 L36.4042969,0.486328125 L37.1601562,0.486328125 Z M39.1054688,0.486328125 L38.5957031,3.8203125 L37.4296875,3.8203125 L38.3496094,0.486328125 L39.1054688,0.486328125 Z" id="Shape"></path>
                    <path d="M41.5371094,11.15625 C41.4707031,11.15625 41.3964844,11.1533203 41.3144531,11.1474609 C41.2324219,11.1416016 41.15625,11.1328125 41.0859375,11.1210938 L41.0859375,10.2832031 C41.1484375,10.2949219 41.2167969,10.3027344 41.2910156,10.3066406 C41.3652344,10.3105469 41.4375,10.3125 41.5078125,10.3125 C41.796875,10.3125 42.0341797,10.2382812 42.2197266,10.0898438 C42.4052734,9.94140625 42.5546875,9.68554688 42.6679688,9.32226562 L42.7851562,8.94726562 L40.4472656,2.625 L41.5371094,2.625 L43.4824219,8.4609375 L43.078125,7.82226562 L43.5585938,7.82226562 L43.1542969,8.4609375 L45.09375,2.625 L46.1660156,2.625 L43.6992188,9.328125 C43.5273438,9.80078125 43.3457031,10.1699219 43.1542969,10.4355469 C42.9628906,10.7011719 42.7392578,10.8876953 42.4833984,10.9951172 C42.2275391,11.1025391 41.9121094,11.15625 41.5371094,11.15625 Z" id="Path"></path>
                    <path d="M47.5078125,3.8203125 L48.0175781,0.486328125 L49.1835938,0.486328125 L48.2636719,3.8203125 L47.5078125,3.8203125 Z M49.453125,3.8203125 L49.9628906,0.486328125 L51.1289062,0.486328125 L50.2089844,3.8203125 L49.453125,3.8203125 Z" id="Shape"></path>
                    <path d="M53.5722656,11.0507812 L52.7167969,11.0507812 C52.9277344,10.78125 53.1240234,10.4423828 53.3056641,10.0341797 C53.4873047,9.62597656 53.6445312,9.17480469 53.7773438,8.68066406 C53.9101562,8.18652344 54.0136719,7.67480469 54.0878906,7.14550781 C54.1621094,6.61621094 54.1992188,6.09570312 54.1992188,5.58398438 C54.1992188,5.07617188 54.1621094,4.55761719 54.0878906,4.02832031 C54.0136719,3.49902344 53.9101562,2.98730469 53.7773438,2.49316406 C53.6445312,1.99902344 53.4873047,1.546875 53.3056641,1.13671875 C53.1240234,0.7265625 52.9277344,0.38671875 52.7167969,0.1171875 L53.5722656,0.1171875 C53.9550781,0.62109375 54.2695312,1.15722656 54.515625,1.72558594 C54.7617188,2.29394531 54.9433594,2.89746094 55.0605469,3.53613281 C55.1777344,4.17480469 55.2363281,4.85742188 55.2363281,5.58398438 C55.2363281,6.31054688 55.1767578,6.99414062 55.0576172,7.63476562 C54.9384766,8.27539062 54.7568359,8.87890625 54.5126953,9.4453125 C54.2685547,10.0117188 53.9550781,10.546875 53.5722656,11.0507812 Z" id="Path"></path>
                </g>
                <g id="“y”" transform="translate(370.9023, 41.4863)">
                    <path d="M1.67578125,0 L1.16601562,3.33398438 L0,3.33398438 L0.919921875,0 L1.67578125,0 Z M3.62109375,0 L3.11132812,3.33398438 L1.9453125,3.33398438 L2.86523438,0 L3.62109375,0 Z" id="Shape"></path>
                    <path d="M6.05273438,10.6699219 C5.98632812,10.6699219 5.91210938,10.6669922 5.83007812,10.6611328 C5.74804688,10.6552734 5.671875,10.6464844 5.6015625,10.6347656 L5.6015625,9.796875 C5.6640625,9.80859375 5.73242188,9.81640625 5.80664062,9.8203125 C5.88085938,9.82421875 5.953125,9.82617188 6.0234375,9.82617188 C6.3125,9.82617188 6.54980469,9.75195312 6.73535156,9.60351562 C6.92089844,9.45507812 7.0703125,9.19921875 7.18359375,8.8359375 L7.30078125,8.4609375 L4.96289062,2.13867188 L6.05273438,2.13867188 L7.99804688,7.97460938 L7.59375,7.3359375 L8.07421875,7.3359375 L7.66992188,7.97460938 L9.609375,2.13867188 L10.6816406,2.13867188 L8.21484375,8.84179688 C8.04296875,9.31445312 7.86132812,9.68359375 7.66992188,9.94921875 C7.47851562,10.2148438 7.25488281,10.4013672 6.99902344,10.5087891 C6.74316406,10.6162109 6.42773438,10.6699219 6.05273438,10.6699219 Z" id="Path"></path>
                    <path d="M12.0234375,3.33398438 L12.5332031,0 L13.6992188,0 L12.7792969,3.33398438 L12.0234375,3.33398438 Z M13.96875,3.33398438 L14.4785156,0 L15.6445312,0 L14.7246094,3.33398438 L13.96875,3.33398438 Z" id="Shape"></path>
                </g>
                <g id="“zyx”" transform="translate(370.9023, 163.4863)">
                    <path d="M1.67578125,0 L1.16601562,3.33398438 L0,3.33398438 L0.919921875,0 L1.67578125,0 Z M3.62109375,0 L3.11132812,3.33398438 L1.9453125,3.33398438 L2.86523438,0 L3.62109375,0 Z" id="Shape"></path>
                    <polygon id="Path" points="5.3671875 8.45507812 5.3671875 7.71679688 9.01171875 3.07617188 9.01171875 2.98242188 5.37304688 2.98242188 5.37304688 2.13867188 10.2128906 2.13867188 10.2128906 2.89453125 6.5859375 7.51757812 6.5859375 7.61132812 10.2304688 7.61132812 10.2304688 8.45507812"></polygon>
                    <path d="M12.5214844,10.6699219 C12.4550781,10.6699219 12.3808594,10.6669922 12.2988281,10.6611328 C12.2167969,10.6552734 12.140625,10.6464844 12.0703125,10.6347656 L12.0703125,9.796875 C12.1328125,9.80859375 12.2011719,9.81640625 12.2753906,9.8203125 C12.3496094,9.82421875 12.421875,9.82617188 12.4921875,9.82617188 C12.78125,9.82617188 13.0185547,9.75195312 13.2041016,9.60351562 C13.3896484,9.45507812 13.5390625,9.19921875 13.6523438,8.8359375 L13.7695312,8.4609375 L11.4316406,2.13867188 L12.5214844,2.13867188 L14.4667969,7.97460938 L14.0625,7.3359375 L14.5429688,7.3359375 L14.1386719,7.97460938 L16.078125,2.13867188 L17.1503906,2.13867188 L14.6835938,8.84179688 C14.5117188,9.31445312 14.3300781,9.68359375 14.1386719,9.94921875 C13.9472656,10.2148438 13.7236328,10.4013672 13.4677734,10.5087891 C13.2119141,10.6162109 12.8964844,10.6699219 12.5214844,10.6699219 Z" id="Path"></path>
                    <polygon id="Path" points="17.9941406 8.45507812 20.15625 5.296875 17.9707031 2.13867188 19.171875 2.13867188 20.671875 4.48828125 20.765625 4.48828125 22.2480469 2.13867188 23.390625 2.13867188 21.2460938 5.25585938 23.4199219 8.45507812 22.2246094 8.45507812 20.7304688 6.0703125 20.6367188 6.0703125 19.1367188 8.45507812"></polygon>
                    <path d="M24.7851562,3.33398438 L25.2949219,0 L26.4609375,0 L25.5410156,3.33398438 L24.7851562,3.33398438 Z M26.7304688,3.33398438 L27.2402344,0 L28.40625,0 L27.4863281,3.33398438 L26.7304688,3.33398438 Z" id="Shape"></path>
                </g>
                <g id="“zy”" transform="translate(370.9023, 84.4863)">
                    <path d="M1.67578125,0 L1.16601562,3.33398438 L0,3.33398438 L0.919921875,0 L1.67578125,0 Z M3.62109375,0 L3.11132812,3.33398438 L1.9453125,3.33398438 L2.86523438,0 L3.62109375,0 Z" id="Shape"></path>
                    <polygon id="Path" points="5.3671875 8.45507812 5.3671875 7.71679688 9.01171875 3.07617188 9.01171875 2.98242188 5.37304688 2.98242188 5.37304688 2.13867188 10.2128906 2.13867188 10.2128906 2.89453125 6.5859375 7.51757812 6.5859375 7.61132812 10.2304688 7.61132812 10.2304688 8.45507812"></polygon>
                    <path d="M12.5214844,10.6699219 C12.4550781,10.6699219 12.3808594,10.6669922 12.2988281,10.6611328 C12.2167969,10.6552734 12.140625,10.6464844 12.0703125,10.6347656 L12.0703125,9.796875 C12.1328125,9.80859375 12.2011719,9.81640625 12.2753906,9.8203125 C12.3496094,9.82421875 12.421875,9.82617188 12.4921875,9.82617188 C12.78125,9.82617188 13.0185547,9.75195312 13.2041016,9.60351562 C13.3896484,9.45507812 13.5390625,9.19921875 13.6523438,8.8359375 L13.7695312,8.4609375 L11.4316406,2.13867188 L12.5214844,2.13867188 L14.4667969,7.97460938 L14.0625,7.3359375 L14.5429688,7.3359375 L14.1386719,7.97460938 L16.078125,2.13867188 L17.1503906,2.13867188 L14.6835938,8.84179688 C14.5117188,9.31445312 14.3300781,9.68359375 14.1386719,9.94921875 C13.9472656,10.2148438 13.7236328,10.4013672 13.4677734,10.5087891 C13.2119141,10.6162109 12.8964844,10.6699219 12.5214844,10.6699219 Z" id="Path"></path>
                    <path d="M18.4921875,3.33398438 L19.0019531,0 L20.1679688,0 L19.2480469,3.33398438 L18.4921875,3.33398438 Z M20.4375,3.33398438 L20.9472656,0 L22.1132812,0 L21.1933594,3.33398438 L20.4375,3.33398438 Z" id="Shape"></path>
                </g>
            </g>
            <line x1="263" y1="18.5" x2="263" y2="241" id="Path-Copy" stroke="#000000" stroke-width="2"></line>
            <line x1="391" y1="18.5" x2="391" y2="241" id="Path-Copy-3" stroke="#000000" stroke-width="2"></line>
        </g>
    </g>
</svg>