<svg width="881" height="471" xmlns="http://www.w3.org/2000/svg" xmlns:xlink="http://www.w3.org/1999/xlink" fill="#ffffff"><defs><style>
  text {
    fill: #212529;
    font-family: Helvetica Neue, Helvetica, Arial, sans-serif;
    font-size: 16px;
  }

  marker, text {
    fill-opacity: 1;
  }

  * {
    overflow: visible;
  }
</style></defs><svg x="15" y="15" width="700" height="440" class="Consumer Client" fill="#ffffff"><g data-cy="uml-subsystem"><rect width="100%" height="100%" stroke="black" fill="white" class="sc-fqkvVR uHYUy"></rect><g transform="translate(669, 7)"><path d="M 4.8 0 L 24 0 L 24 24 L 4.8 24 L 4.8 19.2 L 0 19.2 L 0 14.4 L 4.8 14.4 L 4.8 9.6 L 0 9.6 L 0 4.8 L 4.8 4.8 Z" stroke-width="1.2" stroke-miterlimit="10" stroke="black" fill="white" class="sc-gEvEer fkqzOi"></path><path d="M 4.8 4.8 L 9.6 4.8 L 9.6 9.6 L 4.8 9.6 M 4.8 14.4 L 9.6 14.4 L 9.6 19.2 L 4.8 19.2" stroke-width="1.2" stroke-miterlimit="10" stroke="black" fill="none" class="sc-gEvEer bFSwyf"></path></g><text x="50%" y="25px" dominant-baseline="middle" text-anchor="middle" font-weight="bold" pointer-events="none"><tspan x="50%" dy="-8" text-anchor="middle" font-size="85%">«subsystem»</tspan><tspan x="50%" dy="18" text-anchor="middle">Consumer Client</tspan></text></g></svg><svg x="25" y="205" width="680" height="240" class="Apollon" fill="#ffffff"><g data-cy="uml-subsystem"><rect width="100%" height="100%" stroke="black" fill="white" class="sc-fqkvVR uHYUy"></rect><g transform="translate(649, 7)"><path d="M 4.8 0 L 24 0 L 24 24 L 4.8 24 L 4.8 19.2 L 0 19.2 L 0 14.4 L 4.8 14.4 L 4.8 9.6 L 0 9.6 L 0 4.8 L 4.8 4.8 Z" stroke-width="1.2" stroke-miterlimit="10" stroke="black" fill="white" class="sc-gEvEer fkqzOi"></path><path d="M 4.8 4.8 L 9.6 4.8 L 9.6 9.6 L 4.8 9.6 M 4.8 14.4 L 9.6 14.4 L 9.6 19.2 L 4.8 19.2" stroke-width="1.2" stroke-miterlimit="10" stroke="black" fill="none" class="sc-gEvEer bFSwyf"></path></g><text x="50%" y="25px" dominant-baseline="middle" text-anchor="middle" font-weight="bold" pointer-events="none"><tspan x="50%" dy="-8" text-anchor="middle" font-size="85%">«subsystem»</tspan><tspan x="50%" dy="18" text-anchor="middle">Apollon</tspan></text></g></svg><svg x="225" y="255" width="180" height="50" class="Editor GUI" fill="#ffffff"><g data-cy="uml-component"><rect width="100%" height="100%" stroke="black" fill="white" class="sc-fqkvVR uHYUy"></rect><g transform="translate(149, 7)"><path d="M 4.8 0 L 24 0 L 24 24 L 4.8 24 L 4.8 19.2 L 0 19.2 L 0 14.4 L 4.8 14.4 L 4.8 9.6 L 0 9.6 L 0 4.8 L 4.8 4.8 Z" stroke-width="1.2" stroke-miterlimit="10" stroke="black" fill="white" class="sc-gEvEer fkqzOi"></path><path d="M 4.8 4.8 L 9.6 4.8 L 9.6 9.6 L 4.8 9.6 M 4.8 14.4 L 9.6 14.4 L 9.6 19.2 L 4.8 19.2" stroke-width="1.2" stroke-miterlimit="10" stroke="black" fill="none" class="sc-gEvEer bFSwyf"></path></g><text x="50%" y="50%" dominant-baseline="middle" text-anchor="middle" font-weight="bold" pointer-events="none"><tspan x="50%" dy="-8" text-anchor="middle" font-size="85%">«component»</tspan><tspan x="50%" dy="18" text-anchor="middle">Editor GUI</tspan></text></g></svg><svg x="475" y="255" width="200" height="50" class="Diagram Renderer" fill="#ffffff"><g data-cy="uml-component"><rect width="100%" height="100%" stroke="black" fill="white" class="sc-fqkvVR uHYUy"></rect><g transform="translate(169, 7)"><path d="M 4.8 0 L 24 0 L 24 24 L 4.8 24 L 4.8 19.2 L 0 19.2 L 0 14.4 L 4.8 14.4 L 4.8 9.6 L 0 9.6 L 0 4.8 L 4.8 4.8 Z" stroke-width="1.2" stroke-miterlimit="10" stroke="black" fill="white" class="sc-gEvEer fkqzOi"></path><path d="M 4.8 4.8 L 9.6 4.8 L 9.6 9.6 L 4.8 9.6 M 4.8 14.4 L 9.6 14.4 L 9.6 19.2 L 4.8 19.2" stroke-width="1.2" stroke-miterlimit="10" stroke="black" fill="none" class="sc-gEvEer bFSwyf"></path></g><text x="50%" y="50%" dominant-baseline="middle" text-anchor="middle" font-weight="bold" pointer-events="none"><tspan x="50%" dy="-8" text-anchor="middle" font-size="85%">«component»</tspan><tspan x="50%" dy="18" text-anchor="middle">Diagram Renderer</tspan></text></g></svg><svg x="315" y="385" width="180" height="50" class="Core Model" fill="#fed330"><g data-cy="uml-component"><rect width="100%" height="100%" stroke="black" fill="#fed330" class="sc-fqkvVR RyWfp"></rect><g transform="translate(149, 7)"><path d="M 4.8 0 L 24 0 L 24 24 L 4.8 24 L 4.8 19.2 L 0 19.2 L 0 14.4 L 4.8 14.4 L 4.8 9.6 L 0 9.6 L 0 4.8 L 4.8 4.8 Z" stroke-width="1.2" stroke-miterlimit="10" stroke="black" fill="#fed330" class="sc-gEvEer clWgYZ"></path><path d="M 4.8 4.8 L 9.6 4.8 L 9.6 9.6 L 4.8 9.6 M 4.8 14.4 L 9.6 14.4 L 9.6 19.2 L 4.8 19.2" stroke-width="1.2" stroke-miterlimit="10" stroke="black" fill="none" class="sc-gEvEer bFSwyf"></path></g><text x="50%" y="50%" dominant-baseline="middle" text-anchor="middle" font-weight="bold" pointer-events="none"><tspan x="50%" dy="-8" text-anchor="middle" font-size="85%">«component»</tspan><tspan x="50%" dy="18" text-anchor="middle">Core Model</tspan></text></g></svg><svg x="55" y="255" width="140" height="50" class="Patcher" fill="#45aaf2"><g data-cy="uml-component"><rect width="100%" height="100%" stroke="black" fill="#45aaf2" class="sc-fqkvVR dWXgEz"></rect><g transform="translate(109, 7)"><path d="M 4.8 0 L 24 0 L 24 24 L 4.8 24 L 4.8 19.2 L 0 19.2 L 0 14.4 L 4.8 14.4 L 4.8 9.6 L 0 9.6 L 0 4.8 L 4.8 4.8 Z" stroke-width="1.2" stroke-miterlimit="10" stroke="black" fill="#45aaf2" class="sc-gEvEer QgEaz"></path><path d="M 4.8 4.8 L 9.6 4.8 L 9.6 9.6 L 4.8 9.6 M 4.8 14.4 L 9.6 14.4 L 9.6 19.2 L 4.8 19.2" stroke-width="1.2" stroke-miterlimit="10" stroke="black" fill="none" class="sc-gEvEer bFSwyf"></path></g><text x="50%" y="50%" dominant-baseline="middle" text-anchor="middle" font-weight="bold" pointer-events="none"><tspan x="50%" dy="-8" text-anchor="middle" font-size="85%">«component»</tspan><tspan x="50%" dy="18" text-anchor="middle">Patcher</tspan></text></g></svg><svg x="305" y="155" width="20" height="20" class="ApollonEditor" fill="#ffffff"><g><circle cx="50%" cy="50%" r="10" stroke-width="2" stroke="black" fill="white" class="sc-iGgWBj fYmGgq"></circle><text x="25px" dominant-baseline="auto" text-anchor="start" font-weight="bold" pointer-events="none">ApollonEditor</text></g></svg><svg x="125" y="75" width="160" height="40" class="Collab." fill="#fed330"><g data-cy="uml-component"><rect width="100%" height="100%" stroke="black" fill="#fed330" class="sc-fqkvVR RyWfp"></rect><g transform="translate(129, 7)"><path d="M 4.8 0 L 24 0 L 24 24 L 4.8 24 L 4.8 19.2 L 0 19.2 L 0 14.4 L 4.8 14.4 L 4.8 9.6 L 0 9.6 L 0 4.8 L 4.8 4.8 Z" stroke-width="1.2" stroke-miterlimit="10" stroke="black" fill="#fed330" class="sc-gEvEer clWgYZ"></path><path d="M 4.8 4.8 L 9.6 4.8 L 9.6 9.6 L 4.8 9.6 M 4.8 14.4 L 9.6 14.4 L 9.6 19.2 L 4.8 19.2" stroke-width="1.2" stroke-miterlimit="10" stroke="black" fill="none" class="sc-gEvEer bFSwyf"></path></g><text x="50%" y="50%" dominant-baseline="middle" text-anchor="middle" font-weight="bold" pointer-events="none"><tspan x="50%" dy="-8" text-anchor="middle" font-size="85%">«component»</tspan><tspan x="50%" dy="18" text-anchor="middle">Collab.</tspan></text></g></svg><svg x="345" y="75" width="220" height="40" class="Local Persistence" fill="#ffffff"><g data-cy="uml-component"><rect width="100%" height="100%" stroke="black" fill="white" class="sc-fqkvVR uHYUy"></rect><g transform="translate(189, 7)"><path d="M 4.8 0 L 24 0 L 24 24 L 4.8 24 L 4.8 19.2 L 0 19.2 L 0 14.4 L 4.8 14.4 L 4.8 9.6 L 0 9.6 L 0 4.8 L 4.8 4.8 Z" stroke-width="1.2" stroke-miterlimit="10" stroke="black" fill="white" class="sc-gEvEer fkqzOi"></path><path d="M 4.8 4.8 L 9.6 4.8 L 9.6 9.6 L 4.8 9.6 M 4.8 14.4 L 9.6 14.4 L 9.6 19.2 L 4.8 19.2" stroke-width="1.2" stroke-miterlimit="10" stroke="black" fill="none" class="sc-gEvEer bFSwyf"></path></g><text x="50%" y="50%" dominant-baseline="middle" text-anchor="middle" font-weight="bold" pointer-events="none"><tspan x="50%" dy="-8" text-anchor="middle" font-size="85%">«component»</tspan><tspan x="50%" dy="18" text-anchor="middle">Local Persistence</tspan></text></g></svg><svg x="745" y="355" width="120" height="40" class="Modified" fill="#fed330"><g><path d="M 0 0 L 105 0 L 120 15 L 120 40 L 0 40 L 0 0 Z" stroke-width="1.2" stroke-miterlimit="10" stroke="black" fill="#fed330" class="sc-gEvEer clWgYZ"></path><path d="M 105 0 L 105 15 L 120 15" stroke-width="1.2" stroke-miterlimit="10" stroke="black" fill="none" class="sc-gEvEer bFSwyf"></path><text x="60" y="20" text-anchor="middle" width="120" height="40" font-weight="bold" pointer-events="none"><tspan x="60" dy="5.5">Modified</tspan></text></g></svg><svg x="745" y="415" width="120" height="40" class="Added" fill="#45aaf2"><g><path d="M 0 0 L 105 0 L 120 15 L 120 40 L 0 40 L 0 0 Z" stroke-width="1.2" stroke-miterlimit="10" stroke="black" fill="#45aaf2" class="sc-gEvEer QgEaz"></path><path d="M 105 0 L 105 15 L 120 15" stroke-width="1.2" stroke-miterlimit="10" stroke="black" fill="none" class="sc-gEvEer bFSwyf"></path><text x="60" y="20" text-anchor="middle" width="120" height="40" font-weight="bold" pointer-events="none"><tspan x="60" dy="5.5">Added</tspan></text></g></svg><svg x="405" y="280" width="70" height="1" class="" fill="#ffffff"><g><marker id="marker-64a22ac9-10b4-4ed3-b287-4dd72f1fc5e5" viewBox="0 0 30 30" markerWidth="22" markerHeight="30" refX="30" refY="15" orient="auto" markerUnits="strokeWidth"><path d="M0,29 L30,15 L0,1" stroke="black" fill="none" class="sc-gEvEer bFSwyf"></path></marker><polyline points="0 0,70 0" stroke-width="1" stroke-dasharray="7" marker-end="url(#marker-64a22ac9-10b4-4ed3-b287-4dd72f1fc5e5)" stroke="black" fill="none" class="sc-aXZVg eMElBf"></polyline></g></svg><svg x="360" y="305" width="1" height="80" class="" fill="#ffffff"><g><marker id="marker-6a6f4181-ad11-4b3f-ba2d-3f70e8cb446a" viewBox="0 0 30 30" markerWidth="22" markerHeight="30" refX="30" refY="15" orient="auto" markerUnits="strokeWidth"><path d="M0,29 L30,15 L0,1" stroke="black" fill="none" class="sc-gEvEer bFSwyf"></path></marker><polyline points="0 0,0 80" stroke-width="1" stroke-dasharray="7" marker-end="url(#marker-6a6f4181-ad11-4b3f-ba2d-3f70e8cb446a)" stroke="black" fill="none" class="sc-aXZVg eMElBf"></polyline></g></svg><svg x="315" y="175" width="1" height="80" class="" fill="#ffffff"><g><polyline points="0 80,0 0" stroke="black" fill="none" class="sc-aXZVg eMElBf"></polyline></g></svg><svg x="312" y="115" width="143" height="64" class="" fill="#ffffff"><g><marker id="marker-ea6adfb0-ef37-4db7-878e-63ef6690f96e" viewBox="0 0 27 27" markerWidth="27" markerHeight="27" refX="0" refY="0" orient="auto" markerUnits="strokeWidth"><path d="M 8 -12.5 C -3.5 -7.5 -3.3 7.9 8 12.5" stroke-width="2" stroke="black" fill="none" class="sc-gEvEer bFSwyf"></path></marker><polyline points="143 0,143 50,16 50" stroke-width="1" marker-end="url(#marker-ea6adfb0-ef37-4db7-878e-63ef6690f96e)" stroke="black" fill="none" class="sc-aXZVg eMElBf"></polyline></g></svg><svg x="205" y="115" width="114" height="64" class="" fill="#ffffff"><g><marker id="marker-6d7437c5-034c-4d4e-98c6-1f2e46fd7319" viewBox="0 0 27 27" markerWidth="27" markerHeight="27" refX="0" refY="0" orient="auto" markerUnits="strokeWidth"><path d="M 8 -12.5 C -3.5 -7.5 -3.3 7.9 8 12.5" stroke-width="2" stroke="black" fill="none" class="sc-gEvEer bFSwyf"></path></marker><polyline points="0 0,0 50,97 50" stroke-width="1" marker-end="url(#marker-6d7437c5-034c-4d4e-98c6-1f2e46fd7319)" stroke="black" fill="none" class="sc-aXZVg eMElBf"></polyline></g></svg><svg x="405" y="305" width="170" height="80" class="" fill="#ffffff"><g><marker id="marker-25b3505c-d8cd-4a49-9bb9-291b1e3bebd3" viewBox="0 0 30 30" markerWidth="22" markerHeight="30" refX="30" refY="15" orient="auto" markerUnits="strokeWidth"><path d="M0,29 L30,15 L0,1" stroke="black" fill="none" class="sc-gEvEer bFSwyf"></path></marker><polyline points="170 0,170 40,0 40,0 80" stroke-width="1" stroke-dasharray="7" marker-end="url(#marker-25b3505c-d8cd-4a49-9bb9-291b1e3bebd3)" stroke="black" fill="none" class="sc-aXZVg eMElBf"></polyline></g></svg><svg x="125" y="305" width="190" height="105" class="" fill="#ffffff"><g><marker id="marker-76246787-f275-4012-941a-fcd771201848" viewBox="0 0 30 30" markerWidth="22" markerHeight="30" refX="30" refY="15" orient="auto" markerUnits="strokeWidth"><path d="M0,29 L30,15 L0,1" stroke="#4b7bec" fill="none" class="sc-gEvEer cpxDMo"></path></marker><polyline points="0 0,0 105,190 105" stroke-width="1" stroke-dasharray="7" marker-end="url(#marker-76246787-f275-4012-941a-fcd771201848)" stroke="#4b7bec" fill="none" class="sc-aXZVg bYpJhg"></polyline></g></svg><svg x="125" y="175" width="190" height="80" class="" fill="#ffffff"><g><polyline points="0 80,0 40,190 40,190 0" stroke="#4b7bec" fill="none" class="sc-aXZVg bYpJhg"></polyline></g></svg></svg>