<svg width="372.2265625" height="666" xmlns="http://www.w3.org/2000/svg" xmlns:xlink="http://www.w3.org/1999/xlink" fill="#ffffff"><defs><style>
  text {
    fill: #212529;
    font-family: Helvetica Neue, Helvetica, Arial, sans-serif;
    font-size: 16px;
  }

  marker, text {
    fill-opacity: 1;
  }

  * {
    overflow: visible;
  }
</style></defs><svg x="166.2265625" y="245" width="50" height="50" class="" fill="#ffffff"><g><polyline points="25 0, 50 25, 25 50, 0 25, 25 0" stroke="black" fill="white" class="sc-aXZVg gpEgBW"></polyline><text x="25" y="25" text-anchor="middle" width="50" height="50" font-weight="bold" pointer-events="none"></text></g></svg><svg x="106.2265625" y="115" width="140" height="60" class="Operation" fill="#ffffff"><g><rect width="100%" height="100%" stroke="black" fill="white" class="sc-fqkvVR uHYUy"></rect><text x="70" y="30" text-anchor="middle" width="140" height="60" font-weight="bold" pointer-events="none"><tspan x="70" dy="5.5">Operation</tspan></text></g></svg><svg x="116.2265625" y="125" width="140" height="60" class="Operation" fill="#ffffff"><g><rect width="100%" height="100%" stroke="black" fill="white" class="sc-fqkvVR uHYUy"></rect><text x="70" y="30" text-anchor="middle" width="140" height="60" font-weight="bold" pointer-events="none"><tspan x="70" dy="5.5">Operation</tspan></text></g></svg><svg x="126.2265625" y="135" width="140" height="60" class="Operation" fill="#ffffff"><g><rect width="100%" height="100%" stroke="black" fill="white" class="sc-fqkvVR uHYUy"></rect><text x="70" y="30" text-anchor="middle" width="140" height="60" font-weight="bold" pointer-events="none"><tspan x="70" dy="5.5">Operation</tspan></text></g></svg><svg x="166.2265625" y="15" width="45" height="45" class="" fill="#ffffff"><g><circle cx="50%" cy="50%" r="22.5" fill-opacity="1" stroke="none" fill="black" class="sc-gsFSXq eLSKjx"></circle></g></svg><svg x="166.2265625" y="605" width="45" height="45" class="" fill="#ffffff"><g><circle cx="50%" cy="50%" r="20" stroke-width="5" stroke="black" fill="white" class="sc-iGgWBj fYmGgq"></circle><circle cx="50%" cy="50%" r="15" fill-opacity="1" stroke="none" fill="black" class="sc-gsFSXq eLSKjx"></circle></g></svg><svg x="36.2265625" y="435" width="140" height="60" class="Sign Op" fill="#ffffff"><g><rect rx="10" ry="10" width="100%" height="100%" stroke="black" fill="white" class="sc-fqkvVR uHYUy"></rect><text x="70" y="30" text-anchor="middle" width="140" height="60" font-weight="bold" pointer-events="none"><tspan x="70" dy="5.5">Sign Op</tspan></text></g></svg><svg x="126.2265625" y="365" width="130" height="20" class="" fill="#ffffff"><g><rect width="130" height="20" fill-opacity="1" stroke="none" fill="black" class="sc-dcJsrY fTmEzc"></rect></g></svg><svg x="216.2265625" y="435" width="140" height="60" class="Record Path" fill="#ffffff"><g><rect rx="10" ry="10" width="100%" height="100%" stroke="black" fill="white" class="sc-fqkvVR uHYUy"></rect><text x="70" y="30" text-anchor="middle" width="140" height="60" font-weight="bold" pointer-events="none"><tspan x="70" dy="5.5">Record Path</tspan></text></g></svg><svg x="126.2265625" y="535" width="130" height="20" class="" fill="#ffffff"><g><rect width="130" height="20" fill-opacity="1" stroke="none" fill="black" class="sc-dcJsrY fTmEzc"></rect></g></svg><svg x="191.2265625" y="195" width="1" height="50" class="" fill="#ffffff"><g><marker id="marker-734c5981-f0fc-4f8c-9b50-0cf293616ad2" viewBox="0 0 30 30" markerWidth="22" markerHeight="30" refX="30" refY="15" orient="auto" markerUnits="strokeWidth"><path d="M0,29 L30,15 L0,1" stroke="black" fill="none" class="sc-gEvEer bFSwyf"></path></marker><polyline points="0 0,0 50" stroke-width="1" marker-end="url(#marker-734c5981-f0fc-4f8c-9b50-0cf293616ad2)" stroke="black" fill="none" class="sc-aXZVg eMElBf"></polyline><text x="0" y="25" dx="5" dominant-baseline="middle" text-anchor="start" pointer-events="none"></text></g></svg><svg x="188.7265625" y="60" width="1" height="75" class="" fill="#ffffff"><g><marker id="marker-2daf672d-c749-43ae-98ba-a30992cbbe28" viewBox="0 0 30 30" markerWidth="22" markerHeight="30" refX="30" refY="15" orient="auto" markerUnits="strokeWidth"><path d="M0,29 L30,15 L0,1" stroke="black" fill="none" class="sc-gEvEer bFSwyf"></path></marker><polyline points="0 0,0 75" stroke-width="1" marker-end="url(#marker-2daf672d-c749-43ae-98ba-a30992cbbe28)" stroke="black" fill="none" class="sc-aXZVg eMElBf"></polyline><text x="0" y="37.5" dx="5" dominant-baseline="middle" text-anchor="start" pointer-events="none"></text></g></svg><svg x="236.2265625" y="385" width="1" height="50" class="" fill="#ffffff"><g><marker id="marker-ce56609f-c4b6-441a-b585-0c4fd44ffccd" viewBox="0 0 30 30" markerWidth="22" markerHeight="30" refX="30" refY="15" orient="auto" markerUnits="strokeWidth"><path d="M0,29 L30,15 L0,1" stroke="black" fill="none" class="sc-gEvEer bFSwyf"></path></marker><polyline points="0 0,0 50" stroke-width="1" marker-end="url(#marker-ce56609f-c4b6-441a-b585-0c4fd44ffccd)" stroke="black" fill="none" class="sc-aXZVg eMElBf"></polyline><text x="0" y="25" dx="5" dominant-baseline="middle" text-anchor="start" pointer-events="none"></text></g></svg><svg x="236.2265625" y="385" width="1" height="50" class="" fill="#ffffff"><g><marker id="marker-c0226fe3-09b0-482e-8ca9-54d05995d061" viewBox="0 0 30 30" markerWidth="22" markerHeight="30" refX="30" refY="15" orient="auto" markerUnits="strokeWidth"><path d="M0,29 L30,15 L0,1" stroke="black" fill="none" class="sc-gEvEer bFSwyf"></path></marker><polyline points="0 0,0 50" stroke-width="1" marker-end="url(#marker-c0226fe3-09b0-482e-8ca9-54d05995d061)" stroke="black" fill="none" class="sc-aXZVg eMElBf"></polyline><text x="0" y="25" dx="5" dominant-baseline="middle" text-anchor="start" pointer-events="none"></text></g></svg><svg x="151.2265625" y="385" width="1" height="50" class="" fill="#ffffff"><g><marker id="marker-5cd1fa48-9701-4718-9334-7c59189bbf3c" viewBox="0 0 30 30" markerWidth="22" markerHeight="30" refX="30" refY="15" orient="auto" markerUnits="strokeWidth"><path d="M0,29 L30,15 L0,1" stroke="black" fill="none" class="sc-gEvEer bFSwyf"></path></marker><polyline points="0 0,0 50" stroke-width="1" marker-end="url(#marker-5cd1fa48-9701-4718-9334-7c59189bbf3c)" stroke="black" fill="none" class="sc-aXZVg eMElBf"></polyline><text x="0" y="25" dx="5" dominant-baseline="middle" text-anchor="start" pointer-events="none"></text></g></svg><svg x="191.2265625" y="290" width="88.859375" height="75" class="[replace op]" fill="#ffffff"><g><marker id="marker-6a182bda-e704-4fc8-a767-83fe7130b713" viewBox="0 0 30 30" markerWidth="22" markerHeight="30" refX="30" refY="15" orient="auto" markerUnits="strokeWidth"><path d="M0,29 L30,15 L0,1" stroke="black" fill="none" class="sc-gEvEer bFSwyf"></path></marker><polyline points="0 5,0 75" stroke-width="1" marker-end="url(#marker-6a182bda-e704-4fc8-a767-83fe7130b713)" stroke="black" fill="none" class="sc-aXZVg eMElBf"></polyline><text x="0" y="40" dx="5" dominant-baseline="middle" text-anchor="start" pointer-events="none">[replace op]</text></g></svg><svg x="151.2265625" y="495" width="1" height="40" class="" fill="#ffffff"><g><marker id="marker-ea537ef0-ca0d-435b-8c3d-052f38faab40" viewBox="0 0 30 30" markerWidth="22" markerHeight="30" refX="30" refY="15" orient="auto" markerUnits="strokeWidth"><path d="M0,29 L30,15 L0,1" stroke="black" fill="none" class="sc-gEvEer bFSwyf"></path></marker><polyline points="0 0,0 40" stroke-width="1" marker-end="url(#marker-ea537ef0-ca0d-435b-8c3d-052f38faab40)" stroke="black" fill="none" class="sc-aXZVg eMElBf"></polyline><text x="0" y="20" dx="5" dominant-baseline="middle" text-anchor="start" pointer-events="none"></text></g></svg><svg x="236.2265625" y="495" width="1" height="40" class="" fill="#ffffff"><g><marker id="marker-a8a8d697-2a0a-475a-adcd-b43e0ae784ab" viewBox="0 0 30 30" markerWidth="22" markerHeight="30" refX="30" refY="15" orient="auto" markerUnits="strokeWidth"><path d="M0,29 L30,15 L0,1" stroke="black" fill="none" class="sc-gEvEer bFSwyf"></path></marker><polyline points="0 0,0 40" stroke-width="1" marker-end="url(#marker-a8a8d697-2a0a-475a-adcd-b43e0ae784ab)" stroke="black" fill="none" class="sc-aXZVg eMElBf"></polyline><text x="0" y="20" dx="5" dominant-baseline="middle" text-anchor="start" pointer-events="none"></text></g></svg><svg x="188.7265625" y="555" width="1" height="50" class="" fill="#ffffff"><g><marker id="marker-671d5b75-a4c1-4cc5-bf0d-7dc31c1bf3b4" viewBox="0 0 30 30" markerWidth="22" markerHeight="30" refX="30" refY="15" orient="auto" markerUnits="strokeWidth"><path d="M0,29 L30,15 L0,1" stroke="black" fill="none" class="sc-gEvEer bFSwyf"></path></marker><polyline points="0 0,0 50" stroke-width="1" marker-end="url(#marker-671d5b75-a4c1-4cc5-bf0d-7dc31c1bf3b4)" stroke="black" fill="none" class="sc-aXZVg eMElBf"></polyline><text x="0" y="25" dx="5" dominant-baseline="middle" text-anchor="start" pointer-events="none"></text></g></svg><svg x="126.2265625" y="270" width="160" height="360" class="" fill="#ffffff"><g><marker id="marker-e994a5bd-92a3-41ef-ac06-8d9fcfbd9613" viewBox="0 0 30 30" markerWidth="22" markerHeight="30" refX="30" refY="15" orient="auto" markerUnits="strokeWidth"><path d="M0,29 L30,15 L0,1" stroke="black" fill="none" class="sc-gEvEer bFSwyf"></path></marker><polyline points="40 0,-111.2265625 0,-111.2265625 357.5,40 357.5" stroke-width="1" marker-end="url(#marker-e994a5bd-92a3-41ef-ac06-8d9fcfbd9613)" stroke="black" fill="none" class="sc-aXZVg eMElBf"></polyline><text x="-111.2265625" y="178.75" dx="5" dominant-baseline="middle" text-anchor="start" pointer-events="none"></text></g></svg></svg>