<svg width="586" height="761" xmlns="http://www.w3.org/2000/svg" xmlns:xlink="http://www.w3.org/1999/xlink" fill="#ffffff"><defs><style>
  text {
    fill: #212529;
    font-family: Helvetica Neue, Helvetica, Arial, sans-serif;
    font-size: 16px;
  }

  marker, text {
    fill-opacity: 1;
  }

  * {
    overflow: visible;
  }
</style></defs><svg x="75" y="245" width="50" height="50" class="" fill="#ffffff"><g><polyline points="25 0, 50 25, 25 50, 0 25, 25 0" stroke="black" fill="white" class="sc-aXZVg gpEgBW"></polyline><text x="25" y="25" text-anchor="middle" width="50" height="50" font-weight="bold" pointer-events="none"></text></g></svg><svg x="245" y="675" width="160" height="70" class="remove path" fill="#ffffff"><g><rect rx="10" ry="10" width="100%" height="100%" stroke="black" fill="white" class="sc-fqkvVR uHYUy"></rect><text x="80" y="35" text-anchor="middle" width="160" height="70" font-weight="bold" pointer-events="none"><tspan x="80" dy="5.5">remove path</tspan></text></g></svg><svg x="15" y="115" width="140" height="60" class="Operation" fill="#ffffff"><g><rect width="100%" height="100%" stroke="black" fill="white" class="sc-fqkvVR uHYUy"></rect><text x="70" y="30" text-anchor="middle" width="140" height="60" font-weight="bold" pointer-events="none"><tspan x="70" dy="5.5">Operation</tspan></text></g></svg><svg x="25" y="125" width="140" height="60" class="Operation" fill="#ffffff"><g><rect width="100%" height="100%" stroke="black" fill="white" class="sc-fqkvVR uHYUy"></rect><text x="70" y="30" text-anchor="middle" width="140" height="60" font-weight="bold" pointer-events="none"><tspan x="70" dy="5.5">Operation</tspan></text></g></svg><svg x="35" y="135" width="140" height="60" class="Operation" fill="#ffffff"><g><rect width="100%" height="100%" stroke="black" fill="white" class="sc-fqkvVR uHYUy"></rect><text x="70" y="30" text-anchor="middle" width="140" height="60" font-weight="bold" pointer-events="none"><tspan x="70" dy="5.5">Operation</tspan></text></g></svg><svg x="245" y="585" width="160" height="70" class="skip operation" fill="#ffffff"><g><rect rx="10" ry="10" width="100%" height="100%" stroke="black" fill="white" class="sc-fqkvVR uHYUy"></rect><text x="80" y="35" text-anchor="middle" width="160" height="70" font-weight="bold" pointer-events="none"><tspan x="80" dy="5.5">skip operation</tspan></text></g></svg><svg x="245" y="235" width="160" height="70" class="execute operation" fill="#ffffff"><g><rect rx="10" ry="10" width="100%" height="100%" stroke="black" fill="white" class="sc-fqkvVR uHYUy"></rect><text x="80" y="35" text-anchor="middle" width="160" height="70" font-weight="bold" pointer-events="none"><tspan x="80" dy="5.5">execute operation</tspan></text></g></svg><svg x="75" y="15" width="45" height="45" class="" fill="#ffffff"><g><circle cx="50%" cy="50%" r="22.5" fill-opacity="1" stroke="none" fill="black" class="sc-gsFSXq eLSKjx"></circle></g></svg><svg x="525" y="655" width="45" height="45" class="" fill="#ffffff"><g><circle cx="50%" cy="50%" r="20" stroke-width="5" stroke="black" fill="white" class="sc-iGgWBj fYmGgq"></circle><circle cx="50%" cy="50%" r="15" fill-opacity="1" stroke="none" fill="black" class="sc-gsFSXq eLSKjx"></circle></g></svg><svg x="175" y="585" width="20" height="160" class="" fill="#ffffff"><g><rect width="20" height="160" fill-opacity="1" stroke="none" fill="black" class="sc-dcJsrY fTmEzc"></rect></g></svg><svg x="455" y="585" width="20" height="160" class="" fill="#ffffff"><g><rect width="20" height="160" fill-opacity="1" stroke="none" fill="black" class="sc-dcJsrY fTmEzc"></rect></g></svg><svg x="75" y="365" width="50" height="50" class="" fill="#ffffff"><g><polyline points="25 0, 50 25, 25 50, 0 25, 25 0" stroke="black" fill="white" class="sc-aXZVg gpEgBW"></polyline><text x="25" y="25" text-anchor="middle" width="50" height="50" font-weight="bold" pointer-events="none"></text></g></svg><svg x="75" y="475" width="50" height="50" class="" fill="#ffffff"><g><polyline points="25 0, 50 25, 25 50, 0 25, 25 0" stroke="black" fill="white" class="sc-aXZVg gpEgBW"></polyline><text x="25" y="25" text-anchor="middle" width="50" height="50" font-weight="bold" pointer-events="none"></text></g></svg><svg x="75" y="595" width="50" height="50" class="" fill="#ffffff"><g><polyline points="25 0, 50 25, 25 50, 0 25, 25 0" stroke="black" fill="white" class="sc-aXZVg gpEgBW"></polyline><text x="25" y="25" text-anchor="middle" width="50" height="50" font-weight="bold" pointer-events="none"></text></g></svg><svg x="100" y="195" width="1" height="50" class="" fill="#ffffff"><g><marker id="marker-734c5981-f0fc-4f8c-9b50-0cf293616ad2" viewBox="0 0 30 30" markerWidth="22" markerHeight="30" refX="30" refY="15" orient="auto" markerUnits="strokeWidth"><path d="M0,29 L30,15 L0,1" stroke="black" fill="none" class="sc-gEvEer bFSwyf"></path></marker><polyline points="0 0,0 50" stroke-width="1" marker-end="url(#marker-734c5981-f0fc-4f8c-9b50-0cf293616ad2)" stroke="black" fill="none" class="sc-aXZVg eMElBf"></polyline><text x="0" y="25" dx="5" dominant-baseline="middle" text-anchor="start" pointer-events="none"></text></g></svg><svg x="97.5" y="60" width="1" height="75" class="" fill="#ffffff"><g><marker id="marker-2daf672d-c749-43ae-98ba-a30992cbbe28" viewBox="0 0 30 30" markerWidth="22" markerHeight="30" refX="30" refY="15" orient="auto" markerUnits="strokeWidth"><path d="M0,29 L30,15 L0,1" stroke="black" fill="none" class="sc-gEvEer bFSwyf"></path></marker><polyline points="0 0,0 75" stroke-width="1" marker-end="url(#marker-2daf672d-c749-43ae-98ba-a30992cbbe28)" stroke="black" fill="none" class="sc-aXZVg eMElBf"></polyline><text x="0" y="37.5" dx="5" dominant-baseline="middle" text-anchor="start" pointer-events="none"></text></g></svg><svg x="195" y="620" width="50" height="1" class="" fill="#ffffff"><g><marker id="marker-b9484673-b856-49cf-9582-68db334b98c5" viewBox="0 0 30 30" markerWidth="22" markerHeight="30" refX="30" refY="15" orient="auto" markerUnits="strokeWidth"><path d="M0,29 L30,15 L0,1" stroke="black" fill="none" class="sc-gEvEer bFSwyf"></path></marker><polyline points="0 0,50 0" stroke-width="1" marker-end="url(#marker-b9484673-b856-49cf-9582-68db334b98c5)" stroke="black" fill="none" class="sc-aXZVg eMElBf"></polyline><text x="25" y="0" dy="-5" dominant-baseline="text-after-edge" text-anchor="middle" pointer-events="none"></text></g></svg><svg x="195" y="710" width="50" height="1" class="" fill="#ffffff"><g><marker id="marker-c7ef144d-4d3a-400b-85e8-684ed74dc7c2" viewBox="0 0 30 30" markerWidth="22" markerHeight="30" refX="30" refY="15" orient="auto" markerUnits="strokeWidth"><path d="M0,29 L30,15 L0,1" stroke="black" fill="none" class="sc-gEvEer bFSwyf"></path></marker><polyline points="0 0,50 0" stroke-width="1" marker-end="url(#marker-c7ef144d-4d3a-400b-85e8-684ed74dc7c2)" stroke="black" fill="none" class="sc-aXZVg eMElBf"></polyline><text x="25" y="0" dy="-5" dominant-baseline="text-after-edge" text-anchor="middle" pointer-events="none"></text></g></svg><svg x="405" y="620" width="50" height="1" class="" fill="#ffffff"><g><marker id="marker-105bdee8-6d9d-4ce5-a206-5a5f27b37b38" viewBox="0 0 30 30" markerWidth="22" markerHeight="30" refX="30" refY="15" orient="auto" markerUnits="strokeWidth"><path d="M0,29 L30,15 L0,1" stroke="black" fill="none" class="sc-gEvEer bFSwyf"></path></marker><polyline points="0 0,50 0" stroke-width="1" marker-end="url(#marker-105bdee8-6d9d-4ce5-a206-5a5f27b37b38)" stroke="black" fill="none" class="sc-aXZVg eMElBf"></polyline><text x="25" y="0" dy="-5" dominant-baseline="text-after-edge" text-anchor="middle" pointer-events="none"></text></g></svg><svg x="405" y="710" width="50" height="1" class="" fill="#ffffff"><g><marker id="marker-46f640e2-c831-4c67-94ba-61ad64e2c294" viewBox="0 0 30 30" markerWidth="22" markerHeight="30" refX="30" refY="15" orient="auto" markerUnits="strokeWidth"><path d="M0,29 L30,15 L0,1" stroke="black" fill="none" class="sc-gEvEer bFSwyf"></path></marker><polyline points="0 0,50 0" stroke-width="1" marker-end="url(#marker-46f640e2-c831-4c67-94ba-61ad64e2c294)" stroke="black" fill="none" class="sc-aXZVg eMElBf"></polyline><text x="25" y="0" dy="-5" dominant-baseline="text-after-edge" text-anchor="middle" pointer-events="none"></text></g></svg><svg x="405" y="270" width="142.5" height="385" class="" fill="#ffffff"><g><marker id="marker-e9d3d229-ca40-4221-9322-1059c6c71c6f" viewBox="0 0 30 30" markerWidth="22" markerHeight="30" refX="30" refY="15" orient="auto" markerUnits="strokeWidth"><path d="M0,29 L30,15 L0,1" stroke="black" fill="none" class="sc-gEvEer bFSwyf"></path></marker><polyline points="0 0,142.5 0,142.5 385" stroke-width="1" marker-end="url(#marker-e9d3d229-ca40-4221-9322-1059c6c71c6f)" stroke="black" fill="none" class="sc-aXZVg eMElBf"></polyline><text x="142.5" y="121.25" dx="5" dominant-baseline="middle" text-anchor="start" pointer-events="none"></text></g></svg><svg x="125" y="270" width="120" height="1" class="" fill="#ffffff"><g><marker id="marker-2a6ce225-9b85-413e-b981-e16d15cac903" viewBox="0 0 30 30" markerWidth="22" markerHeight="30" refX="30" refY="15" orient="auto" markerUnits="strokeWidth"><path d="M0,29 L30,15 L0,1" stroke="black" fill="none" class="sc-gEvEer bFSwyf"></path></marker><polyline points="0 0,120 0" stroke-width="1" marker-end="url(#marker-2a6ce225-9b85-413e-b981-e16d15cac903)" stroke="black" fill="none" class="sc-aXZVg eMElBf"></polyline><text x="60" y="0" dy="-5" dominant-baseline="text-after-edge" text-anchor="middle" pointer-events="none"></text></g></svg><svg x="100" y="290" width="61" height="75" class="[signed]" fill="#ffffff"><g><marker id="marker-339b0505-e74e-4ab1-b34a-2fa433168471" viewBox="0 0 30 30" markerWidth="22" markerHeight="30" refX="30" refY="15" orient="auto" markerUnits="strokeWidth"><path d="M0,29 L30,15 L0,1" stroke="black" fill="none" class="sc-gEvEer bFSwyf"></path></marker><polyline points="0 5,0 75" stroke-width="1" marker-end="url(#marker-339b0505-e74e-4ab1-b34a-2fa433168471)" stroke="black" fill="none" class="sc-aXZVg eMElBf"></polyline><text x="0" y="40" dx="5" dominant-baseline="middle" text-anchor="start" pointer-events="none">[signed]</text></g></svg><svg x="475" y="677.5" width="50" height="1" class="" fill="#ffffff"><g><marker id="marker-32a280d6-3759-451d-ae72-e3ee172c1421" viewBox="0 0 30 30" markerWidth="22" markerHeight="30" refX="30" refY="15" orient="auto" markerUnits="strokeWidth"><path d="M0,29 L30,15 L0,1" stroke="black" fill="none" class="sc-gEvEer bFSwyf"></path></marker><polyline points="0 0,50 0" stroke-width="1" marker-end="url(#marker-32a280d6-3759-451d-ae72-e3ee172c1421)" stroke="black" fill="none" class="sc-aXZVg eMElBf"></polyline><text x="25" y="0" dy="-5" dominant-baseline="text-after-edge" text-anchor="middle" pointer-events="none"></text></g></svg><svg x="125" y="305" width="200" height="85" class="" fill="#ffffff"><g><marker id="marker-1529384b-3a6e-41c7-93f9-ba28c09305d9" viewBox="0 0 30 30" markerWidth="22" markerHeight="30" refX="30" refY="15" orient="auto" markerUnits="strokeWidth"><path d="M0,29 L30,15 L0,1" stroke="black" fill="none" class="sc-gEvEer bFSwyf"></path></marker><polyline points="0 85,200 85,200 0" stroke-width="1" marker-end="url(#marker-1529384b-3a6e-41c7-93f9-ba28c09305d9)" stroke="black" fill="none" class="sc-aXZVg eMElBf"></polyline><text x="142.5" y="85" dy="-5" dominant-baseline="text-after-edge" text-anchor="middle" pointer-events="none"></text></g></svg><svg x="100" y="405" width="113.7734375" height="70" class="[path recorded]" fill="#ffffff"><g><marker id="marker-b26a2880-24db-484d-8bf0-7e6a81818456" viewBox="0 0 30 30" markerWidth="22" markerHeight="30" refX="30" refY="15" orient="auto" markerUnits="strokeWidth"><path d="M0,29 L30,15 L0,1" stroke="black" fill="none" class="sc-gEvEer bFSwyf"></path></marker><polyline points="0 10,0 70" stroke-width="1" marker-end="url(#marker-b26a2880-24db-484d-8bf0-7e6a81818456)" stroke="black" fill="none" class="sc-aXZVg eMElBf"></polyline><text x="0" y="40" dx="5" dominant-baseline="middle" text-anchor="start" pointer-events="none">[path recorded]</text></g></svg><svg x="125" y="500" width="200" height="85" class="" fill="#ffffff"><g><marker id="marker-74581d08-6785-45e5-bf61-b167bc67d230" viewBox="0 0 30 30" markerWidth="22" markerHeight="30" refX="30" refY="15" orient="auto" markerUnits="strokeWidth"><path d="M0,29 L30,15 L0,1" stroke="black" fill="none" class="sc-gEvEer bFSwyf"></path></marker><polyline points="0 0,200 0,200 85" stroke-width="1" marker-end="url(#marker-74581d08-6785-45e5-bf61-b167bc67d230)" stroke="black" fill="none" class="sc-aXZVg eMElBf"></polyline><text x="142.5" y="0" dy="-5" dominant-baseline="text-after-edge" text-anchor="middle" pointer-events="none"></text></g></svg><svg x="125" y="620" width="50" height="1" class="" fill="#ffffff"><g><marker id="marker-164735f0-1bd8-43bc-ae6a-773f4cd912a2" viewBox="0 0 30 30" markerWidth="22" markerHeight="30" refX="30" refY="15" orient="auto" markerUnits="strokeWidth"><path d="M0,29 L30,15 L0,1" stroke="black" fill="none" class="sc-gEvEer bFSwyf"></path></marker><polyline points="0 0,50 0" stroke-width="1" marker-end="url(#marker-164735f0-1bd8-43bc-ae6a-773f4cd912a2)" stroke="black" fill="none" class="sc-aXZVg eMElBf"></polyline><text x="25" y="0" dy="-5" dominant-baseline="text-after-edge" text-anchor="middle" pointer-events="none"></text></g></svg><svg x="100" y="520" width="92.109375" height="75" class="[self-signed]" fill="#ffffff"><g><marker id="marker-d05fd075-85cf-49bb-b156-6c7e368de5f4" viewBox="0 0 30 30" markerWidth="22" markerHeight="30" refX="30" refY="15" orient="auto" markerUnits="strokeWidth"><path d="M0,29 L30,15 L0,1" stroke="black" fill="none" class="sc-gEvEer bFSwyf"></path></marker><polyline points="0 5,0 75" stroke-width="1" marker-end="url(#marker-d05fd075-85cf-49bb-b156-6c7e368de5f4)" stroke="black" fill="none" class="sc-aXZVg eMElBf"></polyline><text x="0" y="40" dx="5" dominant-baseline="middle" text-anchor="start" pointer-events="none">[self-signed]</text></g></svg></svg>