<svg width="661" height="741" xmlns="http://www.w3.org/2000/svg" xmlns:xlink="http://www.w3.org/1999/xlink" fill="#ffffff"><defs><style>
  text {
    fill: #212529;
    font-family: Helvetica Neue, Helvetica, Arial, sans-serif;
    font-size: 16px;
  }

  marker, text {
    fill-opacity: 1;
  }

  * {
    overflow: visible;
  }
</style></defs><svg x="25" y="215" width="620" height="510" class="Integrating Platform Client" fill="#ffffff"><g data-cy="uml-subsystem"><rect width="100%" height="100%" stroke="black" fill="white" class="sc-fqkvVR uHYUy"></rect><g transform="translate(589, 7)"><path d="M 4.8 0 L 24 0 L 24 24 L 4.8 24 L 4.8 19.2 L 0 19.2 L 0 14.4 L 4.8 14.4 L 4.8 9.6 L 0 9.6 L 0 4.8 L 4.8 4.8 Z" stroke-width="1.2" stroke-miterlimit="10" stroke="black" fill="white" class="sc-gEvEer fkqzOi"></path><path d="M 4.8 4.8 L 9.6 4.8 L 9.6 9.6 L 4.8 9.6 M 4.8 14.4 L 9.6 14.4 L 9.6 19.2 L 4.8 19.2" stroke-width="1.2" stroke-miterlimit="10" stroke="black" fill="none" class="sc-gEvEer bFSwyf"></path></g><text x="50%" y="25px" dominant-baseline="middle" text-anchor="middle" font-weight="bold" pointer-events="none"><tspan x="50%" dy="-8" text-anchor="middle" font-size="85%">«subsystem»</tspan><tspan x="50%" dy="18" text-anchor="middle">Integrating Platform Client</tspan></text></g></svg><svg x="35" y="405" width="600" height="310" class="Apollon" fill="#ffffff"><g data-cy="uml-subsystem"><rect width="100%" height="100%" stroke="black" fill="white" class="sc-fqkvVR uHYUy"></rect><g transform="translate(569, 7)"><path d="M 4.8 0 L 24 0 L 24 24 L 4.8 24 L 4.8 19.2 L 0 19.2 L 0 14.4 L 4.8 14.4 L 4.8 9.6 L 0 9.6 L 0 4.8 L 4.8 4.8 Z" stroke-width="1.2" stroke-miterlimit="10" stroke="black" fill="white" class="sc-gEvEer fkqzOi"></path><path d="M 4.8 4.8 L 9.6 4.8 L 9.6 9.6 L 4.8 9.6 M 4.8 14.4 L 9.6 14.4 L 9.6 19.2 L 4.8 19.2" stroke-width="1.2" stroke-miterlimit="10" stroke="black" fill="none" class="sc-gEvEer bFSwyf"></path></g><text x="50%" y="25px" dominant-baseline="middle" text-anchor="middle" font-weight="bold" pointer-events="none"><tspan x="50%" dy="-8" text-anchor="middle" font-size="85%">«subsystem»</tspan><tspan x="50%" dy="18" text-anchor="middle">Apollon</tspan></text></g></svg><svg x="445" y="485" width="180" height="60" class="Store" fill="#ffffff"><g data-cy="uml-component"><rect width="100%" height="100%" stroke="black" fill="white" class="sc-fqkvVR uHYUy"></rect><g transform="translate(149, 7)"><path d="M 4.8 0 L 24 0 L 24 24 L 4.8 24 L 4.8 19.2 L 0 19.2 L 0 14.4 L 4.8 14.4 L 4.8 9.6 L 0 9.6 L 0 4.8 L 4.8 4.8 Z" stroke-width="1.2" stroke-miterlimit="10" stroke="black" fill="white" class="sc-gEvEer fkqzOi"></path><path d="M 4.8 4.8 L 9.6 4.8 L 9.6 9.6 L 4.8 9.6 M 4.8 14.4 L 9.6 14.4 L 9.6 19.2 L 4.8 19.2" stroke-width="1.2" stroke-miterlimit="10" stroke="black" fill="none" class="sc-gEvEer bFSwyf"></path></g><text x="50%" y="50%" dominant-baseline="middle" text-anchor="middle" font-weight="bold" pointer-events="none"><tspan x="50%" dy="-8" text-anchor="middle" font-size="85%">«component»</tspan><tspan x="50%" dy="18" text-anchor="middle">Store</tspan></text></g></svg><svg x="45" y="445" width="220" height="260" class="Realtime Collab." fill="#45aaf2"><g data-cy="uml-subsystem"><rect width="100%" height="100%" stroke="black" fill="#45aaf2" class="sc-fqkvVR dWXgEz"></rect><g transform="translate(189, 7)"><path d="M 4.8 0 L 24 0 L 24 24 L 4.8 24 L 4.8 19.2 L 0 19.2 L 0 14.4 L 4.8 14.4 L 4.8 9.6 L 0 9.6 L 0 4.8 L 4.8 4.8 Z" stroke-width="1.2" stroke-miterlimit="10" stroke="black" fill="#45aaf2" class="sc-gEvEer QgEaz"></path><path d="M 4.8 4.8 L 9.6 4.8 L 9.6 9.6 L 4.8 9.6 M 4.8 14.4 L 9.6 14.4 L 9.6 19.2 L 4.8 19.2" stroke-width="1.2" stroke-miterlimit="10" stroke="black" fill="none" class="sc-gEvEer bFSwyf"></path></g><text x="50%" y="25px" dominant-baseline="middle" text-anchor="middle" font-weight="bold" pointer-events="none"><tspan x="50%" dy="-8" text-anchor="middle" font-size="85%">«subsystem»</tspan><tspan x="50%" dy="18" text-anchor="middle">Realtime Collab.</tspan></text></g></svg><svg x="55" y="495" width="200" height="60" class="Patcher" fill="#45aaf2"><g data-cy="uml-component"><rect width="100%" height="100%" stroke="black" fill="#45aaf2" class="sc-fqkvVR dWXgEz"></rect><g transform="translate(169, 7)"><path d="M 4.8 0 L 24 0 L 24 24 L 4.8 24 L 4.8 19.2 L 0 19.2 L 0 14.4 L 4.8 14.4 L 4.8 9.6 L 0 9.6 L 0 4.8 L 4.8 4.8 Z" stroke-width="1.2" stroke-miterlimit="10" stroke="black" fill="#45aaf2" class="sc-gEvEer QgEaz"></path><path d="M 4.8 4.8 L 9.6 4.8 L 9.6 9.6 L 4.8 9.6 M 4.8 14.4 L 9.6 14.4 L 9.6 19.2 L 4.8 19.2" stroke-width="1.2" stroke-miterlimit="10" stroke="black" fill="none" class="sc-gEvEer bFSwyf"></path></g><text x="50%" y="50%" dominant-baseline="middle" text-anchor="middle" font-weight="bold" pointer-events="none"><tspan x="50%" dy="-8" text-anchor="middle" font-size="85%">«component»</tspan><tspan x="50%" dy="18" text-anchor="middle">Patcher</tspan></text></g></svg><svg x="55" y="635" width="200" height="60" class="Patch Verifier" fill="#45aaf2"><g data-cy="uml-component"><rect width="100%" height="100%" stroke="black" fill="#45aaf2" class="sc-fqkvVR dWXgEz"></rect><g transform="translate(169, 7)"><path d="M 4.8 0 L 24 0 L 24 24 L 4.8 24 L 4.8 19.2 L 0 19.2 L 0 14.4 L 4.8 14.4 L 4.8 9.6 L 0 9.6 L 0 4.8 L 4.8 4.8 Z" stroke-width="1.2" stroke-miterlimit="10" stroke="black" fill="#45aaf2" class="sc-gEvEer QgEaz"></path><path d="M 4.8 4.8 L 9.6 4.8 L 9.6 9.6 L 4.8 9.6 M 4.8 14.4 L 9.6 14.4 L 9.6 19.2 L 4.8 19.2" stroke-width="1.2" stroke-miterlimit="10" stroke="black" fill="none" class="sc-gEvEer bFSwyf"></path></g><text x="50%" y="50%" dominant-baseline="middle" text-anchor="middle" font-weight="bold" pointer-events="none"><tspan x="50%" dy="-8" text-anchor="middle" font-size="85%">«component»</tspan><tspan x="50%" dy="18" text-anchor="middle">Patch Verifier</tspan></text></g></svg><svg x="345" y="475" width="20" height="20" class="Middleware" fill="#ffffff"><g><circle cx="50%" cy="50%" r="10" stroke-width="2" stroke="black" fill="white" class="sc-iGgWBj fYmGgq"></circle><text x="25px" dominant-baseline="auto" text-anchor="start" font-weight="bold" pointer-events="none">Middleware</text></g></svg><svg x="345" y="565" width="20" height="20" class="Reducer" fill="#ffffff"><g><circle cx="50%" cy="50%" r="10" stroke-width="2" stroke="black" fill="white" class="sc-iGgWBj fYmGgq"></circle><text x="25px" dominant-baseline="auto" text-anchor="start" font-weight="bold" pointer-events="none">Reducer</text></g></svg><svg x="345" y="655" width="20" height="20" class="Saga" fill="#ffffff"><g><circle cx="50%" cy="50%" r="10" stroke-width="2" stroke="black" fill="white" class="sc-iGgWBj fYmGgq"></circle><text x="25px" dominant-baseline="auto" text-anchor="start" font-weight="bold" pointer-events="none">Saga</text></g></svg><svg x="445" y="645" width="180" height="60" class="User Interface" fill="#ffffff"><g data-cy="uml-component"><rect width="100%" height="100%" stroke="black" fill="white" class="sc-fqkvVR uHYUy"></rect><g transform="translate(149, 7)"><path d="M 4.8 0 L 24 0 L 24 24 L 4.8 24 L 4.8 19.2 L 0 19.2 L 0 14.4 L 4.8 14.4 L 4.8 9.6 L 0 9.6 L 0 4.8 L 4.8 4.8 Z" stroke-width="1.2" stroke-miterlimit="10" stroke="black" fill="white" class="sc-gEvEer fkqzOi"></path><path d="M 4.8 4.8 L 9.6 4.8 L 9.6 9.6 L 4.8 9.6 M 4.8 14.4 L 9.6 14.4 L 9.6 19.2 L 4.8 19.2" stroke-width="1.2" stroke-miterlimit="10" stroke="black" fill="none" class="sc-gEvEer bFSwyf"></path></g><text x="50%" y="50%" dominant-baseline="middle" text-anchor="middle" font-weight="bold" pointer-events="none"><tspan x="50%" dy="-8" text-anchor="middle" font-size="85%">«component»</tspan><tspan x="50%" dy="18" text-anchor="middle">User Interface</tspan></text></g></svg><svg x="345" y="355" width="20" height="20" class="ApollonEditor" fill="#ffffff"><g><circle cx="50%" cy="50%" r="10" stroke-width="2" stroke="black" fill="white" class="sc-iGgWBj fYmGgq"></circle><text x="25px" dominant-baseline="auto" text-anchor="start" font-weight="bold" pointer-events="none">ApollonEditor</text></g></svg><svg x="425" y="265" width="200" height="60" class="Local Persistence" fill="#ffffff"><g data-cy="uml-component"><rect width="100%" height="100%" stroke="black" fill="white" class="sc-fqkvVR uHYUy"></rect><g transform="translate(169, 7)"><path d="M 4.8 0 L 24 0 L 24 24 L 4.8 24 L 4.8 19.2 L 0 19.2 L 0 14.4 L 4.8 14.4 L 4.8 9.6 L 0 9.6 L 0 4.8 L 4.8 4.8 Z" stroke-width="1.2" stroke-miterlimit="10" stroke="black" fill="white" class="sc-gEvEer fkqzOi"></path><path d="M 4.8 4.8 L 9.6 4.8 L 9.6 9.6 L 4.8 9.6 M 4.8 14.4 L 9.6 14.4 L 9.6 19.2 L 4.8 19.2" stroke-width="1.2" stroke-miterlimit="10" stroke="black" fill="none" class="sc-gEvEer bFSwyf"></path></g><text x="50%" y="50%" dominant-baseline="middle" text-anchor="middle" font-weight="bold" pointer-events="none"><tspan x="50%" dy="-8" text-anchor="middle" font-size="85%">«component»</tspan><tspan x="50%" dy="18" text-anchor="middle">Local Persistence</tspan></text></g></svg><svg x="55" y="265" width="200" height="60" class="Collab." fill="#ffffff"><g data-cy="uml-component"><rect width="100%" height="100%" stroke="black" fill="white" class="sc-fqkvVR uHYUy"></rect><g transform="translate(169, 7)"><path d="M 4.8 0 L 24 0 L 24 24 L 4.8 24 L 4.8 19.2 L 0 19.2 L 0 14.4 L 4.8 14.4 L 4.8 9.6 L 0 9.6 L 0 4.8 L 4.8 4.8 Z" stroke-width="1.2" stroke-miterlimit="10" stroke="black" fill="white" class="sc-gEvEer fkqzOi"></path><path d="M 4.8 4.8 L 9.6 4.8 L 9.6 9.6 L 4.8 9.6 M 4.8 14.4 L 9.6 14.4 L 9.6 19.2 L 4.8 19.2" stroke-width="1.2" stroke-miterlimit="10" stroke="black" fill="none" class="sc-gEvEer bFSwyf"></path></g><text x="50%" y="50%" dominant-baseline="middle" text-anchor="middle" font-weight="bold" pointer-events="none"><tspan x="50%" dy="-8" text-anchor="middle" font-size="85%">«component»</tspan><tspan x="50%" dy="18" text-anchor="middle">Collab.</tspan></text></g></svg><svg x="25" y="15" width="620" height="130" class="Integrating Platform Server" fill="#ffffff"><g data-cy="uml-subsystem"><rect width="100%" height="100%" stroke="black" fill="white" class="sc-fqkvVR uHYUy"></rect><g transform="translate(589, 7)"><path d="M 4.8 0 L 24 0 L 24 24 L 4.8 24 L 4.8 19.2 L 0 19.2 L 0 14.4 L 4.8 14.4 L 4.8 9.6 L 0 9.6 L 0 4.8 L 4.8 4.8 Z" stroke-width="1.2" stroke-miterlimit="10" stroke="black" fill="white" class="sc-gEvEer fkqzOi"></path><path d="M 4.8 4.8 L 9.6 4.8 L 9.6 9.6 L 4.8 9.6 M 4.8 14.4 L 9.6 14.4 L 9.6 19.2 L 4.8 19.2" stroke-width="1.2" stroke-miterlimit="10" stroke="black" fill="none" class="sc-gEvEer bFSwyf"></path></g><text x="50%" y="25px" dominant-baseline="middle" text-anchor="middle" font-weight="bold" pointer-events="none"><tspan x="50%" dy="-8" text-anchor="middle" font-size="85%">«subsystem»</tspan><tspan x="50%" dy="18" text-anchor="middle">Integrating Platform Server</tspan></text></g></svg><svg x="55" y="65" width="200" height="70" class="Message Broadcast" fill="#ffffff"><g data-cy="uml-component"><rect width="100%" height="100%" stroke="black" fill="white" class="sc-fqkvVR uHYUy"></rect><g transform="translate(169, 7)"><path d="M 4.8 0 L 24 0 L 24 24 L 4.8 24 L 4.8 19.2 L 0 19.2 L 0 14.4 L 4.8 14.4 L 4.8 9.6 L 0 9.6 L 0 4.8 L 4.8 4.8 Z" stroke-width="1.2" stroke-miterlimit="10" stroke="black" fill="white" class="sc-gEvEer fkqzOi"></path><path d="M 4.8 4.8 L 9.6 4.8 L 9.6 9.6 L 4.8 9.6 M 4.8 14.4 L 9.6 14.4 L 9.6 19.2 L 4.8 19.2" stroke-width="1.2" stroke-miterlimit="10" stroke="black" fill="none" class="sc-gEvEer bFSwyf"></path></g><text x="50%" y="50%" dominant-baseline="middle" text-anchor="middle" font-weight="bold" pointer-events="none"><tspan x="50%" dy="-8" text-anchor="middle" font-size="85%">«component»</tspan><tspan x="50%" dy="18" text-anchor="middle">Message Broadcast</tspan></text></g></svg><svg x="425" y="65" width="200" height="70" class="Remote Persistence" fill="#ffffff"><g data-cy="uml-component"><rect width="100%" height="100%" stroke="black" fill="white" class="sc-fqkvVR uHYUy"></rect><g transform="translate(169, 7)"><path d="M 4.8 0 L 24 0 L 24 24 L 4.8 24 L 4.8 19.2 L 0 19.2 L 0 14.4 L 4.8 14.4 L 4.8 9.6 L 0 9.6 L 0 4.8 L 4.8 4.8 Z" stroke-width="1.2" stroke-miterlimit="10" stroke="black" fill="white" class="sc-gEvEer fkqzOi"></path><path d="M 4.8 4.8 L 9.6 4.8 L 9.6 9.6 L 4.8 9.6 M 4.8 14.4 L 9.6 14.4 L 9.6 19.2 L 4.8 19.2" stroke-width="1.2" stroke-miterlimit="10" stroke="black" fill="none" class="sc-gEvEer bFSwyf"></path></g><text x="50%" y="50%" dominant-baseline="middle" text-anchor="middle" font-weight="bold" pointer-events="none"><tspan x="50%" dy="-8" text-anchor="middle" font-size="85%">«component»</tspan><tspan x="50%" dy="18" text-anchor="middle">Remote Persistence</tspan></text></g></svg><svg x="515" y="175" width="20" height="20" class="REST APIs" fill="#ffffff"><g><circle cx="50%" cy="50%" r="10" stroke-width="2" stroke="black" fill="white" class="sc-iGgWBj fYmGgq"></circle><text x="25px" dominant-baseline="auto" text-anchor="start" font-weight="bold" pointer-events="none">REST APIs</text></g></svg><svg x="145" y="175" width="20" height="20" class="WebSocket" fill="#ffffff"><g><circle cx="50%" cy="50%" r="10" stroke-width="2" stroke="black" fill="white" class="sc-iGgWBj fYmGgq"></circle><text x="25px" dominant-baseline="auto" text-anchor="start" font-weight="bold" pointer-events="none">WebSocket</text></g></svg><svg x="265" y="485" width="80" height="90" class="" fill="#ffffff"><g><polyline points="0 90,40 90,40 0,80 0" stroke="black" fill="none" class="sc-aXZVg eMElBf"></polyline></g></svg><svg x="265" y="575" width="80" height="1" class="" fill="#ffffff"><g><polyline points="0 0,80 0" stroke="black" fill="none" class="sc-aXZVg eMElBf"></polyline></g></svg><svg x="265" y="575" width="80" height="90" class="" fill="#ffffff"><g><polyline points="0 0,40 0,40 90,80 90" stroke="black" fill="none" class="sc-aXZVg eMElBf"></polyline></g></svg><svg x="352" y="472" width="93" height="43" class="" fill="#ffffff"><g><marker id="marker-1be97dd7-3f6f-42f0-9112-f0a79eb7e91d" viewBox="0 0 27 27" markerWidth="27" markerHeight="27" refX="0" refY="0" orient="auto" markerUnits="strokeWidth"><path d="M 8 -12.5 C -3.5 -7.5 -3.3 7.9 8 12.5" stroke-width="2" stroke="black" fill="none" class="sc-gEvEer bFSwyf"></path></marker><polyline points="93 43,53 43,53 13,16 13" stroke-width="1" marker-end="url(#marker-1be97dd7-3f6f-42f0-9112-f0a79eb7e91d)" stroke="black" fill="none" class="sc-aXZVg eMElBf"></polyline></g></svg><svg x="352" y="515" width="93" height="74" class="" fill="#ffffff"><g><marker id="marker-024d9fd9-631c-415a-b005-72d751b91c61" viewBox="0 0 27 27" markerWidth="27" markerHeight="27" refX="0" refY="0" orient="auto" markerUnits="strokeWidth"><path d="M 8 -12.5 C -3.5 -7.5 -3.3 7.9 8 12.5" stroke-width="2" stroke="black" fill="none" class="sc-gEvEer bFSwyf"></path></marker><polyline points="93 0,53 0,53 60,16 60" stroke-width="1" marker-end="url(#marker-024d9fd9-631c-415a-b005-72d751b91c61)" stroke="black" fill="none" class="sc-aXZVg eMElBf"></polyline></g></svg><svg x="352" y="515" width="93" height="164" class="" fill="#ffffff"><g><marker id="marker-8d645049-eebe-4d2e-93df-50a03972a5d1" viewBox="0 0 27 27" markerWidth="27" markerHeight="27" refX="0" refY="0" orient="auto" markerUnits="strokeWidth"><path d="M 8 -12.5 C -3.5 -7.5 -3.3 7.9 8 12.5" stroke-width="2" stroke="black" fill="none" class="sc-gEvEer bFSwyf"></path></marker><polyline points="93 0,53 0,53 150,16 150" stroke-width="1" marker-end="url(#marker-8d645049-eebe-4d2e-93df-50a03972a5d1)" stroke="black" fill="none" class="sc-aXZVg eMElBf"></polyline></g></svg><svg x="535" y="545" width="1" height="100" class="" fill="#ffffff"><g><marker id="marker-8a04d826-00f2-4dc3-a77e-bc49fc42bf09" viewBox="0 0 30 30" markerWidth="22" markerHeight="30" refX="30" refY="15" orient="auto" markerUnits="strokeWidth"><path d="M0,29 L30,15 L0,1" stroke="black" fill="none" class="sc-gEvEer bFSwyf"></path></marker><polyline points="0 100,0 0" stroke-width="1" stroke-dasharray="7" marker-end="url(#marker-8a04d826-00f2-4dc3-a77e-bc49fc42bf09)" stroke="black" fill="none" class="sc-aXZVg eMElBf"></polyline></g></svg><svg x="155" y="555" width="1" height="80" class="" fill="#ffffff"><g><marker id="marker-29df97f5-65be-4967-bb68-8c6be4b8cb95" viewBox="0 0 30 30" markerWidth="22" markerHeight="30" refX="30" refY="15" orient="auto" markerUnits="strokeWidth"><path d="M0,29 L30,15 L0,1" stroke="black" fill="none" class="sc-gEvEer bFSwyf"></path></marker><polyline points="0 0,0 80" stroke-width="1" stroke-dasharray="7" marker-end="url(#marker-29df97f5-65be-4967-bb68-8c6be4b8cb95)" stroke="black" fill="none" class="sc-aXZVg eMElBf"></polyline></g></svg><svg x="365" y="365" width="170" height="120" class="" fill="#ffffff"><g><polyline points="170 120,170 0,0 0" stroke="black" fill="none" class="sc-aXZVg eMElBf"></polyline></g></svg><svg x="255" y="295" width="114" height="74" class="" fill="#ffffff"><g><marker id="marker-885eacda-4353-4c75-9620-965dcaa773af" viewBox="0 0 27 27" markerWidth="27" markerHeight="27" refX="0" refY="0" orient="auto" markerUnits="strokeWidth"><path d="M 2 -7.8 C -1.5 -3 -1.2 3.4 2 7.8" stroke-width="2" stroke="black" fill="none" class="sc-gEvEer bFSwyf"></path></marker><polyline points="0 0,100 0,100 57" stroke-width="1" marker-end="url(#marker-885eacda-4353-4c75-9620-965dcaa773af)" stroke="black" fill="none" class="sc-aXZVg eMElBf"></polyline></g></svg><svg x="342" y="295" width="83" height="74" class="" fill="#ffffff"><g><marker id="marker-efa66b89-c994-4e00-b117-975d28beda86" viewBox="0 0 27 27" markerWidth="27" markerHeight="27" refX="0" refY="0" orient="auto" markerUnits="strokeWidth"><path d="M 2 -7.8 C -1.5 -3 -1.2 3.4 2 7.8" stroke-width="2" stroke="black" fill="none" class="sc-gEvEer bFSwyf"></path></marker><polyline points="83 0,13 0,13 57" stroke-width="1" marker-end="url(#marker-efa66b89-c994-4e00-b117-975d28beda86)" stroke="black" fill="none" class="sc-aXZVg eMElBf"></polyline></g></svg><svg x="525" y="135" width="1" height="40" class="" fill="#ffffff"><g><polyline points="0 0,0 40,0 0,0 40" stroke="black" fill="none" class="sc-aXZVg eMElBf"></polyline></g></svg><svg x="512" y="182" width="27" height="83" class="" fill="#ffffff"><g><marker id="marker-477e70ae-fc7c-474e-b69d-e314789ab743" viewBox="0 0 27 27" markerWidth="27" markerHeight="27" refX="0" refY="0" orient="auto" markerUnits="strokeWidth"><path d="M 8 -12.5 C -3.5 -7.5 -3.3 7.9 8 12.5" stroke-width="2" stroke="black" fill="none" class="sc-gEvEer bFSwyf"></path></marker><polyline points="13 83,13 43,13 53,13 16" stroke-width="1" marker-end="url(#marker-477e70ae-fc7c-474e-b69d-e314789ab743)" stroke="black" fill="none" class="sc-aXZVg eMElBf"></polyline></g></svg><svg x="155" y="135" width="1" height="40" class="" fill="#ffffff"><g><polyline points="0 0,0 40,0 0,0 40" stroke="black" fill="none" class="sc-aXZVg eMElBf"></polyline></g></svg><svg x="142" y="182" width="27" height="83" class="" fill="#ffffff"><g><marker id="marker-05f745af-3044-4427-b39b-861dacdb2b12" viewBox="0 0 27 27" markerWidth="27" markerHeight="27" refX="0" refY="0" orient="auto" markerUnits="strokeWidth"><path d="M 8 -12.5 C -3.5 -7.5 -3.3 7.9 8 12.5" stroke-width="2" stroke="black" fill="none" class="sc-gEvEer bFSwyf"></path></marker><polyline points="13 83,13 43,13 53,13 16" stroke-width="1" marker-end="url(#marker-05f745af-3044-4427-b39b-861dacdb2b12)" stroke="black" fill="none" class="sc-aXZVg eMElBf"></polyline></g></svg><svg x="15" y="365" width="330" height="160" class="" fill="#ffffff"><g><polyline points="330 0,0 0,0 160,40 160" stroke="black" fill="none" class="sc-aXZVg eMElBf"></polyline></g></svg></svg>